<?xml version="1.0" encoding="UTF-8"?><svg xmlns="http://www.w3.org/2000/svg" xmlns:xlink="http://www.w3.org/1999/xlink" fill-opacity="1" color-rendering="auto" color-interpolation="auto" text-rendering="auto" stroke="black" stroke-linecap="square" width="438" stroke-miterlimit="10" shape-rendering="auto" stroke-opacity="1" fill="black" stroke-dasharray="none" font-weight="normal" stroke-width="1" height="224" font-family="'Dialog'" font-style="normal" stroke-linejoin="miter" font-size="12px" stroke-dashoffset="0" image-rendering="auto">
  <!--Generated by ySVG 2.5-->
  <defs id="genericDefs"/>
  <g>
    <defs id="defs1">
      <clipPath clipPathUnits="userSpaceOnUse" id="clipPath1">
        <path d="M0 0 L438 0 L438 224 L0 224 L0 0 Z"/>
      </clipPath>
      <clipPath clipPathUnits="userSpaceOnUse" id="clipPath2">
        <path d="M181 163 L619 163 L619 387 L181 387 L181 163 Z"/>
      </clipPath>
    </defs>
    <g fill="white" text-rendering="geometricPrecision" shape-rendering="geometricPrecision" transform="translate(-181,-163)" stroke="white">
      <rect x="181" width="438" height="224" y="163" clip-path="url(#clipPath2)" stroke="none"/>
    </g>
    <g fill="yellow" text-rendering="geometricPrecision" shape-rendering="geometricPrecision" transform="matrix(1,0,0,1,-181,-163)" stroke="yellow">
      <rect x="196.0159" y="253" clip-path="url(#clipPath2)" width="98.9682" rx="4" ry="4" height="44" stroke="none"/>
    </g>
    <g font-size="16px" stroke-linecap="butt" transform="matrix(1,0,0,1,-181,-163)" text-rendering="geometricPrecision" font-family="sans-serif" shape-rendering="geometricPrecision" stroke-miterlimit="1.45">
      <text x="204.5859" xml:space="preserve" y="281.2852" clip-path="url(#clipPath2)" stroke="none">foaf:Person</text>
      <rect x="196.0159" y="253" clip-path="url(#clipPath2)" fill="none" width="98.9682" rx="4" ry="4" height="44"/>
    </g>
    <g fill="yellow" text-rendering="geometricPrecision" shape-rendering="geometricPrecision" transform="matrix(1,0,0,1,-181,-163)" stroke="yellow">
      <rect x="342.9842" y="178" clip-path="url(#clipPath2)" width="98.9682" rx="4" ry="4" height="44" stroke="none"/>
    </g>
    <g font-size="16px" stroke-linecap="butt" transform="matrix(1,0,0,1,-181,-163)" text-rendering="geometricPrecision" font-family="sans-serif" shape-rendering="geometricPrecision" stroke-miterlimit="1.45">
      <text x="363.1207" xml:space="preserve" y="206.2852" clip-path="url(#clipPath2)" stroke="none">bio:Birth</text>
      <rect x="342.9842" y="178" clip-path="url(#clipPath2)" fill="none" width="98.9682" rx="4" ry="4" height="44"/>
    </g>
    <g fill="yellow" text-rendering="geometricPrecision" shape-rendering="geometricPrecision" transform="matrix(1,0,0,1,-181,-163)" stroke="yellow">
      <rect x="342.9842" y="328" clip-path="url(#clipPath2)" width="98.9682" rx="4" ry="4" height="44" stroke="none"/>
    </g>
    <g font-size="16px" stroke-linecap="butt" transform="matrix(1,0,0,1,-181,-163)" text-rendering="geometricPrecision" font-family="sans-serif" shape-rendering="geometricPrecision" stroke-miterlimit="1.45">
      <text x="358.2222" xml:space="preserve" y="356.2852" clip-path="url(#clipPath2)" stroke="none">bio:Death</text>
      <rect x="342.9842" y="328" clip-path="url(#clipPath2)" fill="none" width="98.9682" rx="4" ry="4" height="44"/>
    </g>
    <g fill="rgb(204,255,204)" text-rendering="geometricPrecision" shape-rendering="geometricPrecision" transform="matrix(1,0,0,1,-181,-163)" stroke="rgb(204,255,204)">
      <path d="M489.562 253.5 L603.0475 253.5 L590.438 296.5 L476.9525 296.5 Z" fill-rule="evenodd" clip-path="url(#clipPath2)" stroke="none"/>
    </g>
    <g font-size="16px" stroke-linecap="butt" transform="matrix(1,0,0,1,-181,-163)" text-rendering="geometricPrecision" font-family="sans-serif" shape-rendering="geometricPrecision" stroke-miterlimit="1.45">
      <text x="502.6523" xml:space="preserve" y="281.2852" clip-path="url(#clipPath2)" stroke="none">rdfs:Literal</text>
      <path fill="none" d="M489.562 253.5 L603.0475 253.5 L590.438 296.5 L476.9525 296.5 Z" fill-rule="evenodd" clip-path="url(#clipPath2)"/>
    </g>
    <g stroke-linecap="round" transform="matrix(1,0,0,1,-181,-163)" stroke-dashoffset="2" fill="navy" text-rendering="geometricPrecision" shape-rendering="geometricPrecision" stroke-dasharray="0,4" stroke="navy" stroke-miterlimit="1.45">
      <path fill="none" d="M245.5 248.9907 L245.5 200 L331.9885 200" clip-path="url(#clipPath2)"/>
      <path d="M245.5 256.9907 C243.2909 256.9907 241.5 255.1999 241.5 252.9907 C241.5 250.7816 243.2909 248.9907 245.5 248.9907 C247.7091 248.9907 249.5 250.7816 249.5 252.9907 C249.5 255.1999 247.7091 256.9907 245.5 256.9907 Z" clip-path="url(#clipPath2)" stroke="none"/>
      <path d="M342.9885 200 L330.9885 194 L330.9885 206 Z" clip-path="url(#clipPath2)" stroke="none"/>
      <rect x="259.2187" y="188.1992" clip-path="url(#clipPath2)" fill="white" width="60.9219" height="23.6016" stroke="none"/>
    </g>
    <g stroke-linecap="butt" font-size="16px" transform="matrix(1,0,0,1,-181,-163)" fill="navy" text-rendering="geometricPrecision" font-family="sans-serif" shape-rendering="geometricPrecision" stroke="navy" stroke-miterlimit="1.45">
      <text x="261.2187" xml:space="preserve" y="206.2852" clip-path="url(#clipPath2)" stroke="none">bio:birth</text>
    </g>
    <g stroke-linecap="round" transform="matrix(1,0,0,1,-181,-163)" stroke-dashoffset="2" fill="navy" text-rendering="geometricPrecision" shape-rendering="geometricPrecision" stroke-dasharray="0,4" stroke="navy" stroke-miterlimit="1.45">
      <path fill="none" d="M245.5 301.0093 L245.5 350 L331.9885 350" clip-path="url(#clipPath2)"/>
      <path d="M245.5 293.0093 C247.7091 293.0093 249.5 294.8001 249.5 297.0093 C249.5 299.2184 247.7091 301.0093 245.5 301.0093 C243.2909 301.0093 241.5 299.2184 241.5 297.0093 C241.5 294.8001 243.2909 293.0093 245.5 293.0093 Z" clip-path="url(#clipPath2)" stroke="none"/>
      <path d="M342.9885 350 L330.9885 344 L330.9885 356 Z" clip-path="url(#clipPath2)" stroke="none"/>
      <rect x="254.7616" y="338.1992" clip-path="url(#clipPath2)" fill="white" width="69.8359" height="23.6016" stroke="none"/>
    </g>
    <g stroke-linecap="butt" font-size="16px" transform="matrix(1,0,0,1,-181,-163)" fill="navy" text-rendering="geometricPrecision" font-family="sans-serif" shape-rendering="geometricPrecision" stroke="navy" stroke-miterlimit="1.45">
      <text x="256.7616" xml:space="preserve" y="356.2852" clip-path="url(#clipPath2)" stroke="none">bio:death</text>
    </g>
    <g stroke-linecap="round" transform="matrix(1,0,0,1,-181,-163)" stroke-dashoffset="2" fill="green" text-rendering="geometricPrecision" shape-rendering="geometricPrecision" stroke-dasharray="0,4" stroke="green" stroke-miterlimit="1.45">
      <path fill="none" d="M392.4683 226.0093 L392.4683 275 L468.2709 275" clip-path="url(#clipPath2)"/>
    </g>
    <g stroke-linecap="round" transform="matrix(1,0,0,1,-181,-163)" fill-opacity="0" stroke-dashoffset="2" fill="rgb(0,0,0)" text-rendering="geometricPrecision" shape-rendering="geometricPrecision" stroke-dasharray="0,4" stroke="rgb(0,0,0)" stroke-opacity="0" stroke-miterlimit="1.45">
      <path d="M392.4683 218.0093 C394.6775 218.0093 396.4683 219.8001 396.4683 222.0093 C396.4683 224.2184 394.6775 226.0093 392.4683 226.0093 C390.2592 226.0093 388.4683 224.2184 388.4683 222.0093 C388.4683 219.8001 390.2592 218.0093 392.4683 218.0093 Z" stroke="none" clip-path="url(#clipPath2)"/>
    </g>
    <g stroke-linecap="butt" transform="matrix(1,0,0,1,-181,-163)" fill="green" text-rendering="geometricPrecision" shape-rendering="geometricPrecision" stroke="green" stroke-miterlimit="1.45">
      <path fill="none" d="M392.4683 218.0093 C394.6775 218.0093 396.4683 219.8001 396.4683 222.0093 C396.4683 224.2184 394.6775 226.0093 392.4683 226.0093 C390.2592 226.0093 388.4683 224.2184 388.4683 222.0093 C388.4683 219.8001 390.2592 218.0093 392.4683 218.0093 Z" clip-path="url(#clipPath2)"/>
    </g>
    <g stroke-linecap="round" transform="matrix(1,0,0,1,-181,-163)" stroke-dashoffset="2" fill="white" text-rendering="geometricPrecision" shape-rendering="geometricPrecision" stroke-dasharray="0,4" stroke="white" stroke-miterlimit="1.45">
      <path d="M483.2709 275 L467.2709 269 L467.2709 281 Z" stroke="none" clip-path="url(#clipPath2)"/>
    </g>
    <g stroke-linecap="butt" transform="matrix(1,0,0,1,-181,-163)" fill="green" text-rendering="geometricPrecision" shape-rendering="geometricPrecision" stroke="green" stroke-miterlimit="1.45">
      <path fill="none" d="M483.2709 275 L467.2709 269 L467.2709 281 Z" clip-path="url(#clipPath2)"/>
    </g>
    <g stroke-linecap="round" transform="matrix(1,0,0,1,-181,-163)" stroke-dashoffset="2" fill="white" text-rendering="geometricPrecision" shape-rendering="geometricPrecision" stroke-dasharray="0,4" stroke="white" stroke-miterlimit="1.45">
      <rect x="401.9057" width="56.4844" height="23.6016" y="263.1992" clip-path="url(#clipPath2)" stroke="none"/>
    </g>
    <g stroke-linecap="butt" font-size="16px" transform="matrix(1,0,0,1,-181,-163)" fill="green" text-rendering="geometricPrecision" font-family="sans-serif" shape-rendering="geometricPrecision" stroke="green" stroke-miterlimit="1.45">
      <text x="403.9057" xml:space="preserve" y="281.2852" clip-path="url(#clipPath2)" stroke="none">dc:date</text>
    </g>
    <g stroke-linecap="round" transform="matrix(1,0,0,1,-181,-163)" stroke-dashoffset="2" fill="green" text-rendering="geometricPrecision" shape-rendering="geometricPrecision" stroke-dasharray="0,4" stroke="green" stroke-miterlimit="1.45">
      <path fill="none" d="M392.4683 323.9907 L392.4683 275 L468.2709 275" clip-path="url(#clipPath2)"/>
    </g>
    <g stroke-linecap="round" transform="matrix(1,0,0,1,-181,-163)" fill-opacity="0" stroke-dashoffset="2" fill="rgb(0,0,0)" text-rendering="geometricPrecision" shape-rendering="geometricPrecision" stroke-dasharray="0,4" stroke="rgb(0,0,0)" stroke-opacity="0" stroke-miterlimit="1.45">
      <path d="M392.4683 331.9907 C390.2592 331.9907 388.4683 330.1999 388.4683 327.9907 C388.4683 325.7816 390.2592 323.9907 392.4683 323.9907 C394.6775 323.9907 396.4683 325.7816 396.4683 327.9907 C396.4683 330.1999 394.6775 331.9907 392.4683 331.9907 Z" stroke="none" clip-path="url(#clipPath2)"/>
    </g>
    <g stroke-linecap="butt" transform="matrix(1,0,0,1,-181,-163)" fill="green" text-rendering="geometricPrecision" shape-rendering="geometricPrecision" stroke="green" stroke-miterlimit="1.45">
      <path fill="none" d="M392.4683 331.9907 C390.2592 331.9907 388.4683 330.1999 388.4683 327.9907 C388.4683 325.7816 390.2592 323.9907 392.4683 323.9907 C394.6775 323.9907 396.4683 325.7816 396.4683 327.9907 C396.4683 330.1999 394.6775 331.9907 392.4683 331.9907 Z" clip-path="url(#clipPath2)"/>
    </g>
    <g stroke-linecap="round" transform="matrix(1,0,0,1,-181,-163)" stroke-dashoffset="2" fill="white" text-rendering="geometricPrecision" shape-rendering="geometricPrecision" stroke-dasharray="0,4" stroke="white" stroke-miterlimit="1.45">
      <path d="M483.2709 275 L467.2709 269 L467.2709 281 Z" stroke="none" clip-path="url(#clipPath2)"/>
    </g>
    <g stroke-linecap="butt" transform="matrix(1,0,0,1,-181,-163)" fill="green" text-rendering="geometricPrecision" shape-rendering="geometricPrecision" stroke="green" stroke-miterlimit="1.45">
      <path fill="none" d="M483.2709 275 L467.2709 269 L467.2709 281 Z" clip-path="url(#clipPath2)"/>
    </g>
    <g stroke-linecap="round" transform="matrix(1,0,0,1,-181,-163)" stroke-dashoffset="2" fill="white" text-rendering="geometricPrecision" shape-rendering="geometricPrecision" stroke-dasharray="0,4" stroke="white" stroke-miterlimit="1.45">
      <rect x="401.9057" width="56.4844" height="23.6016" y="263.1992" clip-path="url(#clipPath2)" stroke="none"/>
    </g>
    <g stroke-linecap="butt" font-size="16px" transform="matrix(1,0,0,1,-181,-163)" fill="green" text-rendering="geometricPrecision" font-family="sans-serif" shape-rendering="geometricPrecision" stroke="green" stroke-miterlimit="1.45">
      <text x="403.9057" xml:space="preserve" y="281.2852" clip-path="url(#clipPath2)" stroke="none">dc:date</text>
    </g>
  </g>
</svg>
