<?xml version="1.0" encoding="UTF-8"?><svg xmlns="http://www.w3.org/2000/svg" xmlns:xlink="http://www.w3.org/1999/xlink" fill-opacity="1" color-rendering="auto" color-interpolation="auto" text-rendering="auto" stroke="black" stroke-linecap="square" width="680" stroke-miterlimit="10" shape-rendering="auto" stroke-opacity="1" fill="black" stroke-dasharray="none" font-weight="normal" stroke-width="1" height="605" font-family="'Dialog'" font-style="normal" stroke-linejoin="miter" font-size="12px" stroke-dashoffset="0" image-rendering="auto">
  <!--Generated by ySVG 2.5-->
  <defs id="genericDefs"/>
  <g>
    <defs id="defs1">
      <clipPath clipPathUnits="userSpaceOnUse" id="clipPath1">
        <path d="M0 0 L680 0 L680 605 L0 605 L0 0 Z"/>
      </clipPath>
      <clipPath clipPathUnits="userSpaceOnUse" id="clipPath2">
        <path d="M164 102 L844 102 L844 707 L164 707 L164 102 Z"/>
      </clipPath>
    </defs>
    <g fill="white" text-rendering="geometricPrecision" shape-rendering="geometricPrecision" transform="translate(-164,-102)" stroke="white">
      <rect x="164" width="680" height="605" y="102" clip-path="url(#clipPath2)" stroke="none"/>
    </g>
    <g fill="yellow" text-rendering="geometricPrecision" shape-rendering="geometricPrecision" transform="matrix(1,0,0,1,-164,-102)" stroke="yellow">
      <rect x="255.0636" y="117" clip-path="url(#clipPath2)" width="135.9682" rx="4" ry="4" height="44" stroke="none"/>
    </g>
    <g font-size="16px" stroke-linecap="butt" transform="matrix(1,0,0,1,-164,-102)" text-rendering="geometricPrecision" font-family="sans-serif" shape-rendering="geometricPrecision" stroke-miterlimit="1.45">
      <text x="268.3602" xml:space="preserve" y="145.2852" clip-path="url(#clipPath2)" stroke="none">pro:RoleInTime</text>
      <rect x="255.0636" y="117" clip-path="url(#clipPath2)" fill="none" width="135.9682" rx="4" ry="4" height="44"/>
    </g>
    <g fill="yellow" text-rendering="geometricPrecision" shape-rendering="geometricPrecision" transform="matrix(1,0,0,1,-164,-102)" stroke="yellow">
      <rect x="623.2542" y="122" clip-path="url(#clipPath2)" width="86.9682" rx="4" ry="4" height="44" stroke="none"/>
    </g>
    <g font-size="16px" stroke-linecap="butt" transform="matrix(1,0,0,1,-164,-102)" text-rendering="geometricPrecision" font-family="sans-serif" shape-rendering="geometricPrecision" stroke-miterlimit="1.45">
      <text x="636.5001" xml:space="preserve" y="150.2852" clip-path="url(#clipPath2)" stroke="none">pro:Role</text>
      <rect x="623.2542" y="122" clip-path="url(#clipPath2)" fill="none" width="86.9682" rx="4" ry="4" height="44"/>
    </g>
    <g fill="yellow" text-rendering="geometricPrecision" shape-rendering="geometricPrecision" transform="matrix(1,0,0,1,-164,-102)" stroke="yellow">
      <rect x="616.7542" y="205.75" clip-path="url(#clipPath2)" width="99.9682" rx="4" ry="4" height="44" stroke="none"/>
    </g>
    <g font-size="16px" stroke-linecap="butt" transform="matrix(1,0,0,1,-164,-102)" text-rendering="geometricPrecision" font-family="sans-serif" shape-rendering="geometricPrecision" stroke-miterlimit="1.45">
      <text x="625.8243" xml:space="preserve" y="234.0352" clip-path="url(#clipPath2)" stroke="none">foaf:Person</text>
      <rect x="616.7542" y="205.75" clip-path="url(#clipPath2)" fill="none" width="99.9682" rx="4" ry="4" height="44"/>
    </g>
    <g fill="yellow" text-rendering="geometricPrecision" shape-rendering="geometricPrecision" transform="matrix(1,0,0,1,-164,-102)" stroke="yellow">
      <rect x="313.1271" y="351" clip-path="url(#clipPath2)" width="135.9682" rx="4" ry="4" height="44" stroke="none"/>
    </g>
    <g font-size="16px" stroke-linecap="butt" transform="matrix(1,0,0,1,-164,-102)" text-rendering="geometricPrecision" font-family="sans-serif" shape-rendering="geometricPrecision" stroke-miterlimit="1.45">
      <text x="330.8769" xml:space="preserve" y="379.2852" clip-path="url(#clipPath2)" stroke="none">ti:TimeInterval</text>
      <rect x="313.1271" y="351" clip-path="url(#clipPath2)" fill="none" width="135.9682" rx="4" ry="4" height="44"/>
    </g>
    <g fill="yellow" text-rendering="geometricPrecision" shape-rendering="geometricPrecision" transform="matrix(1,0,0,1,-164,-102)" stroke="yellow">
      <rect x="245.1373" y="461" clip-path="url(#clipPath2)" width="99.9682" rx="4" ry="4" height="44" stroke="none"/>
    </g>
    <g font-size="16px" stroke-linecap="butt" transform="matrix(1,0,0,1,-164,-102)" text-rendering="geometricPrecision" font-family="sans-serif" shape-rendering="geometricPrecision" stroke-miterlimit="1.45">
      <text x="265.3401" xml:space="preserve" y="489.2852" clip-path="url(#clipPath2)" stroke="none">frbr:Item</text>
      <rect x="245.1373" y="461" clip-path="url(#clipPath2)" fill="none" width="99.9682" rx="4" ry="4" height="44"/>
    </g>
    <g fill="yellow" text-rendering="geometricPrecision" shape-rendering="geometricPrecision" transform="matrix(1,0,0,1,-164,-102)" stroke="yellow">
      <rect x="179.0159" y="580" clip-path="url(#clipPath2)" width="99.9682" rx="4" ry="4" height="44" stroke="none"/>
    </g>
    <g font-size="16px" stroke-linecap="butt" transform="matrix(1,0,0,1,-164,-102)" text-rendering="geometricPrecision" font-family="sans-serif" shape-rendering="geometricPrecision" stroke-miterlimit="1.45">
      <text x="196.0898" xml:space="preserve" y="608.2852" clip-path="url(#clipPath2)" stroke="none">bio:Place</text>
      <rect x="179.0159" y="580" clip-path="url(#clipPath2)" fill="none" width="99.9682" rx="4" ry="4" height="44"/>
    </g>
    <g fill="yellow" text-rendering="geometricPrecision" shape-rendering="geometricPrecision" transform="matrix(1,0,0,1,-164,-102)" stroke="yellow">
      <rect x="528.5159" y="430.4583" clip-path="url(#clipPath2)" width="166.9682" rx="4" ry="4" height="44" stroke="none"/>
    </g>
    <g font-size="16px" stroke-linecap="butt" transform="matrix(1,0,0,1,-164,-102)" text-rendering="geometricPrecision" font-family="sans-serif" shape-rendering="geometricPrecision" stroke-miterlimit="1.45">
      <text x="536.4023" xml:space="preserve" y="458.7435" clip-path="url(#clipPath2)" stroke="none">hico:InterpretationAct</text>
      <rect x="528.5159" y="430.4583" clip-path="url(#clipPath2)" fill="none" width="166.9682" rx="4" ry="4" height="44"/>
    </g>
    <g fill="yellow" text-rendering="geometricPrecision" shape-rendering="geometricPrecision" transform="matrix(1,0,0,1,-164,-102)" stroke="yellow">
      <rect x="524.0159" y="539.0625" clip-path="url(#clipPath2)" width="175.9682" rx="4" ry="4" height="44" stroke="none"/>
    </g>
    <g font-size="16px" stroke-linecap="butt" transform="matrix(1,0,0,1,-164,-102)" text-rendering="geometricPrecision" font-family="sans-serif" shape-rendering="geometricPrecision" stroke-miterlimit="1.45">
      <text x="530.1758" xml:space="preserve" y="567.3477" clip-path="url(#clipPath2)" stroke="none">hico:InterpretationType</text>
      <rect x="524.0159" y="539.0625" clip-path="url(#clipPath2)" fill="none" width="175.9682" rx="4" ry="4" height="44"/>
    </g>
    <g fill="yellow" text-rendering="geometricPrecision" shape-rendering="geometricPrecision" transform="matrix(1,0,0,1,-164,-102)" stroke="yellow">
      <rect x="306.0159" y="580" clip-path="url(#clipPath2)" width="99.9682" rx="4" ry="4" height="44" stroke="none"/>
    </g>
    <g font-size="16px" stroke-linecap="butt" transform="matrix(1,0,0,1,-164,-102)" text-rendering="geometricPrecision" font-family="sans-serif" shape-rendering="geometricPrecision" stroke-miterlimit="1.45">
      <text x="315.9727" xml:space="preserve" y="608.2852" clip-path="url(#clipPath2)" stroke="none">fabio:Letter</text>
      <rect x="306.0159" y="580" clip-path="url(#clipPath2)" fill="none" width="99.9682" rx="4" ry="4" height="44"/>
    </g>
    <g fill="yellow" text-rendering="geometricPrecision" shape-rendering="geometricPrecision" transform="matrix(1,0,0,1,-164,-102)" stroke="yellow">
      <rect x="420.0159" y="647.6667" clip-path="url(#clipPath2)" width="203.9682" rx="4" ry="4" height="44" stroke="none"/>
    </g>
    <g font-size="16px" stroke-linecap="butt" transform="matrix(1,0,0,1,-164,-102)" text-rendering="geometricPrecision" font-family="sans-serif" shape-rendering="geometricPrecision" stroke-miterlimit="1.45">
      <text x="427.7305" xml:space="preserve" y="675.9518" clip-path="url(#clipPath2)" stroke="none">hico:InterpretationCriterion</text>
      <rect x="420.0159" y="647.6667" clip-path="url(#clipPath2)" fill="none" width="203.9682" rx="4" ry="4" height="44"/>
    </g>
    <g stroke-linecap="butt" transform="matrix(1,0,0,1,-164,-102)" fill="navy" text-rendering="geometricPrecision" shape-rendering="geometricPrecision" stroke="navy" stroke-miterlimit="1.45">
      <path fill="none" d="M395.0554 140.0476 L612.2266 143.207" clip-path="url(#clipPath2)"/>
      <path d="M387.0562 139.9312 C387.0883 137.7223 388.9051 135.9577 391.114 135.9898 C393.3229 136.0219 395.0875 137.8387 395.0554 140.0476 C395.0232 142.2565 393.2065 144.0211 390.9976 143.989 C388.7887 143.9568 387.0241 142.1401 387.0562 139.9312 Z" clip-path="url(#clipPath2)" stroke="none"/>
      <path d="M623.2255 143.367 L611.314 137.1931 L611.1395 149.1918 Z" clip-path="url(#clipPath2)" stroke="none"/>
      <rect x="460.6782" y="129.8774" clip-path="url(#clipPath2)" fill="white" width="92.9297" height="23.6016" stroke="none"/>
      <text x="462.6782" font-size="16px" y="147.9634" clip-path="url(#clipPath2)" font-family="sans-serif" stroke="none" xml:space="preserve">pro:withRole</text>
      <path fill="none" d="M394.6514 153.6194 L550 227.75 L605.7769 227.75" clip-path="url(#clipPath2)"/>
      <path d="M387.4313 150.1741 C388.3827 148.1803 390.7702 147.3353 392.764 148.2867 C394.7578 149.2381 395.6028 151.6257 394.6514 153.6194 C393.7 155.6132 391.3124 156.4582 389.3187 155.5068 C387.3249 154.5554 386.4799 152.1679 387.4313 150.1741 Z" clip-path="url(#clipPath2)" stroke="none"/>
      <path d="M616.7769 227.75 L604.7769 221.75 L604.7769 233.75 Z" clip-path="url(#clipPath2)" stroke="none"/>
      <rect x="427.7268" y="180.1975" clip-path="url(#clipPath2)" fill="white" width="94.7031" height="23.6016" stroke="none"/>
      <text x="429.7268" font-size="16px" y="198.2834" clip-path="url(#clipPath2)" font-family="sans-serif" stroke="none" xml:space="preserve">pro:isHeldBy</text>
      <path fill="none" d="M325.4771 164.2057 L381.1112 238.3333 L381.1112 340.0049" clip-path="url(#clipPath2)"/>
      <path d="M320.675 157.8073 C322.4418 156.4813 324.9492 156.8386 326.2752 158.6055 C327.6013 160.3723 327.244 162.8797 325.4771 164.2057 C323.7102 165.5318 321.2029 165.1745 319.8768 163.4076 C318.5508 161.6407 318.9081 159.1334 320.675 157.8073 Z" clip-path="url(#clipPath2)" stroke="none"/>
      <path d="M381.1112 351.0049 L387.1112 339.0049 L375.1112 339.0049 Z" clip-path="url(#clipPath2)" stroke="none"/>
      <rect x="342.2167" y="278.3034" clip-path="url(#clipPath2)" fill="white" width="77.7891" height="23.6016" stroke="none"/>
      <text x="344.2167" font-size="16px" y="296.3893" clip-path="url(#clipPath2)" font-family="sans-serif" stroke="none" xml:space="preserve">tvc:atTime</text>
      <path fill="none" stroke-dasharray="0,4" d="M295.1214 165.0195 L295.1214 450.0289" stroke-dashoffset="2" clip-path="url(#clipPath2)" stroke-linecap="round"/>
      <path stroke-dasharray="0,4" d="M295.1214 157.0195 C297.3305 157.0195 299.1214 158.8104 299.1214 161.0195 C299.1214 163.2286 297.3305 165.0195 295.1214 165.0195 C292.9122 165.0195 291.1214 163.2286 291.1214 161.0195 C291.1214 158.8104 292.9122 157.0195 295.1214 157.0195 Z" stroke-dashoffset="2" clip-path="url(#clipPath2)" stroke-linecap="round" stroke="none"/>
      <path stroke-dasharray="0,4" d="M295.1214 461.0289 L301.1214 449.0289 L289.1214 449.0289 Z" stroke-dashoffset="2" clip-path="url(#clipPath2)" stroke-linecap="round" stroke="none"/>
    </g>
    <g stroke-linecap="round" transform="matrix(1,0,0,1,-164,-102)" stroke-dashoffset="2" fill="white" text-rendering="geometricPrecision" shape-rendering="geometricPrecision" stroke-dasharray="0,4" stroke="white" stroke-miterlimit="1.45">
      <rect x="245.9886" width="98.2656" height="23.6016" y="299.1992" clip-path="url(#clipPath2)" stroke="none"/>
    </g>
    <g stroke-linecap="butt" font-size="16px" transform="matrix(1,0,0,1,-164,-102)" fill="navy" text-rendering="geometricPrecision" font-family="sans-serif" shape-rendering="geometricPrecision" stroke="navy" stroke-miterlimit="1.45">
      <text x="247.9886" xml:space="preserve" y="317.2852" clip-path="url(#clipPath2)" stroke="none">pro:relatesTo</text>
    </g>
    <g stroke-linecap="round" transform="matrix(1,0,0,1,-164,-102)" stroke-dashoffset="2" fill="navy" text-rendering="geometricPrecision" shape-rendering="geometricPrecision" stroke-dasharray="0,4" stroke="navy" stroke-miterlimit="1.45">
      <path fill="none" d="M251.0527 139 L229 139 L229 568.986" clip-path="url(#clipPath2)"/>
      <path d="M259.0527 139 C259.0527 141.2091 257.2618 143 255.0527 143 C252.8435 143 251.0527 141.2091 251.0527 139 C251.0527 136.7909 252.8435 135 255.0527 135 C257.2618 135 259.0527 136.7909 259.0527 139 Z" clip-path="url(#clipPath2)" stroke="none"/>
      <path d="M229 579.986 L235 567.986 L223 567.986 Z" clip-path="url(#clipPath2)" stroke="none"/>
      <rect x="194.9766" y="343.1367" clip-path="url(#clipPath2)" fill="white" width="68.0469" height="23.6016" stroke="none"/>
    </g>
    <g stroke-linecap="butt" font-size="16px" transform="matrix(1,0,0,1,-164,-102)" fill="navy" text-rendering="geometricPrecision" font-family="sans-serif" shape-rendering="geometricPrecision" stroke="navy" stroke-miterlimit="1.45">
      <text x="196.9766" xml:space="preserve" y="361.2227" clip-path="url(#clipPath2)" stroke="none">bio:place</text>
    </g>
    <g stroke-linecap="round" transform="matrix(1,0,0,1,-164,-102)" stroke-dashoffset="2" fill="navy" text-rendering="geometricPrecision" shape-rendering="geometricPrecision" stroke-dasharray="0,4" stroke="navy" stroke-miterlimit="1.45">
      <path fill="none" d="M355.0461 163.3996 L612 359.3333 L612 419.4271" clip-path="url(#clipPath2)"/>
      <path d="M348.6845 158.5488 C350.024 156.7921 352.534 156.4539 354.2907 157.7934 C356.0474 159.1329 356.3856 161.6429 355.0461 163.3996 C353.7066 165.1563 351.1966 165.4945 349.4399 164.155 C347.6832 162.8154 347.345 160.3055 348.6845 158.5488 Z" clip-path="url(#clipPath2)" stroke="none"/>
      <path d="M612 430.4271 L618 418.4271 L606 418.4271 Z" clip-path="url(#clipPath2)" stroke="none"/>
      <rect x="406.7807" y="252.9284" clip-path="url(#clipPath2)" fill="white" width="162.3047" height="23.6016" stroke="none"/>
    </g>
    <g stroke-linecap="butt" font-size="16px" transform="matrix(1,0,0,1,-164,-102)" fill="navy" text-rendering="geometricPrecision" font-family="sans-serif" shape-rendering="geometricPrecision" stroke="navy" stroke-miterlimit="1.45">
      <text x="408.7807" xml:space="preserve" y="271.0143" clip-path="url(#clipPath2)" stroke="none">prov:wasGeneratedBy</text>
    </g>
    <g stroke-linecap="round" transform="matrix(1,0,0,1,-164,-102)" stroke-dashoffset="2" fill="navy" text-rendering="geometricPrecision" shape-rendering="geometricPrecision" stroke-dasharray="0,4" stroke="navy" stroke-miterlimit="1.45">
      <path fill="none" d="M699.4875 452.4583 L739 452.4583 L739 227.75 L727.7358 227.75" clip-path="url(#clipPath2)"/>
      <path d="M691.4875 452.4583 C691.4875 450.2492 693.2784 448.4583 695.4875 448.4583 C697.6967 448.4583 699.4875 450.2492 699.4875 452.4583 C699.4875 454.6675 697.6967 456.4583 695.4875 456.4583 C693.2784 456.4583 691.4875 454.6675 691.4875 452.4583 Z" clip-path="url(#clipPath2)" stroke="none"/>
      <path d="M716.7358 227.75 L728.7358 233.75 L728.7358 221.75 Z" clip-path="url(#clipPath2)" stroke="none"/>
      <rect x="649.8555" y="328.3034" clip-path="url(#clipPath2)" fill="white" width="178.2891" height="23.6016" stroke="none"/>
    </g>
    <g stroke-linecap="butt" font-size="16px" transform="matrix(1,0,0,1,-164,-102)" fill="navy" text-rendering="geometricPrecision" font-family="sans-serif" shape-rendering="geometricPrecision" stroke="navy" stroke-miterlimit="1.45">
      <text x="651.8555" xml:space="preserve" y="346.3893" clip-path="url(#clipPath2)" stroke="none">prov:wasAssociatedWith</text>
      <path fill="none" d="M612 478.439 L612 528.0259" clip-path="url(#clipPath2)"/>
      <path d="M612 470.439 C614.2092 470.439 616 472.2299 616 474.439 C616 476.6482 614.2092 478.439 612 478.439 C609.7908 478.439 608 476.6482 608 474.439 C608 472.2299 609.7908 470.439 612 470.439 Z" stroke="none" clip-path="url(#clipPath2)"/>
      <path d="M612 539.0259 L618 527.0259 L606 527.0259 Z" stroke="none" clip-path="url(#clipPath2)"/>
    </g>
    <g stroke-linecap="butt" transform="matrix(1,0,0,1,-164,-102)" fill="white" text-rendering="geometricPrecision" shape-rendering="geometricPrecision" stroke="white" stroke-miterlimit="1.45">
      <rect x="515.2773" width="193.4453" height="23.6016" y="494.9596" clip-path="url(#clipPath2)" stroke="none"/>
    </g>
    <g stroke-linecap="butt" font-size="16px" transform="matrix(1,0,0,1,-164,-102)" fill="navy" text-rendering="geometricPrecision" font-family="sans-serif" shape-rendering="geometricPrecision" stroke="navy" stroke-miterlimit="1.45">
      <text x="517.2773" xml:space="preserve" y="513.0456" clip-path="url(#clipPath2)" stroke="none">hico:hasInterpretationType</text>
    </g>
    <g stroke-linecap="round" transform="matrix(1,0,0,1,-164,-102)" stroke-dashoffset="2" fill="navy" text-rendering="geometricPrecision" shape-rendering="geometricPrecision" stroke-dasharray="0,4" stroke="navy" stroke-miterlimit="1.45">
      <path fill="none" d="M524.5125 452.4583 L356 452.4583 L356 569.0137" clip-path="url(#clipPath2)"/>
      <path d="M532.5125 452.4583 C532.5125 454.6675 530.7216 456.4583 528.5125 456.4583 C526.3033 456.4583 524.5125 454.6675 524.5125 452.4583 C524.5125 450.2492 526.3033 448.4583 528.5125 448.4583 C530.7216 448.4583 532.5125 450.2492 532.5125 452.4583 Z" clip-path="url(#clipPath2)" stroke="none"/>
      <path d="M356 580.0137 L362 568.0137 L350 568.0137 Z" clip-path="url(#clipPath2)" stroke="none"/>
      <rect x="360.5626" y="430.8568" clip-path="url(#clipPath2)" fill="white" width="154.2656" height="43.2031" stroke="none"/>
    </g>
    <g stroke-linecap="butt" font-size="16px" transform="matrix(1,0,0,1,-164,-102)" fill="navy" text-rendering="geometricPrecision" font-family="sans-serif" shape-rendering="geometricPrecision" stroke="navy" stroke-miterlimit="1.45">
      <text x="371.8907" xml:space="preserve" y="448.9427" clip-path="url(#clipPath2)" stroke="none">cito:citesAsSource</text>
      <text x="362.5626" xml:space="preserve" y="468.5443" clip-path="url(#clipPath2)" stroke="none">hico:isExtractedFrom</text>
      <path fill="none" d="M699.431 466.6319 L767.5 477.6667 L767.5 477.6667 L767.5 609.6667 L522 604.6667 L522 636.6721" clip-path="url(#clipPath2)"/>
      <path d="M691.5341 465.3517 C691.8876 463.1711 693.942 461.6898 696.1226 462.0434 C698.3033 462.3969 699.7845 464.4512 699.431 466.6319 C699.0775 468.8126 697.0231 470.2938 694.8425 469.9403 C692.6618 469.5868 691.1806 467.5324 691.5341 465.3517 Z" stroke="none" clip-path="url(#clipPath2)"/>
      <path d="M522 647.6721 L528 635.6721 L516 635.6721 Z" stroke="none" clip-path="url(#clipPath2)"/>
    </g>
    <g stroke-linecap="butt" transform="matrix(1,0,0,1,-164,-102)" fill="white" text-rendering="geometricPrecision" shape-rendering="geometricPrecision" stroke="white" stroke-miterlimit="1.45">
      <rect x="535.582" width="218.3359" height="23.6016" y="595.3659" clip-path="url(#clipPath2)" stroke="none"/>
    </g>
    <g stroke-linecap="butt" font-size="16px" transform="matrix(1,0,0,1,-164,-102)" fill="navy" text-rendering="geometricPrecision" font-family="sans-serif" shape-rendering="geometricPrecision" stroke="navy" stroke-miterlimit="1.45">
      <text x="537.582" xml:space="preserve" y="613.4518" clip-path="url(#clipPath2)" stroke="none">hico:hasInterpretationCriterion</text>
    </g>
  </g>
</svg>
