<?xml version="1.0" encoding="UTF-8"?><svg xmlns="http://www.w3.org/2000/svg" xmlns:xlink="http://www.w3.org/1999/xlink" fill-opacity="1" color-rendering="auto" color-interpolation="auto" text-rendering="auto" stroke="black" stroke-linecap="square" width="492" stroke-miterlimit="10" shape-rendering="auto" stroke-opacity="1" fill="black" stroke-dasharray="none" font-weight="normal" stroke-width="1" height="525" font-family="'Dialog'" font-style="normal" stroke-linejoin="miter" font-size="12px" stroke-dashoffset="0" image-rendering="auto">
  <!--Generated by ySVG 2.5-->
  <defs id="genericDefs"/>
  <g>
    <defs id="defs1">
      <clipPath clipPathUnits="userSpaceOnUse" id="clipPath1">
        <path d="M0 0 L492 0 L492 525 L0 525 L0 0 Z"/>
      </clipPath>
      <clipPath clipPathUnits="userSpaceOnUse" id="clipPath2">
        <path d="M219 81 L711 81 L711 606 L219 606 L219 81 Z"/>
      </clipPath>
    </defs>
    <g fill="white" text-rendering="geometricPrecision" shape-rendering="geometricPrecision" transform="translate(-219,-81)" stroke="white">
      <rect x="219" width="492" height="525" y="81" clip-path="url(#clipPath2)" stroke="none"/>
    </g>
    <g fill="rgb(255,255,153)" text-rendering="geometricPrecision" shape-rendering="geometricPrecision" transform="matrix(1,0,0,1,-219,-81)" stroke="rgb(255,255,153)">
      <rect x="234.0159" y="97" clip-path="url(#clipPath2)" width="127.9682" rx="4" ry="4" height="44" stroke="none"/>
    </g>
    <g font-size="16px" stroke-linecap="butt" transform="matrix(1,0,0,1,-219,-81)" text-rendering="geometricPrecision" font-family="sans-serif" shape-rendering="geometricPrecision" stroke-miterlimit="1.45">
      <text x="239.7461" xml:space="preserve" y="125.2852" clip-path="url(#clipPath2)" stroke="none">doco:TextChunk</text>
      <rect x="234.0159" y="97" clip-path="url(#clipPath2)" fill="none" width="127.9682" stroke-dasharray="6,2" rx="4" ry="4" height="44"/>
    </g>
    <g fill="yellow" text-rendering="geometricPrecision" shape-rendering="geometricPrecision" transform="matrix(1,0,0,1,-219,-81)" stroke="yellow">
      <rect x="393.0159" y="232.5" clip-path="url(#clipPath2)" width="166.9682" rx="4" ry="4" height="79" stroke="none"/>
    </g>
    <g font-size="16px" stroke-linecap="butt" transform="matrix(1,0,0,1,-219,-81)" text-rendering="geometricPrecision" font-family="sans-serif" shape-rendering="geometricPrecision" stroke-miterlimit="1.45">
      <text x="418.2461" xml:space="preserve" y="278.2852" clip-path="url(#clipPath2)" stroke="none">doco:TextChunk</text>
      <rect x="393.0159" y="232.5" clip-path="url(#clipPath2)" fill="none" width="166.9682" rx="4" ry="4" height="79"/>
    </g>
    <g fill="yellow" text-rendering="geometricPrecision" shape-rendering="geometricPrecision" transform="matrix(1,0,0,1,-219,-81)" stroke="yellow">
      <rect x="336.7063" y="546.5" clip-path="url(#clipPath2)" width="145.9682" rx="4" ry="4" height="44" stroke="none"/>
    </g>
    <g font-size="16px" stroke-linecap="butt" transform="matrix(1,0,0,1,-219,-81)" text-rendering="geometricPrecision" font-family="sans-serif" shape-rendering="geometricPrecision" stroke-miterlimit="1.45">
      <text x="344.7724" xml:space="preserve" y="574.7852" clip-path="url(#clipPath2)" stroke="none">fabio:SubjectTerm</text>
      <rect x="336.7063" y="546.5" clip-path="url(#clipPath2)" fill="none" width="145.9682" rx="4" ry="4" height="44"/>
    </g>
    <g fill="yellow" text-rendering="geometricPrecision" shape-rendering="geometricPrecision" transform="matrix(1,0,0,1,-219,-81)" stroke="yellow">
      <rect x="591.0159" y="145" clip-path="url(#clipPath2)" width="98.9682" rx="4" ry="4" height="44" stroke="none"/>
    </g>
    <g font-size="16px" stroke-linecap="butt" transform="matrix(1,0,0,1,-219,-81)" text-rendering="geometricPrecision" font-family="sans-serif" shape-rendering="geometricPrecision" stroke-miterlimit="1.45">
      <text x="610.7188" xml:space="preserve" y="173.2852" clip-path="url(#clipPath2)" stroke="none">frbr:Item</text>
      <rect x="591.0159" y="145" clip-path="url(#clipPath2)" fill="none" width="98.9682" rx="4" ry="4" height="44"/>
    </g>
    <g fill="yellow" text-rendering="geometricPrecision" shape-rendering="geometricPrecision" transform="matrix(1,0,0,1,-219,-81)" stroke="yellow">
      <rect x="427.0159" y="97" clip-path="url(#clipPath2)" width="98.9682" rx="4" ry="4" height="44" stroke="none"/>
    </g>
    <g font-size="16px" stroke-linecap="butt" transform="matrix(1,0,0,1,-219,-81)" text-rendering="geometricPrecision" font-family="sans-serif" shape-rendering="geometricPrecision" stroke-miterlimit="1.45">
      <text x="442.2617" xml:space="preserve" y="125.2852" clip-path="url(#clipPath2)" stroke="none">owl:Thing</text>
      <rect x="427.0159" y="97" clip-path="url(#clipPath2)" fill="none" width="98.9682" rx="4" ry="4" height="44"/>
    </g>
    <g fill="rgb(204,255,204)" text-rendering="geometricPrecision" shape-rendering="geometricPrecision" transform="matrix(1,0,0,1,-219,-81)" stroke="rgb(204,255,204)">
      <path d="M258.4127 356 L347.4841 356 L337.5873 399 L248.5159 399 Z" fill-rule="evenodd" clip-path="url(#clipPath2)" stroke="none"/>
    </g>
    <g font-size="16px" stroke-linecap="butt" transform="matrix(1,0,0,1,-219,-81)" text-rendering="geometricPrecision" font-family="sans-serif" shape-rendering="geometricPrecision" stroke-miterlimit="1.45">
      <text x="260.6523" xml:space="preserve" y="383.7852" clip-path="url(#clipPath2)" stroke="none">rdfs:Literal</text>
      <path fill="none" d="M258.4127 356 L347.4841 356 L337.5873 399 L248.5159 399 Z" fill-rule="evenodd" clip-path="url(#clipPath2)"/>
    </g>
    <g fill="yellow" text-rendering="geometricPrecision" shape-rendering="geometricPrecision" transform="matrix(1,0,0,1,-219,-81)" stroke="yellow">
      <rect x="535.6745" y="546.5" clip-path="url(#clipPath2)" width="132.9682" rx="4" ry="4" height="44" stroke="none"/>
    </g>
    <g font-size="16px" stroke-linecap="butt" transform="matrix(1,0,0,1,-219,-81)" text-rendering="geometricPrecision" font-family="sans-serif" shape-rendering="geometricPrecision" stroke-miterlimit="1.45">
      <text x="542.1196" xml:space="preserve" y="574.7852" clip-path="url(#clipPath2)" stroke="none">fabio:AnalogItem</text>
      <rect x="535.6745" y="546.5" clip-path="url(#clipPath2)" fill="none" width="132.9682" rx="4" ry="4" height="44"/>
    </g>
    <g stroke-linecap="round" transform="matrix(1,0,0,1,-219,-81)" stroke-dashoffset="2" fill="navy" text-rendering="geometricPrecision" shape-rendering="geometricPrecision" stroke-dasharray="0,4" stroke="navy" stroke-miterlimit="1.45">
      <path fill="none" d="M298 145.0081 L298 179.5 L406.6599 179.5 L406.6599 221.4868" clip-path="url(#clipPath2)"/>
      <path d="M298 137.0081 C300.2091 137.0081 302 138.7989 302 141.0081 C302 143.2172 300.2091 145.0081 298 145.0081 C295.7909 145.0081 294 143.2172 294 141.0081 C294 138.7989 295.7909 137.0081 298 137.0081 Z" clip-path="url(#clipPath2)" stroke="none"/>
      <path d="M406.6599 232.4868 L412.6599 220.4868 L400.6599 220.4868 Z" clip-path="url(#clipPath2)" stroke="none"/>
      <rect x="309.412" y="167.6992" clip-path="url(#clipPath2)" fill="white" width="85.8359" height="23.6016" stroke="none"/>
    </g>
    <g stroke-linecap="butt" font-size="16px" transform="matrix(1,0,0,1,-219,-81)" fill="navy" text-rendering="geometricPrecision" font-family="sans-serif" shape-rendering="geometricPrecision" stroke="navy" stroke-miterlimit="1.45">
      <text x="311.412" xml:space="preserve" y="185.7852" clip-path="url(#clipPath2)" stroke="none">po:contains</text>
    </g>
    <g stroke-linecap="round" transform="matrix(1,0,0,1,-219,-81)" stroke-dashoffset="2" fill="navy" text-rendering="geometricPrecision" shape-rendering="geometricPrecision" stroke-dasharray="0,4" stroke="navy" stroke-miterlimit="1.45">
      <path fill="none" d="M409.6904 315.5022 L409.6904 535.5084" clip-path="url(#clipPath2)"/>
      <path d="M409.6904 307.5022 C411.8995 307.5022 413.6904 309.2931 413.6904 311.5022 C413.6904 313.7113 411.8995 315.5022 409.6904 315.5022 C407.4813 315.5022 405.6904 313.7113 405.6904 311.5022 C405.6904 309.2931 407.4813 307.5022 409.6904 307.5022 Z" clip-path="url(#clipPath2)" stroke="none"/>
      <path d="M409.6904 546.5084 L415.6904 534.5084 L403.6904 534.5084 Z" clip-path="url(#clipPath2)" stroke="none"/>
      <rect x="329.874" y="417.1992" clip-path="url(#clipPath2)" fill="white" width="159.6328" height="23.6016" stroke="none"/>
    </g>
    <g stroke-linecap="butt" font-size="16px" transform="matrix(1,0,0,1,-219,-81)" fill="navy" text-rendering="geometricPrecision" font-family="sans-serif" shape-rendering="geometricPrecision" stroke="navy" stroke-miterlimit="1.45">
      <text x="331.874" xml:space="preserve" y="435.2852" clip-path="url(#clipPath2)" stroke="none">fabio:hasSubjectTerm</text>
    </g>
    <g stroke-linecap="round" transform="matrix(1,0,0,1,-219,-81)" stroke-dashoffset="2" fill="navy" text-rendering="geometricPrecision" shape-rendering="geometricPrecision" stroke-dasharray="0,4" stroke="navy" stroke-miterlimit="1.45">
      <path fill="none" d="M563.9875 272 L638.5159 272 L639.8761 200.0183" clip-path="url(#clipPath2)"/>
      <path d="M555.9875 272 C555.9875 269.7909 557.7784 268 559.9875 268 C562.1967 268 563.9875 269.7909 563.9875 272 C563.9875 274.2091 562.1967 276 559.9875 276 C557.7784 276 555.9875 274.2091 555.9875 272 Z" clip-path="url(#clipPath2)" stroke="none"/>
      <path d="M640.0839 189.0203 L633.8583 200.9048 L645.8561 201.1315 Z" clip-path="url(#clipPath2)" stroke="none"/>
      <rect x="582.5303" y="223.2617" clip-path="url(#clipPath2)" fill="white" width="113.3672" height="23.6016" stroke="none"/>
    </g>
    <g stroke-linecap="butt" font-size="16px" transform="matrix(1,0,0,1,-219,-81)" fill="navy" text-rendering="geometricPrecision" font-family="sans-serif" shape-rendering="geometricPrecision" stroke="navy" stroke-miterlimit="1.45">
      <text x="584.5303" xml:space="preserve" y="241.3477" clip-path="url(#clipPath2)" stroke="none">dcterms:source</text>
    </g>
    <g stroke-linecap="round" transform="matrix(1,0,0,1,-219,-81)" stroke-dashoffset="2" fill="navy" text-rendering="geometricPrecision" shape-rendering="geometricPrecision" stroke-dasharray="0,4" stroke="navy" stroke-miterlimit="1.45">
      <path fill="none" d="M476.5 228.5173 L476.5 151.9774" clip-path="url(#clipPath2)"/>
      <path d="M476.5 236.5173 C474.2909 236.5173 472.5 234.7265 472.5 232.5173 C472.5 230.3082 474.2909 228.5173 476.5 228.5173 C478.7091 228.5173 480.5 230.3082 480.5 232.5173 C480.5 234.7265 478.7091 236.5173 476.5 236.5173 Z" clip-path="url(#clipPath2)" stroke="none"/>
      <path d="M476.5 140.9774 L470.5 152.9774 L482.5 152.9774 Z" clip-path="url(#clipPath2)" stroke="none"/>
      <rect x="428.707" y="174.9492" clip-path="url(#clipPath2)" fill="white" width="95.5859" height="23.6016" stroke="none"/>
    </g>
    <g stroke-linecap="butt" font-size="16px" transform="matrix(1,0,0,1,-219,-81)" fill="navy" text-rendering="geometricPrecision" font-family="sans-serif" shape-rendering="geometricPrecision" stroke="navy" stroke-miterlimit="1.45">
      <text x="430.707" xml:space="preserve" y="193.0352" clip-path="url(#clipPath2)" stroke="none">dcterms:type</text>
    </g>
    <g stroke-linecap="round" transform="matrix(1,0,0,1,-219,-81)" stroke-dashoffset="2" fill="green" text-rendering="geometricPrecision" shape-rendering="geometricPrecision" stroke-dasharray="0,4" stroke="green" stroke-miterlimit="1.45">
      <path fill="none" d="M388.994 253.857 L298 253.857 L298 340.9772" clip-path="url(#clipPath2)"/>
    </g>
    <g stroke-linecap="round" transform="matrix(1,0,0,1,-219,-81)" fill-opacity="0" stroke-dashoffset="2" fill="rgb(0,0,0)" text-rendering="geometricPrecision" shape-rendering="geometricPrecision" stroke-dasharray="0,4" stroke="rgb(0,0,0)" stroke-opacity="0" stroke-miterlimit="1.45">
      <path d="M396.994 253.857 C396.994 256.0662 395.2031 257.857 392.994 257.857 C390.7849 257.857 388.994 256.0662 388.994 253.857 C388.994 251.6479 390.7849 249.857 392.994 249.857 C395.2031 249.857 396.994 251.6479 396.994 253.857 Z" stroke="none" clip-path="url(#clipPath2)"/>
    </g>
    <g stroke-linecap="butt" transform="matrix(1,0,0,1,-219,-81)" fill="green" text-rendering="geometricPrecision" shape-rendering="geometricPrecision" stroke="green" stroke-miterlimit="1.45">
      <path fill="none" d="M396.994 253.857 C396.994 256.0662 395.2031 257.857 392.994 257.857 C390.7849 257.857 388.994 256.0662 388.994 253.857 C388.994 251.6479 390.7849 249.857 392.994 249.857 C395.2031 249.857 396.994 251.6479 396.994 253.857 Z" clip-path="url(#clipPath2)"/>
    </g>
    <g stroke-linecap="round" transform="matrix(1,0,0,1,-219,-81)" stroke-dashoffset="2" fill="white" text-rendering="geometricPrecision" shape-rendering="geometricPrecision" stroke-dasharray="0,4" stroke="white" stroke-miterlimit="1.45">
      <path d="M298 355.9772 L304 339.9772 L292 339.9772 Z" stroke="none" clip-path="url(#clipPath2)"/>
    </g>
    <g stroke-linecap="butt" transform="matrix(1,0,0,1,-219,-81)" fill="green" text-rendering="geometricPrecision" shape-rendering="geometricPrecision" stroke="green" stroke-miterlimit="1.45">
      <path fill="none" d="M298 355.9772 L304 339.9772 L292 339.9772 Z" clip-path="url(#clipPath2)"/>
    </g>
    <g stroke-linecap="round" transform="matrix(1,0,0,1,-219,-81)" stroke-dashoffset="2" fill="white" text-rendering="geometricPrecision" shape-rendering="geometricPrecision" stroke-dasharray="0,4" stroke="white" stroke-miterlimit="1.45">
      <rect x="239.9609" width="116.0781" height="23.6016" y="288.5652" clip-path="url(#clipPath2)" stroke="none"/>
    </g>
    <g stroke-linecap="butt" font-size="16px" transform="matrix(1,0,0,1,-219,-81)" fill="green" text-rendering="geometricPrecision" font-family="sans-serif" shape-rendering="geometricPrecision" stroke="green" stroke-miterlimit="1.45">
      <text x="241.9609" xml:space="preserve" y="306.6512" clip-path="url(#clipPath2)" stroke="none">c4o:hasContent</text>
    </g>
    <g stroke-linecap="round" transform="matrix(1,0,0,1,-219,-81)" stroke-dashoffset="2" fill="navy" text-rendering="geometricPrecision" shape-rendering="geometricPrecision" stroke-dasharray="0,4" stroke="navy" stroke-miterlimit="1.45">
      <path fill="none" d="M476.5 315.5203 L476.5 366 L602.1586 366 L602.1586 535.4999" clip-path="url(#clipPath2)"/>
      <path d="M476.5 307.5203 C478.7091 307.5203 480.5 309.3111 480.5 311.5203 C480.5 313.7294 478.7091 315.5203 476.5 315.5203 C474.2909 315.5203 472.5 313.7294 472.5 311.5203 C472.5 309.3111 474.2909 307.5203 476.5 307.5203 Z" clip-path="url(#clipPath2)" stroke="none"/>
      <path d="M602.1586 546.4999 L608.1586 534.4999 L596.1586 534.4999 Z" clip-path="url(#clipPath2)" stroke="none"/>
      <rect x="543.2484" y="439.8867" clip-path="url(#clipPath2)" fill="white" width="117.8203" height="23.6016" stroke="none"/>
    </g>
    <g stroke-linecap="butt" font-size="16px" transform="matrix(1,0,0,1,-219,-81)" fill="navy" text-rendering="geometricPrecision" font-family="sans-serif" shape-rendering="geometricPrecision" stroke="navy" stroke-miterlimit="1.45">
      <text x="545.2485" xml:space="preserve" y="457.9727" clip-path="url(#clipPath2)" stroke="none">dcterms:relation</text>
    </g>
  </g>
</svg>
