<?xml version="1.0" encoding="UTF-8"?><svg xmlns="http://www.w3.org/2000/svg" xmlns:xlink="http://www.w3.org/1999/xlink" fill-opacity="1" color-rendering="auto" color-interpolation="auto" text-rendering="auto" stroke="black" stroke-linecap="square" width="734" stroke-miterlimit="10" shape-rendering="auto" stroke-opacity="1" fill="black" stroke-dasharray="none" font-weight="normal" stroke-width="1" height="686" font-family="'Dialog'" font-style="normal" stroke-linejoin="miter" font-size="12px" stroke-dashoffset="0" image-rendering="auto">
  <!--Generated by ySVG 2.5-->
  <defs id="genericDefs"/>
  <g>
    <defs id="defs1">
      <clipPath clipPathUnits="userSpaceOnUse" id="clipPath1">
        <path d="M0 0 L734 0 L734 686 L0 686 L0 0 Z"/>
      </clipPath>
      <clipPath clipPathUnits="userSpaceOnUse" id="clipPath2">
        <path d="M35 55 L769 55 L769 741 L35 741 L35 55 Z"/>
      </clipPath>
    </defs>
    <g fill="white" text-rendering="geometricPrecision" shape-rendering="geometricPrecision" transform="translate(-35,-55)" stroke="white">
      <rect x="35" width="734" height="686" y="55" clip-path="url(#clipPath2)" stroke="none"/>
    </g>
    <g fill="yellow" text-rendering="geometricPrecision" shape-rendering="geometricPrecision" transform="matrix(1,0,0,1,-35,-55)" stroke="yellow">
      <rect x="237.0318" y="70" clip-path="url(#clipPath2)" width="168.9682" rx="4" ry="4" height="44" stroke="none"/>
    </g>
    <g font-size="16px" stroke-linecap="butt" transform="matrix(1,0,0,1,-35,-55)" text-rendering="geometricPrecision" font-family="sans-serif" shape-rendering="geometricPrecision" stroke-miterlimit="1.45">
      <text x="248.1526" xml:space="preserve" y="98.2852" clip-path="url(#clipPath2)" stroke="none">fabio:WorkCollection</text>
      <rect x="237.0318" y="70" clip-path="url(#clipPath2)" fill="none" width="168.9682" rx="4" ry="4" height="44"/>
    </g>
    <g fill="yellow" text-rendering="geometricPrecision" shape-rendering="geometricPrecision" transform="matrix(1,0,0,1,-35,-55)" stroke="yellow">
      <rect x="529.6279" y="70" clip-path="url(#clipPath2)" width="107.9523" rx="4" ry="4" height="44" stroke="none"/>
    </g>
    <g font-size="16px" stroke-linecap="butt" transform="matrix(1,0,0,1,-35,-55)" text-rendering="geometricPrecision" font-family="sans-serif" shape-rendering="geometricPrecision" stroke-miterlimit="1.45">
      <text x="550.7174" xml:space="preserve" y="98.2852" clip-path="url(#clipPath2)" stroke="none">frbr:Work</text>
      <rect x="529.6279" y="70" clip-path="url(#clipPath2)" fill="none" width="107.9523" rx="4" ry="4" height="44"/>
    </g>
    <g fill="yellow" text-rendering="geometricPrecision" shape-rendering="geometricPrecision" transform="matrix(1,0,0,1,-35,-55)" stroke="yellow">
      <rect x="218.5318" y="234" clip-path="url(#clipPath2)" width="205.9682" rx="4" ry="4" height="44" stroke="none"/>
    </g>
    <g font-size="16px" stroke-linecap="butt" transform="matrix(1,0,0,1,-35,-55)" text-rendering="geometricPrecision" font-family="sans-serif" shape-rendering="geometricPrecision" stroke-miterlimit="1.45">
      <text x="227.2424" xml:space="preserve" y="262.2852" clip-path="url(#clipPath2)" stroke="none">fabio:ExpressionCollection</text>
      <rect x="218.5318" y="234" clip-path="url(#clipPath2)" fill="none" width="205.9682" rx="4" ry="4" height="44"/>
    </g>
    <g fill="yellow" text-rendering="geometricPrecision" shape-rendering="geometricPrecision" transform="matrix(1,0,0,1,-35,-55)" stroke="yellow">
      <rect x="446.6121" y="152" clip-path="url(#clipPath2)" width="190.9682" rx="4" ry="4" height="44" stroke="none"/>
    </g>
    <g font-size="16px" stroke-linecap="butt" transform="matrix(1,0,0,1,-35,-55)" text-rendering="geometricPrecision" font-family="sans-serif" shape-rendering="geometricPrecision" stroke-miterlimit="1.45">
      <text x="452.2837" xml:space="preserve" y="180.2852" clip-path="url(#clipPath2)" stroke="none">dcterms:RightsStatement</text>
      <rect x="446.6121" y="152" clip-path="url(#clipPath2)" fill="none" width="190.9682" rx="4" ry="4" height="44"/>
    </g>
    <g fill="yellow" text-rendering="geometricPrecision" shape-rendering="geometricPrecision" transform="matrix(1,0,0,1,-35,-55)" stroke="yellow">
      <rect x="154.1271" y="378" clip-path="url(#clipPath2)" width="184.9682" rx="4" ry="4" height="44" stroke="none"/>
    </g>
    <g font-size="16px" stroke-linecap="butt" transform="matrix(1,0,0,1,-35,-55)" text-rendering="geometricPrecision" font-family="sans-serif" shape-rendering="geometricPrecision" stroke-miterlimit="1.45">
      <text x="163.0097" xml:space="preserve" y="406.2852" clip-path="url(#clipPath2)" stroke="none">fabio:WebManifestation</text>
      <rect x="154.1271" y="378" clip-path="url(#clipPath2)" fill="none" width="184.9682" rx="4" ry="4" height="44"/>
    </g>
    <g fill="yellow" text-rendering="geometricPrecision" shape-rendering="geometricPrecision" transform="matrix(1,0,0,1,-35,-55)" stroke="yellow">
      <rect x="507.6121" y="378" clip-path="url(#clipPath2)" width="129.9682" rx="4" ry="4" height="44" stroke="none"/>
    </g>
    <g font-size="16px" stroke-linecap="butt" transform="matrix(1,0,0,1,-35,-55)" text-rendering="geometricPrecision" font-family="sans-serif" shape-rendering="geometricPrecision" stroke-miterlimit="1.45">
      <text x="532.5688" xml:space="preserve" y="406.2852" clip-path="url(#clipPath2)" stroke="none">fabio:Letter</text>
      <rect x="507.6121" y="378" clip-path="url(#clipPath2)" fill="none" width="129.9682" rx="4" ry="4" height="44"/>
    </g>
    <g fill="yellow" text-rendering="geometricPrecision" shape-rendering="geometricPrecision" transform="matrix(1,0,0,1,-35,-55)" stroke="yellow">
      <rect x="507.6121" y="534.5" clip-path="url(#clipPath2)" width="129.9682" rx="4" ry="4" height="44" stroke="none"/>
    </g>
    <g font-size="16px" stroke-linecap="butt" transform="matrix(1,0,0,1,-35,-55)" text-rendering="geometricPrecision" font-family="sans-serif" shape-rendering="geometricPrecision" stroke-miterlimit="1.45">
      <text x="513.4556" xml:space="preserve" y="562.7852" clip-path="url(#clipPath2)" stroke="none">fabio:PrintObject</text>
      <rect x="507.6121" y="534.5" clip-path="url(#clipPath2)" fill="none" width="129.9682" rx="4" ry="4" height="44"/>
    </g>
    <g fill="yellow" text-rendering="geometricPrecision" shape-rendering="geometricPrecision" transform="matrix(1,0,0,1,-35,-55)" stroke="yellow">
      <rect x="192.6351" y="534.5" clip-path="url(#clipPath2)" width="107.9523" rx="4" ry="4" height="44" stroke="none"/>
    </g>
    <g font-size="16px" stroke-linecap="butt" transform="matrix(1,0,0,1,-35,-55)" text-rendering="geometricPrecision" font-family="sans-serif" shape-rendering="geometricPrecision" stroke-miterlimit="1.45">
      <text x="216.83" xml:space="preserve" y="562.7852" clip-path="url(#clipPath2)" stroke="none">frbr:Item</text>
      <rect x="192.6351" y="534.5" clip-path="url(#clipPath2)" fill="none" width="107.9523" rx="4" ry="4" height="44"/>
    </g>
    <g fill="rgb(204,255,204)" text-rendering="geometricPrecision" shape-rendering="geometricPrecision" transform="matrix(1,0,0,1,-35,-55)" stroke="rgb(204,255,204)">
      <path d="M439.5265 647.25 L553.012 647.25 L540.4025 690.25 L426.917 690.25 Z" fill-rule="evenodd" clip-path="url(#clipPath2)" stroke="none"/>
    </g>
    <g font-size="16px" stroke-linecap="butt" transform="matrix(1,0,0,1,-35,-55)" text-rendering="geometricPrecision" font-family="sans-serif" shape-rendering="geometricPrecision" stroke-miterlimit="1.45">
      <text x="452.6169" xml:space="preserve" y="675.0352" clip-path="url(#clipPath2)" stroke="none">rdfs:Literal</text>
      <path fill="none" d="M439.5265 647.25 L553.012 647.25 L540.4025 690.25 L426.917 690.25 Z" fill-rule="evenodd" clip-path="url(#clipPath2)"/>
    </g>
    <g stroke-linecap="round" transform="matrix(1,0,0,1,-35,-55)" stroke-dashoffset="2" fill="navy" text-rendering="geometricPrecision" shape-rendering="geometricPrecision" stroke-dasharray="0,4" stroke="navy" stroke-miterlimit="1.45">
      <path fill="none" d="M410.0099 92 L518.6235 92" clip-path="url(#clipPath2)"/>
      <path d="M402.0099 92 C402.0099 89.7909 403.8008 88 406.0099 88 C408.2191 88 410.0099 89.7909 410.0099 92 C410.0099 94.2091 408.2191 96 406.0099 96 C403.8008 96 402.0099 94.2091 402.0099 92 Z" clip-path="url(#clipPath2)" stroke="none"/>
      <path d="M529.6235 92 L517.6235 86 L517.6235 98 Z" clip-path="url(#clipPath2)" stroke="none"/>
      <rect x="437.8062" y="80.1992" clip-path="url(#clipPath2)" fill="white" width="60.0156" height="23.6016" stroke="none"/>
    </g>
    <g stroke-linecap="butt" font-size="16px" transform="matrix(1,0,0,1,-35,-55)" fill="navy" text-rendering="geometricPrecision" font-family="sans-serif" shape-rendering="geometricPrecision" stroke="navy" stroke-miterlimit="1.45">
      <text x="439.8062" xml:space="preserve" y="98.2852" clip-path="url(#clipPath2)" stroke="none">frbr:part</text>
    </g>
    <g stroke-linecap="round" transform="matrix(1,0,0,1,-35,-55)" stroke-dashoffset="2" fill="navy" text-rendering="geometricPrecision" shape-rendering="geometricPrecision" stroke-dasharray="0,4" stroke="navy" stroke-miterlimit="1.45">
      <path fill="none" d="M321.5159 117.9814 L321.5159 222.983" clip-path="url(#clipPath2)"/>
      <path d="M321.5159 109.9814 C323.725 109.9814 325.5159 111.7723 325.5159 113.9814 C325.5159 116.1906 323.725 117.9814 321.5159 117.9814 C319.3068 117.9814 317.5159 116.1906 317.5159 113.9814 C317.5159 111.7723 319.3068 109.9814 321.5159 109.9814 Z" clip-path="url(#clipPath2)" stroke="none"/>
      <path d="M321.5159 233.983 L327.5159 221.983 L315.5159 221.983 Z" clip-path="url(#clipPath2)" stroke="none"/>
      <rect x="268.8284" y="162.1992" clip-path="url(#clipPath2)" fill="white" width="105.375" height="23.6016" stroke="none"/>
    </g>
    <g stroke-linecap="butt" font-size="16px" transform="matrix(1,0,0,1,-35,-55)" fill="navy" text-rendering="geometricPrecision" font-family="sans-serif" shape-rendering="geometricPrecision" stroke="navy" stroke-miterlimit="1.45">
      <text x="270.8284" xml:space="preserve" y="180.2852" clip-path="url(#clipPath2)" stroke="none">frbr:realization</text>
    </g>
    <g stroke-linecap="round" transform="matrix(1,0,0,1,-35,-55)" stroke-dashoffset="2" fill="navy" text-rendering="geometricPrecision" shape-rendering="geometricPrecision" stroke-dasharray="0,4" stroke="navy" stroke-miterlimit="1.45">
      <path fill="none" d="M428.4688 256 L589.6844 256 L589.6844 207.0293" clip-path="url(#clipPath2)"/>
      <path d="M420.4688 256 C420.4688 253.7909 422.2596 252 424.4688 252 C426.6779 252 428.4688 253.7909 428.4688 256 C428.4688 258.2091 426.6779 260 424.4688 260 C422.2596 260 420.4688 258.2091 420.4688 256 Z" clip-path="url(#clipPath2)" stroke="none"/>
      <path d="M589.6844 196.0293 L583.6844 208.0293 L595.6844 208.0293 Z" clip-path="url(#clipPath2)" stroke="none"/>
      <rect x="459.4203" y="244.1992" clip-path="url(#clipPath2)" fill="white" width="104.4688" height="23.6016" stroke="none"/>
    </g>
    <g stroke-linecap="butt" font-size="16px" transform="matrix(1,0,0,1,-35,-55)" fill="navy" text-rendering="geometricPrecision" font-family="sans-serif" shape-rendering="geometricPrecision" stroke="navy" stroke-miterlimit="1.45">
      <text x="461.4203" xml:space="preserve" y="262.2852" clip-path="url(#clipPath2)" stroke="none">dcterms:rights</text>
    </g>
    <g stroke-linecap="round" transform="matrix(1,0,0,1,-35,-55)" stroke-dashoffset="2" fill="navy" text-rendering="geometricPrecision" shape-rendering="geometricPrecision" stroke-dasharray="0,4" stroke="navy" stroke-miterlimit="1.45">
      <path fill="none" d="M192.5076 373.9613 L192.5076 353.5 L192.5076 353.5 L105.5636 353.5 L105.5636 446.8381 L191.2576 446.8381 L191.2576 433.0042" clip-path="url(#clipPath2)"/>
      <path d="M192.5076 381.9613 C190.2984 381.9613 188.5076 380.1704 188.5076 377.9613 C188.5076 375.7521 190.2984 373.9613 192.5076 373.9613 C194.7167 373.9613 196.5076 375.7521 196.5076 377.9613 C196.5076 380.1704 194.7167 381.9613 192.5076 381.9613 Z" clip-path="url(#clipPath2)" stroke="none"/>
      <path d="M191.2576 422.0042 L185.2576 434.0042 L197.2576 434.0042 Z" clip-path="url(#clipPath2)" stroke="none"/>
      <rect x="67.1104" y="388.3683" clip-path="url(#clipPath2)" fill="white" width="76.9062" height="23.6016" stroke="none"/>
    </g>
    <g stroke-linecap="butt" font-size="16px" transform="matrix(1,0,0,1,-35,-55)" fill="navy" text-rendering="geometricPrecision" font-family="sans-serif" shape-rendering="geometricPrecision" stroke="navy" stroke-miterlimit="1.45">
      <text x="69.1104" xml:space="preserve" y="406.4542" clip-path="url(#clipPath2)" stroke="none">frbr:partOf</text>
    </g>
    <g stroke-linecap="round" transform="matrix(1,0,0,1,-35,-55)" stroke-dashoffset="2" fill="navy" text-rendering="geometricPrecision" shape-rendering="geometricPrecision" stroke-dasharray="0,4" stroke="navy" stroke-miterlimit="1.45">
      <path fill="none" d="M312.7 282.0146 L312.7 297.25 L246.6112 297.25 L246.6112 367.0001" clip-path="url(#clipPath2)"/>
      <path d="M312.7 274.0146 C314.9091 274.0146 316.7 275.8055 316.7 278.0146 C316.7 280.2237 314.9091 282.0146 312.7 282.0146 C310.4909 282.0146 308.7 280.2237 308.7 278.0146 C308.7 275.8055 310.4909 274.0146 312.7 274.0146 Z" clip-path="url(#clipPath2)" stroke="none"/>
      <path d="M246.6112 378.0001 L252.6112 366.0001 L240.6112 366.0001 Z" clip-path="url(#clipPath2)" stroke="none"/>
      <rect x="186.3651" y="321.2617" clip-path="url(#clipPath2)" fill="white" width="120.4922" height="23.6016" stroke="none"/>
    </g>
    <g stroke-linecap="butt" font-size="16px" transform="matrix(1,0,0,1,-35,-55)" fill="navy" text-rendering="geometricPrecision" font-family="sans-serif" shape-rendering="geometricPrecision" stroke="navy" stroke-miterlimit="1.45">
      <text x="188.3651" xml:space="preserve" y="339.3477" clip-path="url(#clipPath2)" stroke="none">frbr:embodiment</text>
    </g>
    <g stroke-linecap="round" transform="matrix(1,0,0,1,-35,-55)" stroke-dashoffset="2" fill="navy" text-rendering="geometricPrecision" shape-rendering="geometricPrecision" stroke-dasharray="0,4" stroke="navy" stroke-miterlimit="1.45">
      <path fill="none" d="M611.513 373.9894 L611.513 352 L690.5803 352 L690.5803 446.8381 L609.8536 446.8381 L609.8536 433.0473" clip-path="url(#clipPath2)"/>
      <path d="M611.513 381.9894 C609.3038 381.9894 607.513 380.1986 607.513 377.9894 C607.513 375.7803 609.3038 373.9894 611.513 373.9894 C613.7222 373.9894 615.513 375.7803 615.513 377.9894 C615.513 380.1986 613.7222 381.9894 611.513 381.9894 Z" clip-path="url(#clipPath2)" stroke="none"/>
      <path d="M609.8536 422.0473 L603.8536 434.0473 L615.8536 434.0473 Z" clip-path="url(#clipPath2)" stroke="none"/>
      <rect x="649.01" y="387.6183" clip-path="url(#clipPath2)" fill="white" width="83.1406" height="23.6016" stroke="none"/>
    </g>
    <g stroke-linecap="butt" font-size="16px" transform="matrix(1,0,0,1,-35,-55)" fill="navy" text-rendering="geometricPrecision" font-family="sans-serif" shape-rendering="geometricPrecision" stroke="navy" stroke-miterlimit="1.45">
      <text x="651.0099" xml:space="preserve" y="405.7042" clip-path="url(#clipPath2)" stroke="none">frbr:subject</text>
    </g>
    <g stroke-linecap="round" transform="matrix(1,0,0,1,-35,-55)" stroke-dashoffset="2" fill="navy" text-rendering="geometricPrecision" shape-rendering="geometricPrecision" stroke-dasharray="0,4" stroke="navy" stroke-miterlimit="1.45">
      <path fill="none" d="M357.7 282.0356 L357.7 325 L572.5962 325 L572.5962 366.9907" clip-path="url(#clipPath2)"/>
      <path d="M357.7 274.0356 C359.9091 274.0356 361.7 275.8264 361.7 278.0356 C361.7 280.2447 359.9091 282.0356 357.7 282.0356 C355.4909 282.0356 353.7 280.2447 353.7 278.0356 C353.7 275.8264 355.4909 274.0356 357.7 274.0356 Z" clip-path="url(#clipPath2)" stroke="none"/>
      <path d="M572.5962 377.9907 L578.5962 365.9907 L566.5962 365.9907 Z" clip-path="url(#clipPath2)" stroke="none"/>
      <rect x="435.1403" y="313.1992" clip-path="url(#clipPath2)" fill="white" width="60.0156" height="23.6016" stroke="none"/>
    </g>
    <g stroke-linecap="butt" font-size="16px" transform="matrix(1,0,0,1,-35,-55)" fill="navy" text-rendering="geometricPrecision" font-family="sans-serif" shape-rendering="geometricPrecision" stroke="navy" stroke-miterlimit="1.45">
      <text x="437.1403" xml:space="preserve" y="331.2852" clip-path="url(#clipPath2)" stroke="none">frbr:part</text>
    </g>
    <g stroke-linecap="round" transform="matrix(1,0,0,1,-35,-55)" stroke-dashoffset="2" fill="navy" text-rendering="geometricPrecision" shape-rendering="geometricPrecision" stroke-dasharray="0,4" stroke="navy" stroke-miterlimit="1.45">
      <path fill="none" d="M583.6041 117.9814 L583.6041 133 L583.6041 133 L668.95 133 L668.95 325 L588.95 325 L588.95 367.0197" clip-path="url(#clipPath2)"/>
      <path d="M583.6041 109.9814 C585.8133 109.9814 587.6041 111.7723 587.6041 113.9814 C587.6041 116.1906 585.8133 117.9814 583.6041 117.9814 C581.395 117.9814 579.6041 116.1906 579.6041 113.9814 C579.6041 111.7723 581.395 109.9814 583.6041 109.9814 Z" clip-path="url(#clipPath2)" stroke="none"/>
      <path d="M588.95 378.0197 L594.95 366.0197 L582.95 366.0197 Z" clip-path="url(#clipPath2)" stroke="none"/>
      <rect x="616.2625" y="207.3984" clip-path="url(#clipPath2)" fill="white" width="105.375" height="43.2031" stroke="none"/>
    </g>
    <g stroke-linecap="butt" font-size="16px" transform="matrix(1,0,0,1,-35,-55)" fill="navy" text-rendering="geometricPrecision" font-family="sans-serif" shape-rendering="geometricPrecision" stroke="navy" stroke-miterlimit="1.45">
      <text x="618.2625" xml:space="preserve" y="225.4844" clip-path="url(#clipPath2)" stroke="none">frbr:realization</text>
      <text x="629.3797" xml:space="preserve" y="245.0859" clip-path="url(#clipPath2)" stroke="none">frbr:subject</text>
    </g>
    <g stroke-linecap="round" transform="matrix(1,0,0,1,-35,-55)" stroke-dashoffset="2" fill="navy" text-rendering="geometricPrecision" shape-rendering="geometricPrecision" stroke-dasharray="0,4" stroke="navy" stroke-miterlimit="1.45">
      <path fill="none" d="M503.6141 400 L350.1028 400" clip-path="url(#clipPath2)"/>
      <path d="M511.6141 400 C511.6141 402.2091 509.8232 404 507.6141 404 C505.4049 404 503.6141 402.2091 503.6141 400 C503.6141 397.7909 505.4049 396 507.6141 396 C509.8232 396 511.6141 397.7909 511.6141 400 Z" clip-path="url(#clipPath2)" stroke="none"/>
      <path d="M339.1028 400 L351.1028 406 L351.1028 394 Z" clip-path="url(#clipPath2)" stroke="none"/>
      <rect x="363.1076" y="388.1992" clip-path="url(#clipPath2)" fill="white" width="120.4922" height="23.6016" stroke="none"/>
    </g>
    <g stroke-linecap="butt" font-size="16px" transform="matrix(1,0,0,1,-35,-55)" fill="navy" text-rendering="geometricPrecision" font-family="sans-serif" shape-rendering="geometricPrecision" stroke="navy" stroke-miterlimit="1.45">
      <text x="365.1076" xml:space="preserve" y="406.2852" clip-path="url(#clipPath2)" stroke="none">frbr:embodiment</text>
    </g>
    <g stroke-linecap="round" transform="matrix(1,0,0,1,-35,-55)" stroke-dashoffset="2" fill="navy" text-rendering="geometricPrecision" shape-rendering="geometricPrecision" stroke-dasharray="0,4" stroke="navy" stroke-miterlimit="1.45">
      <path fill="none" d="M572.5962 425.9696 L572.5962 523.5272" clip-path="url(#clipPath2)"/>
      <path d="M572.5962 417.9696 C574.8054 417.9696 576.5962 419.7605 576.5962 421.9696 C576.5962 424.1787 574.8054 425.9696 572.5962 425.9696 C570.387 425.9696 568.5962 424.1787 568.5962 421.9696 C568.5962 419.7605 570.387 417.9696 572.5962 417.9696 Z" clip-path="url(#clipPath2)" stroke="none"/>
      <path d="M572.5962 534.5272 L578.5962 522.5272 L566.5962 522.5272 Z" clip-path="url(#clipPath2)" stroke="none"/>
      <rect x="498.5688" y="466.4492" clip-path="url(#clipPath2)" fill="white" width="148.0547" height="23.6016" stroke="none"/>
    </g>
    <g stroke-linecap="butt" font-size="16px" transform="matrix(1,0,0,1,-35,-55)" fill="navy" text-rendering="geometricPrecision" font-family="sans-serif" shape-rendering="geometricPrecision" stroke="navy" stroke-miterlimit="1.45">
      <text x="500.5688" xml:space="preserve" y="484.5352" clip-path="url(#clipPath2)" stroke="none">cito:citesAsAuthority</text>
    </g>
    <g stroke-linecap="round" transform="matrix(1,0,0,1,-35,-55)" stroke-dashoffset="2" fill="navy" text-rendering="geometricPrecision" shape-rendering="geometricPrecision" stroke-dasharray="0,4" stroke="navy" stroke-miterlimit="1.45">
      <path fill="none" d="M206.2576 530.4925 L206.2576 522.375 L206.2576 522.375 L131.8136 522.375 L131.8136 599.014 L206.5688 599.014 L206.5688 589.5137" clip-path="url(#clipPath2)"/>
      <path d="M206.2576 538.4925 C204.0484 538.4925 202.2576 536.7017 202.2576 534.4925 C202.2576 532.2833 204.0484 530.4925 206.2576 530.4925 C208.4667 530.4925 210.2576 532.2833 210.2576 534.4925 C210.2576 536.7017 208.4667 538.4925 206.2576 538.4925 Z" clip-path="url(#clipPath2)" stroke="none"/>
      <path d="M206.5688 578.5137 L200.5688 590.5137 L212.5688 590.5137 Z" clip-path="url(#clipPath2)" stroke="none"/>
      <rect x="75.13" y="548.8937" clip-path="url(#clipPath2)" fill="white" width="113.3672" height="23.6016" stroke="none"/>
    </g>
    <g stroke-linecap="butt" font-size="16px" transform="matrix(1,0,0,1,-35,-55)" fill="navy" text-rendering="geometricPrecision" font-family="sans-serif" shape-rendering="geometricPrecision" stroke="navy" stroke-miterlimit="1.45">
      <text x="77.13" xml:space="preserve" y="566.9797" clip-path="url(#clipPath2)" stroke="none">dcterms:source</text>
    </g>
    <g stroke-linecap="round" transform="matrix(1,0,0,1,-35,-55)" stroke-dashoffset="2" fill="navy" text-rendering="geometricPrecision" shape-rendering="geometricPrecision" stroke-dasharray="0,4" stroke="navy" stroke-miterlimit="1.45">
      <path fill="none" d="M277.5076 530.4841 L277.5076 522.375 L332.5076 522.375 L332.5076 599.014 L272.5076 599.014 L272.5076 589.517" clip-path="url(#clipPath2)"/>
      <path d="M277.5076 538.4841 C275.2984 538.4841 273.5076 536.6932 273.5076 534.4841 C273.5076 532.2749 275.2984 530.4841 277.5076 530.4841 C279.7167 530.4841 281.5076 532.2749 281.5076 534.4841 C281.5076 536.6932 279.7167 538.4841 277.5076 538.4841 Z" clip-path="url(#clipPath2)" stroke="none"/>
      <path d="M272.5076 578.517 L266.5076 590.517 L278.5076 590.517 Z" clip-path="url(#clipPath2)" stroke="none"/>
      <rect x="302.4997" y="548.8937" clip-path="url(#clipPath2)" fill="white" width="60.0156" height="23.6016" stroke="none"/>
    </g>
    <g stroke-linecap="butt" font-size="16px" transform="matrix(1,0,0,1,-35,-55)" fill="navy" text-rendering="geometricPrecision" font-family="sans-serif" shape-rendering="geometricPrecision" stroke="navy" stroke-miterlimit="1.45">
      <text x="304.4998" xml:space="preserve" y="566.9797" clip-path="url(#clipPath2)" stroke="none">frbr:part</text>
    </g>
    <g stroke-linecap="round" transform="matrix(1,0,0,1,-35,-55)" stroke-dashoffset="2" fill="navy" text-rendering="geometricPrecision" shape-rendering="geometricPrecision" stroke-dasharray="0,4" stroke="navy" stroke-miterlimit="1.45">
      <path fill="none" d="M246.6112 425.9902 L246.6112 523.4908" clip-path="url(#clipPath2)"/>
      <path d="M246.6112 417.9902 C248.8204 417.9902 250.6112 419.781 250.6112 421.9902 C250.6112 424.1993 248.8204 425.9902 246.6112 425.9902 C244.4021 425.9902 242.6112 424.1993 242.6112 421.9902 C242.6112 419.781 244.4021 417.9902 246.6112 417.9902 Z" clip-path="url(#clipPath2)" stroke="none"/>
      <path d="M246.6112 534.4908 L252.6112 522.4908 L240.6112 522.4908 Z" clip-path="url(#clipPath2)" stroke="none"/>
      <rect x="197.4862" y="466.4492" clip-path="url(#clipPath2)" fill="white" width="98.25" height="23.6016" stroke="none"/>
    </g>
    <g stroke-linecap="butt" font-size="16px" transform="matrix(1,0,0,1,-35,-55)" fill="navy" text-rendering="geometricPrecision" font-family="sans-serif" shape-rendering="geometricPrecision" stroke="navy" stroke-miterlimit="1.45">
      <text x="199.4862" xml:space="preserve" y="484.5352" clip-path="url(#clipPath2)" stroke="none">frbr:exemplar</text>
    </g>
    <g stroke-linecap="round" transform="matrix(1,0,0,1,-35,-55)" stroke-dashoffset="2" fill="green" text-rendering="geometricPrecision" shape-rendering="geometricPrecision" stroke-dasharray="0,4" stroke="green" stroke-miterlimit="1.45">
      <path fill="none" d="M641.5442 92 L753.95 92 L753.95 725.7667 L336.45 725.7667 L336.45 681.6" clip-path="url(#clipPath2)"/>
    </g>
    <g stroke-linecap="round" transform="matrix(1,0,0,1,-35,-55)" fill-opacity="0" stroke-dashoffset="2" fill="rgb(0,0,0)" text-rendering="geometricPrecision" shape-rendering="geometricPrecision" stroke-dasharray="0,4" stroke="rgb(0,0,0)" stroke-opacity="0" stroke-miterlimit="1.45">
      <path d="M633.5442 92 C633.5442 89.7909 635.335 88 637.5442 88 C639.7534 88 641.5442 89.7909 641.5442 92 C641.5442 94.2091 639.7534 96 637.5442 96 C635.335 96 633.5442 94.2091 633.5442 92 Z" stroke="none" clip-path="url(#clipPath2)"/>
    </g>
    <g stroke-linecap="butt" transform="matrix(1,0,0,1,-35,-55)" fill="green" text-rendering="geometricPrecision" shape-rendering="geometricPrecision" stroke="green" stroke-miterlimit="1.45">
      <path fill="none" d="M633.5442 92 C633.5442 89.7909 635.335 88 637.5442 88 C639.7534 88 641.5442 89.7909 641.5442 92 C641.5442 94.2091 639.7534 96 637.5442 96 C635.335 96 633.5442 94.2091 633.5442 92 Z" clip-path="url(#clipPath2)"/>
      <path fill="none" stroke-dasharray="0,4" d="M503.5964 556.5 L489.9645 556.5 L489.9645 632.2372" stroke-dashoffset="2" clip-path="url(#clipPath2)" stroke-linecap="round"/>
    </g>
    <g stroke-linecap="round" transform="matrix(1,0,0,1,-35,-55)" fill-opacity="0" stroke-dashoffset="2" fill="rgb(0,0,0)" text-rendering="geometricPrecision" shape-rendering="geometricPrecision" stroke-dasharray="0,4" stroke="rgb(0,0,0)" stroke-opacity="0" stroke-miterlimit="1.45">
      <path d="M511.5964 556.5 C511.5964 558.7092 509.8055 560.5 507.5964 560.5 C505.3872 560.5 503.5964 558.7092 503.5964 556.5 C503.5964 554.2908 505.3872 552.5 507.5964 552.5 C509.8055 552.5 511.5964 554.2908 511.5964 556.5 Z" stroke="none" clip-path="url(#clipPath2)"/>
    </g>
    <g stroke-linecap="butt" transform="matrix(1,0,0,1,-35,-55)" fill="green" text-rendering="geometricPrecision" shape-rendering="geometricPrecision" stroke="green" stroke-miterlimit="1.45">
      <path fill="none" d="M511.5964 556.5 C511.5964 558.7092 509.8055 560.5 507.5964 560.5 C505.3872 560.5 503.5964 558.7092 503.5964 556.5 C503.5964 554.2908 505.3872 552.5 507.5964 552.5 C509.8055 552.5 511.5964 554.2908 511.5964 556.5 Z" clip-path="url(#clipPath2)"/>
    </g>
    <g stroke-linecap="round" transform="matrix(1,0,0,1,-35,-55)" stroke-dashoffset="2" fill="white" text-rendering="geometricPrecision" shape-rendering="geometricPrecision" stroke-dasharray="0,4" stroke="white" stroke-miterlimit="1.45">
      <path d="M489.9645 647.2372 L495.9645 631.2372 L483.9645 631.2372 Z" stroke="none" clip-path="url(#clipPath2)"/>
    </g>
    <g stroke-linecap="butt" transform="matrix(1,0,0,1,-35,-55)" fill="green" text-rendering="geometricPrecision" shape-rendering="geometricPrecision" stroke="green" stroke-miterlimit="1.45">
      <path fill="none" d="M489.9645 647.2372 L495.9645 631.2372 L483.9645 631.2372 Z" clip-path="url(#clipPath2)"/>
    </g>
    <g stroke-linecap="round" transform="matrix(1,0,0,1,-35,-55)" stroke-dashoffset="2" fill="white" text-rendering="geometricPrecision" shape-rendering="geometricPrecision" stroke-dasharray="0,4" stroke="white" stroke-miterlimit="1.45">
      <rect x="424.8161" width="130.2969" height="23.6016" y="585.5117" clip-path="url(#clipPath2)" stroke="none"/>
    </g>
    <g stroke-linecap="butt" font-size="16px" transform="matrix(1,0,0,1,-35,-55)" fill="green" text-rendering="geometricPrecision" font-family="sans-serif" shape-rendering="geometricPrecision" stroke="green" stroke-miterlimit="1.45">
      <text x="426.8161" xml:space="preserve" y="603.5977" clip-path="url(#clipPath2)" stroke="none">prism:pageRange</text>
    </g>
    <g stroke-linecap="round" transform="matrix(1,0,0,1,-35,-55)" stroke-dashoffset="2" fill="green" text-rendering="geometricPrecision" shape-rendering="geometricPrecision" stroke-dasharray="0,4" stroke="green" stroke-miterlimit="1.45">
      <path fill="none" d="M246.6112 582.506 L246.6112 668.75 L418.196 668.75" clip-path="url(#clipPath2)"/>
    </g>
    <g stroke-linecap="round" transform="matrix(1,0,0,1,-35,-55)" fill-opacity="0" stroke-dashoffset="2" fill="rgb(0,0,0)" text-rendering="geometricPrecision" shape-rendering="geometricPrecision" stroke-dasharray="0,4" stroke="rgb(0,0,0)" stroke-opacity="0" stroke-miterlimit="1.45">
      <path d="M246.6112 574.506 C248.8204 574.506 250.6112 576.2969 250.6112 578.506 C250.6112 580.7152 248.8204 582.506 246.6112 582.506 C244.4021 582.506 242.6112 580.7152 242.6112 578.506 C242.6112 576.2969 244.4021 574.506 246.6112 574.506 Z" stroke="none" clip-path="url(#clipPath2)"/>
    </g>
    <g stroke-linecap="butt" transform="matrix(1,0,0,1,-35,-55)" fill="green" text-rendering="geometricPrecision" shape-rendering="geometricPrecision" stroke="green" stroke-miterlimit="1.45">
      <path fill="none" d="M246.6112 574.506 C248.8204 574.506 250.6112 576.2969 250.6112 578.506 C250.6112 580.7152 248.8204 582.506 246.6112 582.506 C244.4021 582.506 242.6112 580.7152 242.6112 578.506 C242.6112 576.2969 244.4021 574.506 246.6112 574.506 Z" clip-path="url(#clipPath2)"/>
    </g>
    <g stroke-linecap="round" transform="matrix(1,0,0,1,-35,-55)" stroke-dashoffset="2" fill="white" text-rendering="geometricPrecision" shape-rendering="geometricPrecision" stroke-dasharray="0,4" stroke="white" stroke-miterlimit="1.45">
      <path d="M433.196 668.75 L417.196 662.75 L417.196 674.75 Z" stroke="none" clip-path="url(#clipPath2)"/>
    </g>
    <g stroke-linecap="butt" transform="matrix(1,0,0,1,-35,-55)" fill="green" text-rendering="geometricPrecision" shape-rendering="geometricPrecision" stroke="green" stroke-miterlimit="1.45">
      <path fill="none" d="M433.196 668.75 L417.196 662.75 L417.196 674.75 Z" clip-path="url(#clipPath2)"/>
    </g>
    <g stroke-linecap="round" transform="matrix(1,0,0,1,-35,-55)" stroke-dashoffset="2" fill="white" text-rendering="geometricPrecision" shape-rendering="geometricPrecision" stroke-dasharray="0,4" stroke="white" stroke-miterlimit="1.45">
      <rect x="269.2915" width="125.8203" height="23.6016" y="656.9492" clip-path="url(#clipPath2)" stroke="none"/>
    </g>
    <g stroke-linecap="butt" font-size="16px" transform="matrix(1,0,0,1,-35,-55)" fill="green" text-rendering="geometricPrecision" font-family="sans-serif" shape-rendering="geometricPrecision" stroke="green" stroke-miterlimit="1.45">
      <text x="271.2915" xml:space="preserve" y="675.0352" clip-path="url(#clipPath2)" stroke="none">dcterms:identifier</text>
    </g>
    <g stroke-linecap="round" transform="matrix(1,0,0,1,-35,-55)" stroke-dashoffset="2" fill="green" text-rendering="geometricPrecision" shape-rendering="geometricPrecision" stroke-dasharray="0,4" stroke="green" stroke-miterlimit="1.45">
      <path fill="none" d="M214.5618 256 L50.5875 256 L50.5875 256 L50.5875 725.7667 L311.346 725.7667 L311.346 679.5413" clip-path="url(#clipPath2)"/>
    </g>
    <g stroke-linecap="round" transform="matrix(1,0,0,1,-35,-55)" fill-opacity="0" stroke-dashoffset="2" fill="rgb(0,0,0)" text-rendering="geometricPrecision" shape-rendering="geometricPrecision" stroke-dasharray="0,4" stroke="rgb(0,0,0)" stroke-opacity="0" stroke-miterlimit="1.45">
      <path d="M222.5618 256 C222.5618 258.2091 220.7709 260 218.5618 260 C216.3526 260 214.5618 258.2091 214.5618 256 C214.5618 253.7909 216.3526 252 218.5618 252 C220.7709 252 222.5618 253.7909 222.5618 256 Z" stroke="none" clip-path="url(#clipPath2)"/>
    </g>
    <g stroke-linecap="butt" transform="matrix(1,0,0,1,-35,-55)" fill="green" text-rendering="geometricPrecision" shape-rendering="geometricPrecision" stroke="green" stroke-miterlimit="1.45">
      <path fill="none" d="M222.5618 256 C222.5618 258.2091 220.7709 260 218.5618 260 C216.3526 260 214.5618 258.2091 214.5618 256 C214.5618 253.7909 216.3526 252 218.5618 252 C220.7709 252 222.5618 253.7909 222.5618 256 Z" clip-path="url(#clipPath2)"/>
    </g>
  </g>
</svg>
