<?xml version="1.0" encoding="UTF-8"?><svg xmlns="http://www.w3.org/2000/svg" xmlns:xlink="http://www.w3.org/1999/xlink" fill-opacity="1" color-rendering="auto" color-interpolation="auto" text-rendering="auto" stroke="black" stroke-linecap="square" width="590" stroke-miterlimit="10" shape-rendering="auto" stroke-opacity="1" fill="black" stroke-dasharray="none" font-weight="normal" stroke-width="1" height="579" font-family="'Dialog'" font-style="normal" stroke-linejoin="miter" font-size="12px" stroke-dashoffset="0" image-rendering="auto">
  <!--Generated by ySVG 2.5-->
  <defs id="genericDefs"/>
  <g>
    <defs id="defs1">
      <clipPath clipPathUnits="userSpaceOnUse" id="clipPath1">
        <path d="M0 0 L590 0 L590 579 L0 579 L0 0 Z"/>
      </clipPath>
      <clipPath clipPathUnits="userSpaceOnUse" id="clipPath2">
        <path d="M-74 120 L516 120 L516 699 L-74 699 L-74 120 Z"/>
      </clipPath>
    </defs>
    <g fill="white" text-rendering="geometricPrecision" shape-rendering="geometricPrecision" transform="translate(74,-120)" stroke="white">
      <rect x="-74" width="590" height="579" y="120" clip-path="url(#clipPath2)" stroke="none"/>
    </g>
    <g fill="yellow" text-rendering="geometricPrecision" shape-rendering="geometricPrecision" transform="matrix(1,0,0,1,74,-120)" stroke="yellow">
      <rect x="93.0794" y="243" clip-path="url(#clipPath2)" width="107.9523" rx="4" ry="4" height="44" stroke="none"/>
    </g>
    <g font-size="16px" stroke-linecap="butt" transform="matrix(1,0,0,1,74,-120)" text-rendering="geometricPrecision" font-family="sans-serif" shape-rendering="geometricPrecision" stroke-miterlimit="1.45">
      <text x="114.1689" xml:space="preserve" y="271.2852" clip-path="url(#clipPath2)" stroke="none">frbr:Work</text>
      <rect x="93.0794" y="243" clip-path="url(#clipPath2)" fill="none" width="107.9523" rx="4" ry="4" height="44"/>
    </g>
    <g fill="yellow" text-rendering="geometricPrecision" shape-rendering="geometricPrecision" transform="matrix(1,0,0,1,74,-120)" stroke="yellow">
      <rect x="348.5238" y="168" clip-path="url(#clipPath2)" width="119.9523" rx="4" ry="4" height="44" stroke="none"/>
    </g>
    <g font-size="16px" stroke-linecap="butt" transform="matrix(1,0,0,1,74,-120)" text-rendering="geometricPrecision" font-family="sans-serif" shape-rendering="geometricPrecision" stroke-miterlimit="1.45">
      <text x="356.9219" xml:space="preserve" y="196.2852" clip-path="url(#clipPath2)" stroke="none">dcterms:Agent</text>
      <rect x="348.5238" y="168" clip-path="url(#clipPath2)" fill="none" width="119.9523" rx="4" ry="4" height="44"/>
    </g>
    <g fill="yellow" text-rendering="geometricPrecision" shape-rendering="geometricPrecision" transform="matrix(1,0,0,1,74,-120)" stroke="yellow">
      <rect x="75.5794" y="352" clip-path="url(#clipPath2)" width="142.9523" rx="4" ry="4" height="44" stroke="none"/>
    </g>
    <g font-size="16px" stroke-linecap="butt" transform="matrix(1,0,0,1,74,-120)" text-rendering="geometricPrecision" font-family="sans-serif" shape-rendering="geometricPrecision" stroke-miterlimit="1.45">
      <text x="80.79" xml:space="preserve" y="380.2852" clip-path="url(#clipPath2)" stroke="none">fabio:BookChapter</text>
      <rect x="75.5794" y="352" clip-path="url(#clipPath2)" fill="none" width="142.9523" rx="4" ry="4" height="44"/>
    </g>
    <g fill="yellow" text-rendering="geometricPrecision" shape-rendering="geometricPrecision" transform="matrix(1,0,0,1,74,-120)" stroke="yellow">
      <rect x="165.5002" y="481.5" clip-path="url(#clipPath2)" width="131.9523" rx="4" ry="4" height="44" stroke="none"/>
    </g>
    <g font-size="16px" stroke-linecap="butt" transform="matrix(1,0,0,1,74,-120)" text-rendering="geometricPrecision" font-family="sans-serif" shape-rendering="geometricPrecision" stroke-miterlimit="1.45">
      <text x="169.6717" xml:space="preserve" y="509.7852" clip-path="url(#clipPath2)" stroke="none">frbr:Manifestation</text>
      <rect x="165.5002" y="481.5" clip-path="url(#clipPath2)" fill="none" width="131.9523" rx="4" ry="4" height="44"/>
    </g>
    <g fill="rgb(255,255,153)" text-rendering="geometricPrecision" shape-rendering="geometricPrecision" transform="matrix(1,0,0,1,74,-120)" stroke="rgb(255,255,153)">
      <rect x="165.5002" y="639.25" clip-path="url(#clipPath2)" width="131.9523" rx="4" ry="4" height="44" stroke="none"/>
    </g>
    <g font-size="16px" stroke-linecap="butt" transform="matrix(1,0,0,1,74,-120)" text-rendering="geometricPrecision" font-family="sans-serif" shape-rendering="geometricPrecision" stroke-miterlimit="1.45">
      <text x="176.7888" xml:space="preserve" y="667.5352" clip-path="url(#clipPath2)" stroke="none">pro:RoleInTime</text>
      <rect x="165.5002" y="639.25" clip-path="url(#clipPath2)" fill="none" width="131.9523" stroke-dasharray="6,2" rx="4" ry="4" height="44"/>
    </g>
    <g fill="rgb(204,255,204)" text-rendering="geometricPrecision" shape-rendering="geometricPrecision" transform="matrix(1,0,0,1,74,-120)" stroke="rgb(204,255,204)">
      <path d="M358.062 243.5 L471.5475 243.5 L458.938 286.5 L345.4525 286.5 Z" fill-rule="evenodd" clip-path="url(#clipPath2)" stroke="none"/>
    </g>
    <g font-size="16px" stroke-linecap="butt" transform="matrix(1,0,0,1,74,-120)" text-rendering="geometricPrecision" font-family="sans-serif" shape-rendering="geometricPrecision" stroke-miterlimit="1.45">
      <text x="371.1523" xml:space="preserve" y="271.2852" clip-path="url(#clipPath2)" stroke="none">rdfs:Literal</text>
      <path fill="none" d="M358.062 243.5 L471.5475 243.5 L458.938 286.5 L345.4525 286.5 Z" fill-rule="evenodd" clip-path="url(#clipPath2)"/>
    </g>
    <g fill="rgb(204,255,204)" text-rendering="geometricPrecision" shape-rendering="geometricPrecision" transform="matrix(1,0,0,1,74,-120)" stroke="rgb(204,255,204)">
      <path d="M363.062 482 L476.5475 482 L463.938 525 L350.4525 525 Z" fill-rule="evenodd" clip-path="url(#clipPath2)" stroke="none"/>
    </g>
    <g font-size="16px" stroke-linecap="butt" transform="matrix(1,0,0,1,74,-120)" text-rendering="geometricPrecision" font-family="sans-serif" shape-rendering="geometricPrecision" stroke-miterlimit="1.45">
      <text x="377.4805" xml:space="preserve" y="509.7852" clip-path="url(#clipPath2)" stroke="none">xsd:gYear</text>
      <path fill="none" d="M363.062 482 L476.5475 482 L463.938 525 L350.4525 525 Z" fill-rule="evenodd" clip-path="url(#clipPath2)"/>
    </g>
    <g fill="yellow" text-rendering="geometricPrecision" shape-rendering="geometricPrecision" transform="matrix(1,0,0,1,74,-120)" stroke="yellow">
      <rect x="-32.9992" y="481.5" clip-path="url(#clipPath2)" width="107.9523" rx="4" ry="4" height="44" stroke="none"/>
    </g>
    <g font-size="16px" stroke-linecap="butt" transform="matrix(1,0,0,1,74,-120)" text-rendering="geometricPrecision" font-family="sans-serif" shape-rendering="geometricPrecision" stroke-miterlimit="1.45">
      <text x="-16.8277" xml:space="preserve" y="509.7852" clip-path="url(#clipPath2)" stroke="none">fabio:Book</text>
      <rect x="-32.9992" y="481.5" clip-path="url(#clipPath2)" fill="none" width="107.9523" rx="4" ry="4" height="44"/>
    </g>
    <g fill="yellow" text-rendering="geometricPrecision" shape-rendering="geometricPrecision" transform="matrix(1,0,0,1,74,-120)" stroke="yellow">
      <rect x="-32.9992" y="639.25" clip-path="url(#clipPath2)" width="107.9523" rx="4" ry="4" height="44" stroke="none"/>
    </g>
    <g font-size="16px" stroke-linecap="butt" transform="matrix(1,0,0,1,74,-120)" text-rendering="geometricPrecision" font-family="sans-serif" shape-rendering="geometricPrecision" stroke-miterlimit="1.45">
      <text x="-11.9332" xml:space="preserve" y="667.5352" clip-path="url(#clipPath2)" stroke="none">bio:Place</text>
      <rect x="-32.9992" y="639.25" clip-path="url(#clipPath2)" fill="none" width="107.9523" rx="4" ry="4" height="44"/>
    </g>
    <g stroke-linecap="round" transform="matrix(1,0,0,1,74,-120)" stroke-dashoffset="2" fill="navy" text-rendering="geometricPrecision" shape-rendering="geometricPrecision" stroke-dasharray="0,4" stroke="navy" stroke-miterlimit="1.45">
      <path fill="none" d="M147.0556 238.9907 L147.0556 190 L337.5325 190" clip-path="url(#clipPath2)"/>
      <path d="M147.0556 246.9907 C144.8465 246.9907 143.0556 245.1999 143.0556 242.9907 C143.0556 240.7816 144.8465 238.9907 147.0556 238.9907 C149.2648 238.9907 151.0556 240.7816 151.0556 242.9907 C151.0556 245.1999 149.2648 246.9907 147.0556 246.9907 Z" clip-path="url(#clipPath2)" stroke="none"/>
      <path d="M348.5325 190 L336.5325 184 L336.5325 196 Z" clip-path="url(#clipPath2)" stroke="none"/>
      <rect x="185.6569" y="178.1992" clip-path="url(#clipPath2)" fill="white" width="115.1406" height="23.6016" stroke="none"/>
    </g>
    <g stroke-linecap="butt" font-size="16px" transform="matrix(1,0,0,1,74,-120)" fill="navy" text-rendering="geometricPrecision" font-family="sans-serif" shape-rendering="geometricPrecision" stroke="navy" stroke-miterlimit="1.45">
      <text x="187.6569" xml:space="preserve" y="196.2852" clip-path="url(#clipPath2)" stroke="none">dcterms:creator</text>
    </g>
    <g stroke-linecap="round" transform="matrix(1,0,0,1,74,-120)" stroke-dashoffset="2" fill="navy" text-rendering="geometricPrecision" shape-rendering="geometricPrecision" stroke-dasharray="0,4" stroke="navy" stroke-miterlimit="1.45">
      <path fill="none" d="M147.0556 291.0076 L147.0556 341.0395" clip-path="url(#clipPath2)"/>
      <path d="M147.0556 283.0076 C149.2648 283.0076 151.0556 284.7984 151.0556 287.0076 C151.0556 289.2167 149.2648 291.0076 147.0556 291.0076 C144.8465 291.0076 143.0556 289.2167 143.0556 287.0076 C143.0556 284.7984 144.8465 283.0076 147.0556 283.0076 Z" clip-path="url(#clipPath2)" stroke="none"/>
      <path d="M147.0556 352.0395 L153.0556 340.0395 L141.0556 340.0395 Z" clip-path="url(#clipPath2)" stroke="none"/>
      <rect x="94.3681" y="307.6992" clip-path="url(#clipPath2)" fill="white" width="105.375" height="23.6016" stroke="none"/>
    </g>
    <g stroke-linecap="butt" font-size="16px" transform="matrix(1,0,0,1,74,-120)" fill="navy" text-rendering="geometricPrecision" font-family="sans-serif" shape-rendering="geometricPrecision" stroke="navy" stroke-miterlimit="1.45">
      <text x="96.3681" xml:space="preserve" y="325.7852" clip-path="url(#clipPath2)" stroke="none">frbr:realization</text>
    </g>
    <g stroke-linecap="round" transform="matrix(1,0,0,1,74,-120)" stroke-dashoffset="2" fill="navy" text-rendering="geometricPrecision" shape-rendering="geometricPrecision" stroke-dasharray="0,4" stroke="navy" stroke-miterlimit="1.45">
      <path fill="none" d="M127.9531 400.0202 L127.9531 503.5 L154.4854 503.5" clip-path="url(#clipPath2)"/>
      <path d="M127.9531 392.0202 C130.1623 392.0202 131.9531 393.811 131.9531 396.0202 C131.9531 398.2293 130.1623 400.0202 127.9531 400.0202 C125.744 400.0202 123.9531 398.2293 123.9531 396.0202 C123.9531 393.811 125.744 392.0202 127.9531 392.0202 Z" clip-path="url(#clipPath2)" stroke="none"/>
      <path d="M165.4854 503.5 L153.4854 497.5 L153.4854 509.5 Z" clip-path="url(#clipPath2)" stroke="none"/>
      <rect x="67.707" y="442.5117" clip-path="url(#clipPath2)" fill="white" width="120.4922" height="23.6016" stroke="none"/>
    </g>
    <g stroke-linecap="butt" font-size="16px" transform="matrix(1,0,0,1,74,-120)" fill="navy" text-rendering="geometricPrecision" font-family="sans-serif" shape-rendering="geometricPrecision" stroke="navy" stroke-miterlimit="1.45">
      <text x="69.707" xml:space="preserve" y="460.5977" clip-path="url(#clipPath2)" stroke="none">frbr:embodiment</text>
    </g>
    <g stroke-linecap="round" transform="matrix(1,0,0,1,74,-120)" stroke-dashoffset="2" fill="navy" text-rendering="geometricPrecision" shape-rendering="geometricPrecision" stroke-dasharray="0,4" stroke="navy" stroke-miterlimit="1.45">
      <path fill="none" d="M231.4763 529.5019 L231.4763 628.2771" clip-path="url(#clipPath2)"/>
      <path d="M231.4763 521.5019 C233.6855 521.5019 235.4763 523.2927 235.4763 525.5019 C235.4763 527.7111 233.6855 529.5019 231.4763 529.5019 C229.2672 529.5019 227.4763 527.7111 227.4763 525.5019 C227.4763 523.2927 229.2672 521.5019 231.4763 521.5019 Z" clip-path="url(#clipPath2)" stroke="none"/>
      <path d="M231.4763 639.2771 L237.4763 627.2771 L225.4763 627.2771 Z" clip-path="url(#clipPath2)" stroke="none"/>
      <rect x="132.1014" y="570.5742" clip-path="url(#clipPath2)" fill="white" width="198.75" height="23.6016" stroke="none"/>
    </g>
    <g stroke-linecap="butt" font-size="16px" transform="matrix(1,0,0,1,74,-120)" fill="navy" text-rendering="geometricPrecision" font-family="sans-serif" shape-rendering="geometricPrecision" stroke="navy" stroke-miterlimit="1.45">
      <text x="134.1013" xml:space="preserve" y="588.6602" clip-path="url(#clipPath2)" stroke="none">pro:isRelatedToRoleInTime</text>
    </g>
    <g stroke-linecap="round" transform="matrix(1,0,0,1,74,-120)" stroke-dashoffset="2" fill="navy" text-rendering="geometricPrecision" shape-rendering="geometricPrecision" stroke-dasharray="0,4" stroke="navy" stroke-miterlimit="1.45">
      <path fill="none" d="M301.4688 661.25 L413.5 661.25 L413.5 661.25 L413.5 549.9167 L260.4531 556.1667 L260.4531 536.4745" clip-path="url(#clipPath2)"/>
      <path d="M293.4688 661.25 C293.4688 659.0408 295.2597 657.25 297.4688 657.25 C299.6779 657.25 301.4688 659.0408 301.4688 661.25 C301.4688 663.4592 299.6779 665.25 297.4688 665.25 C295.2597 665.25 293.4688 663.4592 293.4688 661.25 Z" clip-path="url(#clipPath2)" stroke="none"/>
      <path d="M260.4531 525.4745 L254.4531 537.4745 L266.4531 537.4745 Z" clip-path="url(#clipPath2)" stroke="none"/>
      <rect x="287.8438" y="541.2409" clip-path="url(#clipPath2)" fill="white" width="98.2656" height="23.6016" stroke="none"/>
    </g>
    <g stroke-linecap="butt" font-size="16px" transform="matrix(1,0,0,1,74,-120)" fill="navy" text-rendering="geometricPrecision" font-family="sans-serif" shape-rendering="geometricPrecision" stroke="navy" stroke-miterlimit="1.45">
      <text x="289.8438" xml:space="preserve" y="559.3268" clip-path="url(#clipPath2)" stroke="none">pro:relatesTo</text>
    </g>
    <g stroke-linecap="round" transform="matrix(1,0,0,1,74,-120)" stroke-dashoffset="2" fill="green" text-rendering="geometricPrecision" shape-rendering="geometricPrecision" stroke-dasharray="0,4" stroke="green" stroke-miterlimit="1.45">
      <path fill="none" d="M205.0232 265 L336.7427 265" clip-path="url(#clipPath2)"/>
    </g>
    <g stroke-linecap="round" transform="matrix(1,0,0,1,74,-120)" fill-opacity="0" stroke-dashoffset="2" fill="rgb(0,0,0)" text-rendering="geometricPrecision" shape-rendering="geometricPrecision" stroke-dasharray="0,4" stroke="rgb(0,0,0)" stroke-opacity="0" stroke-miterlimit="1.45">
      <path d="M197.0232 265 C197.0232 262.7909 198.8141 261 201.0232 261 C203.2323 261 205.0232 262.7909 205.0232 265 C205.0232 267.2091 203.2323 269 201.0232 269 C198.8141 269 197.0232 267.2091 197.0232 265 Z" stroke="none" clip-path="url(#clipPath2)"/>
    </g>
    <g stroke-linecap="butt" transform="matrix(1,0,0,1,74,-120)" fill="green" text-rendering="geometricPrecision" shape-rendering="geometricPrecision" stroke="green" stroke-miterlimit="1.45">
      <path fill="none" d="M197.0232 265 C197.0232 262.7909 198.8141 261 201.0232 261 C203.2323 261 205.0232 262.7909 205.0232 265 C205.0232 267.2091 203.2323 269 201.0232 269 C198.8141 269 197.0232 267.2091 197.0232 265 Z" clip-path="url(#clipPath2)"/>
    </g>
    <g stroke-linecap="round" transform="matrix(1,0,0,1,74,-120)" stroke-dashoffset="2" fill="white" text-rendering="geometricPrecision" shape-rendering="geometricPrecision" stroke-dasharray="0,4" stroke="white" stroke-miterlimit="1.45">
      <path d="M351.7427 265 L335.7427 259 L335.7427 271 Z" stroke="none" clip-path="url(#clipPath2)"/>
    </g>
    <g stroke-linecap="butt" transform="matrix(1,0,0,1,74,-120)" fill="green" text-rendering="geometricPrecision" shape-rendering="geometricPrecision" stroke="green" stroke-miterlimit="1.45">
      <path fill="none" d="M351.7427 265 L335.7427 259 L335.7427 271 Z" clip-path="url(#clipPath2)"/>
    </g>
    <g stroke-linecap="round" transform="matrix(1,0,0,1,74,-120)" stroke-dashoffset="2" fill="white" text-rendering="geometricPrecision" shape-rendering="geometricPrecision" stroke-dasharray="0,4" stroke="white" stroke-miterlimit="1.45">
      <rect x="228.1211" width="90.2422" height="23.6016" y="253.1992" clip-path="url(#clipPath2)" stroke="none"/>
    </g>
    <g stroke-linecap="butt" font-size="16px" transform="matrix(1,0,0,1,74,-120)" fill="green" text-rendering="geometricPrecision" font-family="sans-serif" shape-rendering="geometricPrecision" stroke="green" stroke-miterlimit="1.45">
      <text x="230.121" xml:space="preserve" y="271.2852" clip-path="url(#clipPath2)" stroke="none">dcterms:title</text>
    </g>
    <g stroke-linecap="round" transform="matrix(1,0,0,1,74,-120)" stroke-dashoffset="2" fill="green" text-rendering="geometricPrecision" shape-rendering="geometricPrecision" stroke-dasharray="0,4" stroke="green" stroke-miterlimit="1.45">
      <path fill="none" d="M222.5696 365.0994 L408.5 365.0994 L408.5 301.4568" clip-path="url(#clipPath2)"/>
    </g>
    <g stroke-linecap="round" transform="matrix(1,0,0,1,74,-120)" fill-opacity="0" stroke-dashoffset="2" fill="rgb(0,0,0)" text-rendering="geometricPrecision" shape-rendering="geometricPrecision" stroke-dasharray="0,4" stroke="rgb(0,0,0)" stroke-opacity="0" stroke-miterlimit="1.45">
      <path d="M214.5696 365.0994 C214.5696 362.8902 216.3604 361.0994 218.5696 361.0994 C220.7787 361.0994 222.5696 362.8902 222.5696 365.0994 C222.5696 367.3085 220.7787 369.0994 218.5696 369.0994 C216.3604 369.0994 214.5696 367.3085 214.5696 365.0994 Z" stroke="none" clip-path="url(#clipPath2)"/>
    </g>
    <g stroke-linecap="butt" transform="matrix(1,0,0,1,74,-120)" fill="green" text-rendering="geometricPrecision" shape-rendering="geometricPrecision" stroke="green" stroke-miterlimit="1.45">
      <path fill="none" d="M214.5696 365.0994 C214.5696 362.8902 216.3604 361.0994 218.5696 361.0994 C220.7787 361.0994 222.5696 362.8902 222.5696 365.0994 C222.5696 367.3085 220.7787 369.0994 218.5696 369.0994 C216.3604 369.0994 214.5696 367.3085 214.5696 365.0994 Z" clip-path="url(#clipPath2)"/>
    </g>
    <g stroke-linecap="round" transform="matrix(1,0,0,1,74,-120)" stroke-dashoffset="2" fill="white" text-rendering="geometricPrecision" shape-rendering="geometricPrecision" stroke-dasharray="0,4" stroke="white" stroke-miterlimit="1.45">
      <path d="M408.5 286.4568 L402.5 302.4568 L414.5 302.4568 Z" stroke="none" clip-path="url(#clipPath2)"/>
    </g>
    <g stroke-linecap="butt" transform="matrix(1,0,0,1,74,-120)" fill="green" text-rendering="geometricPrecision" shape-rendering="geometricPrecision" stroke="green" stroke-miterlimit="1.45">
      <path fill="none" d="M408.5 286.4568 L402.5 302.4568 L414.5 302.4568 Z" clip-path="url(#clipPath2)"/>
    </g>
    <g stroke-linecap="round" transform="matrix(1,0,0,1,74,-120)" stroke-dashoffset="2" fill="white" text-rendering="geometricPrecision" shape-rendering="geometricPrecision" stroke-dasharray="0,4" stroke="white" stroke-miterlimit="1.45">
      <rect x="268.512" width="99.1328" height="23.6016" y="353.2986" clip-path="url(#clipPath2)" stroke="none"/>
    </g>
    <g stroke-linecap="butt" font-size="16px" transform="matrix(1,0,0,1,74,-120)" fill="green" text-rendering="geometricPrecision" font-family="sans-serif" shape-rendering="geometricPrecision" stroke="green" stroke-miterlimit="1.45">
      <text x="270.512" xml:space="preserve" y="371.3845" clip-path="url(#clipPath2)" stroke="none">prism:volume</text>
    </g>
    <g stroke-linecap="round" transform="matrix(1,0,0,1,74,-120)" stroke-dashoffset="2" fill="green" text-rendering="geometricPrecision" shape-rendering="geometricPrecision" stroke-dasharray="0,4" stroke="green" stroke-miterlimit="1.45">
      <path fill="none" d="M177.2213 400.0001 L177.2213 417.0994 L413.5 417.0994 L413.5 467.0264" clip-path="url(#clipPath2)"/>
    </g>
    <g stroke-linecap="round" transform="matrix(1,0,0,1,74,-120)" fill-opacity="0" stroke-dashoffset="2" fill="rgb(0,0,0)" text-rendering="geometricPrecision" shape-rendering="geometricPrecision" stroke-dasharray="0,4" stroke="rgb(0,0,0)" stroke-opacity="0" stroke-miterlimit="1.45">
      <path d="M177.2213 392.0001 C179.4305 392.0001 181.2213 393.791 181.2213 396.0001 C181.2213 398.2093 179.4305 400.0001 177.2213 400.0001 C175.0122 400.0001 173.2213 398.2093 173.2213 396.0001 C173.2213 393.791 175.0122 392.0001 177.2213 392.0001 Z" stroke="none" clip-path="url(#clipPath2)"/>
    </g>
    <g stroke-linecap="butt" transform="matrix(1,0,0,1,74,-120)" fill="green" text-rendering="geometricPrecision" shape-rendering="geometricPrecision" stroke="green" stroke-miterlimit="1.45">
      <path fill="none" d="M177.2213 392.0001 C179.4305 392.0001 181.2213 393.791 181.2213 396.0001 C181.2213 398.2093 179.4305 400.0001 177.2213 400.0001 C175.0122 400.0001 173.2213 398.2093 173.2213 396.0001 C173.2213 393.791 175.0122 392.0001 177.2213 392.0001 Z" clip-path="url(#clipPath2)"/>
    </g>
    <g stroke-linecap="round" transform="matrix(1,0,0,1,74,-120)" stroke-dashoffset="2" fill="white" text-rendering="geometricPrecision" shape-rendering="geometricPrecision" stroke-dasharray="0,4" stroke="white" stroke-miterlimit="1.45">
      <path d="M413.5 482.0264 L419.5 466.0264 L407.5 466.0264 Z" stroke="none" clip-path="url(#clipPath2)"/>
    </g>
    <g stroke-linecap="butt" transform="matrix(1,0,0,1,74,-120)" fill="green" text-rendering="geometricPrecision" shape-rendering="geometricPrecision" stroke="green" stroke-miterlimit="1.45">
      <path fill="none" d="M413.5 482.0264 L419.5 466.0264 L407.5 466.0264 Z" clip-path="url(#clipPath2)"/>
    </g>
    <g stroke-linecap="round" transform="matrix(1,0,0,1,74,-120)" stroke-dashoffset="2" fill="white" text-rendering="geometricPrecision" shape-rendering="geometricPrecision" stroke-dasharray="0,4" stroke="white" stroke-miterlimit="1.45">
      <rect x="204.8568" width="181.0078" height="23.6016" y="405.2986" clip-path="url(#clipPath2)" stroke="none"/>
    </g>
    <g stroke-linecap="butt" font-size="16px" transform="matrix(1,0,0,1,74,-120)" fill="green" text-rendering="geometricPrecision" font-family="sans-serif" shape-rendering="geometricPrecision" stroke="green" stroke-miterlimit="1.45">
      <text x="206.8568" xml:space="preserve" y="423.3845" clip-path="url(#clipPath2)" stroke="none">fabio:hasPublicationYear</text>
    </g>
    <g stroke-linecap="round" transform="matrix(1,0,0,1,74,-120)" stroke-dashoffset="2" fill="green" text-rendering="geometricPrecision" shape-rendering="geometricPrecision" stroke-dasharray="0,4" stroke="green" stroke-miterlimit="1.45">
      <path fill="none" d="M262.9531 477.5211 L262.9531 427.4167" clip-path="url(#clipPath2)"/>
    </g>
    <g stroke-linecap="round" transform="matrix(1,0,0,1,74,-120)" fill-opacity="0" stroke-dashoffset="2" fill="rgb(0,0,0)" text-rendering="geometricPrecision" shape-rendering="geometricPrecision" stroke-dasharray="0,4" stroke="rgb(0,0,0)" stroke-opacity="0" stroke-miterlimit="1.45">
      <path d="M262.9531 485.5211 C260.744 485.5211 258.9531 483.7302 258.9531 481.5211 C258.9531 479.312 260.744 477.5211 262.9531 477.5211 C265.1623 477.5211 266.9531 479.312 266.9531 481.5211 C266.9531 483.7302 265.1623 485.5211 262.9531 485.5211 Z" stroke="none" clip-path="url(#clipPath2)"/>
    </g>
    <g stroke-linecap="butt" transform="matrix(1,0,0,1,74,-120)" fill="green" text-rendering="geometricPrecision" shape-rendering="geometricPrecision" stroke="green" stroke-miterlimit="1.45">
      <path fill="none" d="M262.9531 485.5211 C260.744 485.5211 258.9531 483.7302 258.9531 481.5211 C258.9531 479.312 260.744 477.5211 262.9531 477.5211 C265.1623 477.5211 266.9531 479.312 266.9531 481.5211 C266.9531 483.7302 265.1623 485.5211 262.9531 485.5211 Z" clip-path="url(#clipPath2)"/>
      <path fill="none" d="M71.5515 374 L20.977 374 L20.977 470.5267" clip-path="url(#clipPath2)" stroke="navy"/>
      <path fill="navy" d="M79.5515 374 C79.5515 376.2091 77.7607 378 75.5515 378 C73.3424 378 71.5515 376.2091 71.5515 374 C71.5515 371.7909 73.3424 370 75.5515 370 C77.7607 370 79.5515 371.7909 79.5515 374 Z" clip-path="url(#clipPath2)" stroke="none"/>
      <path fill="navy" d="M20.977 481.5267 L26.977 469.5267 L14.977 469.5267 Z" clip-path="url(#clipPath2)" stroke="none"/>
      <rect x="-17.4762" y="411.3867" clip-path="url(#clipPath2)" fill="white" width="76.9062" height="23.6016" stroke="none"/>
    </g>
    <g stroke-linecap="butt" font-size="16px" transform="matrix(1,0,0,1,74,-120)" fill="navy" text-rendering="geometricPrecision" font-family="sans-serif" shape-rendering="geometricPrecision" stroke="navy" stroke-miterlimit="1.45">
      <text x="-15.4762" xml:space="preserve" y="429.4727" clip-path="url(#clipPath2)" stroke="none">frbr:partOf</text>
    </g>
    <g stroke-linecap="round" transform="matrix(1,0,0,1,74,-120)" stroke-dashoffset="2" fill="green" text-rendering="geometricPrecision" shape-rendering="geometricPrecision" stroke-dasharray="0,4" stroke="green" stroke-miterlimit="1.45">
      <path fill="none" d="M-37.0212 503.5 L-58.2969 503.5 L-58.2969 146.856 L500.4531 146.856 L500.4531 265 L480.2473 265" clip-path="url(#clipPath2)"/>
    </g>
    <g stroke-linecap="round" transform="matrix(1,0,0,1,74,-120)" fill-opacity="0" stroke-dashoffset="2" fill="rgb(0,0,0)" text-rendering="geometricPrecision" shape-rendering="geometricPrecision" stroke-dasharray="0,4" stroke="rgb(0,0,0)" stroke-opacity="0" stroke-miterlimit="1.45">
      <path d="M-29.0212 503.5 C-29.0212 505.7091 -30.812 507.5 -33.0212 507.5 C-35.2303 507.5 -37.0212 505.7091 -37.0212 503.5 C-37.0212 501.2909 -35.2303 499.5 -33.0212 499.5 C-30.812 499.5 -29.0212 501.2909 -29.0212 503.5 Z" stroke="none" clip-path="url(#clipPath2)"/>
    </g>
    <g stroke-linecap="butt" transform="matrix(1,0,0,1,74,-120)" fill="green" text-rendering="geometricPrecision" shape-rendering="geometricPrecision" stroke="green" stroke-miterlimit="1.45">
      <path fill="none" d="M-29.0212 503.5 C-29.0212 505.7091 -30.812 507.5 -33.0212 507.5 C-35.2303 507.5 -37.0212 505.7091 -37.0212 503.5 C-37.0212 501.2909 -35.2303 499.5 -33.0212 499.5 C-30.812 499.5 -29.0212 501.2909 -29.0212 503.5 Z" clip-path="url(#clipPath2)"/>
    </g>
    <g stroke-linecap="round" transform="matrix(1,0,0,1,74,-120)" stroke-dashoffset="2" fill="white" text-rendering="geometricPrecision" shape-rendering="geometricPrecision" stroke-dasharray="0,4" stroke="white" stroke-miterlimit="1.45">
      <path d="M465.2473 265 L481.2473 271 L481.2473 259 Z" stroke="none" clip-path="url(#clipPath2)"/>
    </g>
    <g stroke-linecap="butt" transform="matrix(1,0,0,1,74,-120)" fill="green" text-rendering="geometricPrecision" shape-rendering="geometricPrecision" stroke="green" stroke-miterlimit="1.45">
      <path fill="none" d="M465.2473 265 L481.2473 271 L481.2473 259 Z" clip-path="url(#clipPath2)"/>
    </g>
    <g stroke-linecap="round" transform="matrix(1,0,0,1,74,-120)" stroke-dashoffset="2" fill="white" text-rendering="geometricPrecision" shape-rendering="geometricPrecision" stroke-dasharray="0,4" stroke="white" stroke-miterlimit="1.45">
      <rect x="116.3633" width="209.4297" height="23.6016" y="135.0552" clip-path="url(#clipPath2)" stroke="none"/>
    </g>
    <g stroke-linecap="butt" font-size="16px" transform="matrix(1,0,0,1,74,-120)" fill="green" text-rendering="geometricPrecision" font-family="sans-serif" shape-rendering="geometricPrecision" stroke="green" stroke-miterlimit="1.45">
      <text x="118.3633" xml:space="preserve" y="153.1412" clip-path="url(#clipPath2)" stroke="none">dcterms:bibliographicCitation</text>
    </g>
    <g stroke-linecap="round" transform="matrix(1,0,0,1,74,-120)" stroke-dashoffset="2" fill="navy" text-rendering="geometricPrecision" shape-rendering="geometricPrecision" stroke-dasharray="0,4" stroke="navy" stroke-miterlimit="1.45">
      <path fill="none" d="M78.9548 503.5 L107.9531 503.5 L107.9531 464.9167" clip-path="url(#clipPath2)"/>
      <path d="M70.9548 503.5 C70.9548 501.2909 72.7457 499.5 74.9548 499.5 C77.164 499.5 78.9548 501.2909 78.9548 503.5 C78.9548 505.7091 77.164 507.5 74.9548 507.5 C72.7457 507.5 70.9548 505.7091 70.9548 503.5 Z" clip-path="url(#clipPath2)" stroke="none"/>
      <path fill="none" d="M164.5095 526.6177 L20.977 576.1667 L20.977 628.2729" clip-path="url(#clipPath2)"/>
      <path d="M172.0716 524.0072 C172.7925 526.0954 171.684 528.3726 169.5958 529.0935 C167.5076 529.8143 165.2304 528.7059 164.5095 526.6177 C163.7887 524.5295 164.8971 522.2523 166.9853 521.5314 C169.0735 520.8105 171.3508 521.919 172.0716 524.0072 Z" clip-path="url(#clipPath2)" stroke="none"/>
      <path d="M20.977 639.2729 L26.977 627.2729 L14.977 627.2729 Z" clip-path="url(#clipPath2)" stroke="none"/>
      <rect x="23.094" y="540.9954" clip-path="url(#clipPath2)" fill="white" width="131.1641" height="23.6016" stroke="none"/>
    </g>
    <g stroke-linecap="butt" font-size="16px" transform="matrix(1,0,0,1,74,-120)" fill="navy" text-rendering="geometricPrecision" font-family="sans-serif" shape-rendering="geometricPrecision" stroke="navy" stroke-miterlimit="1.45">
      <text x="25.094" xml:space="preserve" y="559.0814" clip-path="url(#clipPath2)" stroke="none">dcterms:coverage</text>
    </g>
  </g>
</svg>
