<?xml version="1.0" encoding="UTF-8"?><svg xmlns="http://www.w3.org/2000/svg" xmlns:xlink="http://www.w3.org/1999/xlink" fill-opacity="1" color-rendering="auto" color-interpolation="auto" text-rendering="auto" stroke="black" stroke-linecap="square" width="508" stroke-miterlimit="10" shape-rendering="auto" stroke-opacity="1" fill="black" stroke-dasharray="none" font-weight="normal" stroke-width="1" height="499" font-family="'Dialog'" font-style="normal" stroke-linejoin="miter" font-size="12px" stroke-dashoffset="0" image-rendering="auto">
  <!--Generated by ySVG 2.5-->
  <defs id="genericDefs"/>
  <g>
    <defs id="defs1">
      <clipPath clipPathUnits="userSpaceOnUse" id="clipPath1">
        <path d="M0 0 L508 0 L508 499 L0 499 L0 0 Z"/>
      </clipPath>
      <clipPath clipPathUnits="userSpaceOnUse" id="clipPath2">
        <path d="M211 62 L719 62 L719 561 L211 561 L211 62 Z"/>
      </clipPath>
    </defs>
    <g fill="white" text-rendering="geometricPrecision" shape-rendering="geometricPrecision" transform="translate(-211,-62)" stroke="white">
      <rect x="211" width="508" height="499" y="62" clip-path="url(#clipPath2)" stroke="none"/>
    </g>
    <g fill="rgb(255,255,153)" text-rendering="geometricPrecision" shape-rendering="geometricPrecision" transform="matrix(1,0,0,1,-211,-62)" stroke="rgb(255,255,153)">
      <rect x="226.6727" y="99.75" clip-path="url(#clipPath2)" width="127.7182" rx="4" ry="4" height="44" stroke="none"/>
    </g>
    <g font-size="16px" stroke-linecap="butt" transform="matrix(1,0,0,1,-211,-62)" text-rendering="geometricPrecision" font-family="sans-serif" shape-rendering="geometricPrecision" stroke-miterlimit="1.45">
      <text x="232.2779" xml:space="preserve" y="128.0352" clip-path="url(#clipPath2)" stroke="none">doco:TextChunk</text>
      <rect x="226.6727" y="99.75" clip-path="url(#clipPath2)" fill="none" width="127.7182" stroke-dasharray="6,2" rx="4" ry="4" height="44"/>
    </g>
    <g fill="yellow" text-rendering="geometricPrecision" shape-rendering="geometricPrecision" transform="matrix(1,0,0,1,-211,-62)" stroke="yellow">
      <rect x="393.0159" y="232.5" clip-path="url(#clipPath2)" width="166.9682" rx="4" ry="4" height="79" stroke="none"/>
    </g>
    <g font-size="16px" stroke-linecap="butt" transform="matrix(1,0,0,1,-211,-62)" text-rendering="geometricPrecision" font-family="sans-serif" shape-rendering="geometricPrecision" stroke-miterlimit="1.45">
      <text x="418.2461" xml:space="preserve" y="278.2852" clip-path="url(#clipPath2)" stroke="none">doco:TextChunk</text>
      <rect x="393.0159" y="232.5" clip-path="url(#clipPath2)" fill="none" width="166.9682" rx="4" ry="4" height="79"/>
    </g>
    <g fill="rgb(204,255,204)" text-rendering="geometricPrecision" shape-rendering="geometricPrecision" transform="matrix(1,0,0,1,-211,-62)" stroke="rgb(204,255,204)">
      <path d="M250.9445 473.1 L340.0159 473.1 L330.1191 516.1 L241.0477 516.1 Z" fill-rule="evenodd" clip-path="url(#clipPath2)" stroke="none"/>
    </g>
    <g font-size="16px" stroke-linecap="butt" transform="matrix(1,0,0,1,-211,-62)" text-rendering="geometricPrecision" font-family="sans-serif" shape-rendering="geometricPrecision" stroke-miterlimit="1.45">
      <text x="253.1841" xml:space="preserve" y="500.8852" clip-path="url(#clipPath2)" stroke="none">rdfs:Literal</text>
      <path fill="none" d="M250.9445 473.1 L340.0159 473.1 L330.1191 516.1 L241.0477 516.1 Z" fill-rule="evenodd" clip-path="url(#clipPath2)"/>
    </g>
    <g fill="yellow" text-rendering="geometricPrecision" shape-rendering="geometricPrecision" transform="matrix(1,0,0,1,-211,-62)" stroke="yellow">
      <rect x="435.5159" y="77.25" clip-path="url(#clipPath2)" width="81.9682" rx="4" ry="4" height="44" stroke="none"/>
    </g>
    <g font-size="16px" stroke-linecap="butt" transform="matrix(1,0,0,1,-211,-62)" text-rendering="geometricPrecision" font-family="sans-serif" shape-rendering="geometricPrecision" stroke-miterlimit="1.45">
      <text x="442.2617" xml:space="preserve" y="105.5352" clip-path="url(#clipPath2)" stroke="none">owl:Thing</text>
      <rect x="435.5159" y="77.25" clip-path="url(#clipPath2)" fill="none" width="81.9682" rx="4" ry="4" height="44"/>
    </g>
    <g fill="rgb(255,255,153)" text-rendering="geometricPrecision" shape-rendering="geometricPrecision" transform="matrix(1,0,0,1,-211,-62)" stroke="rgb(255,255,153)">
      <rect x="393.0159" y="444.2" clip-path="url(#clipPath2)" width="166.9682" rx="4" ry="4" height="100.8" stroke="none"/>
    </g>
    <g font-size="16px" stroke-linecap="butt" transform="matrix(1,0,0,1,-211,-62)" text-rendering="geometricPrecision" font-family="sans-serif" shape-rendering="geometricPrecision" stroke-miterlimit="1.45">
      <text x="402.2383" xml:space="preserve" y="461.682" clip-path="url(#clipPath2)" stroke="none">fabio:AnalogItem OR</text>
      <text x="412.043" xml:space="preserve" y="481.2836" clip-path="url(#clipPath2)" stroke="none">ti:TimeInterval OR</text>
      <text x="429.3672" xml:space="preserve" y="500.8852" clip-path="url(#clipPath2)" stroke="none">bio:Place OR</text>
      <text x="421.3633" xml:space="preserve" y="520.4867" clip-path="url(#clipPath2)" stroke="none">foaf:Person OR</text>
      <text x="469.832" xml:space="preserve" y="540.0883" clip-path="url(#clipPath2)" stroke="none">...</text>
    </g>
    <g stroke-linecap="round" transform="matrix(1,0,0,1,-211,-62)" stroke-dashoffset="2" text-rendering="geometricPrecision" shape-rendering="geometricPrecision" stroke-dasharray="0,4" stroke-miterlimit="1.45">
      <rect x="393.0159" y="444.2" clip-path="url(#clipPath2)" fill="none" width="166.9682" rx="4" ry="4" height="100.8"/>
    </g>
    <g fill="yellow" text-rendering="geometricPrecision" shape-rendering="geometricPrecision" transform="matrix(1,0,0,1,-211,-62)" stroke="yellow">
      <rect x="596.7341" y="99.75" clip-path="url(#clipPath2)" width="98.9682" rx="4" ry="4" height="44" stroke="none"/>
    </g>
    <g font-size="16px" stroke-linecap="butt" transform="matrix(1,0,0,1,-211,-62)" text-rendering="geometricPrecision" font-family="sans-serif" shape-rendering="geometricPrecision" stroke-miterlimit="1.45">
      <text x="605.3041" xml:space="preserve" y="128.0352" clip-path="url(#clipPath2)" stroke="none">foaf:Person</text>
      <rect x="596.7341" y="99.75" clip-path="url(#clipPath2)" fill="none" width="98.9682" rx="4" ry="4" height="44"/>
    </g>
    <g fill="yellow" text-rendering="geometricPrecision" shape-rendering="geometricPrecision" transform="matrix(1,0,0,1,-211,-62)" stroke="yellow">
      <rect x="605.2341" y="472.6" clip-path="url(#clipPath2)" width="81.9682" rx="4" ry="4" height="44" stroke="none"/>
    </g>
    <g font-size="16px" stroke-linecap="butt" transform="matrix(1,0,0,1,-211,-62)" text-rendering="geometricPrecision" font-family="sans-serif" shape-rendering="geometricPrecision" stroke-miterlimit="1.45">
      <text x="616.437" xml:space="preserve" y="500.8852" clip-path="url(#clipPath2)" stroke="none">frbr:Item</text>
      <rect x="605.2341" y="472.6" clip-path="url(#clipPath2)" fill="none" width="81.9682" rx="4" ry="4" height="44"/>
    </g>
    <g stroke-linecap="round" transform="matrix(1,0,0,1,-211,-62)" stroke-dashoffset="2" fill="navy" text-rendering="geometricPrecision" shape-rendering="geometricPrecision" stroke-dasharray="0,4" stroke="navy" stroke-miterlimit="1.45">
      <path fill="none" d="M290.5318 147.7326 L290.5318 248.7468 L381.9864 248.7468" clip-path="url(#clipPath2)"/>
      <path d="M290.5318 139.7326 C292.7409 139.7326 294.5318 141.5235 294.5318 143.7326 C294.5318 145.9417 292.7409 147.7326 290.5318 147.7326 C288.3226 147.7326 286.5318 145.9417 286.5318 143.7326 C286.5318 141.5235 288.3226 139.7326 290.5318 139.7326 Z" clip-path="url(#clipPath2)" stroke="none"/>
      <path d="M392.9864 248.7468 L380.9864 242.7468 L380.9864 254.7468 Z" clip-path="url(#clipPath2)" stroke="none"/>
      <rect x="247.6138" y="189.0101" clip-path="url(#clipPath2)" fill="white" width="85.8359" height="23.6016" stroke="none"/>
    </g>
    <g stroke-linecap="butt" font-size="16px" transform="matrix(1,0,0,1,-211,-62)" fill="navy" text-rendering="geometricPrecision" font-family="sans-serif" shape-rendering="geometricPrecision" stroke="navy" stroke-miterlimit="1.45">
      <text x="249.6138" xml:space="preserve" y="207.0961" clip-path="url(#clipPath2)" stroke="none">po:contains</text>
    </g>
    <g stroke-linecap="round" transform="matrix(1,0,0,1,-211,-62)" stroke-dashoffset="2" fill="green" text-rendering="geometricPrecision" shape-rendering="geometricPrecision" stroke-dasharray="0,4" stroke="green" stroke-miterlimit="1.45">
      <path fill="none" d="M389.0125 272 L290.5318 272 L290.5318 458.1063" clip-path="url(#clipPath2)"/>
    </g>
    <g stroke-linecap="round" transform="matrix(1,0,0,1,-211,-62)" fill-opacity="0" stroke-dashoffset="2" fill="rgb(0,0,0)" text-rendering="geometricPrecision" shape-rendering="geometricPrecision" stroke-dasharray="0,4" stroke="rgb(0,0,0)" stroke-opacity="0" stroke-miterlimit="1.45">
      <path d="M397.0125 272 C397.0125 274.2091 395.2216 276 393.0125 276 C390.8033 276 389.0125 274.2091 389.0125 272 C389.0125 269.7909 390.8033 268 393.0125 268 C395.2216 268 397.0125 269.7909 397.0125 272 Z" stroke="none" clip-path="url(#clipPath2)"/>
    </g>
    <g stroke-linecap="butt" transform="matrix(1,0,0,1,-211,-62)" fill="green" text-rendering="geometricPrecision" shape-rendering="geometricPrecision" stroke="green" stroke-miterlimit="1.45">
      <path fill="none" d="M397.0125 272 C397.0125 274.2091 395.2216 276 393.0125 276 C390.8033 276 389.0125 274.2091 389.0125 272 C389.0125 269.7909 390.8033 268 393.0125 268 C395.2216 268 397.0125 269.7909 397.0125 272 Z" clip-path="url(#clipPath2)"/>
    </g>
    <g stroke-linecap="round" transform="matrix(1,0,0,1,-211,-62)" stroke-dashoffset="2" fill="white" text-rendering="geometricPrecision" shape-rendering="geometricPrecision" stroke-dasharray="0,4" stroke="white" stroke-miterlimit="1.45">
      <path d="M290.5318 473.1063 L296.5318 457.1063 L284.5318 457.1063 Z" stroke="none" clip-path="url(#clipPath2)"/>
    </g>
    <g stroke-linecap="butt" transform="matrix(1,0,0,1,-211,-62)" fill="green" text-rendering="geometricPrecision" shape-rendering="geometricPrecision" stroke="green" stroke-miterlimit="1.45">
      <path fill="none" d="M290.5318 473.1063 L296.5318 457.1063 L284.5318 457.1063 Z" clip-path="url(#clipPath2)"/>
    </g>
    <g stroke-linecap="round" transform="matrix(1,0,0,1,-211,-62)" stroke-dashoffset="2" fill="white" text-rendering="geometricPrecision" shape-rendering="geometricPrecision" stroke-dasharray="0,4" stroke="white" stroke-miterlimit="1.45">
      <rect x="232.4927" width="116.0781" height="23.6016" y="356.1867" clip-path="url(#clipPath2)" stroke="none"/>
    </g>
    <g stroke-linecap="butt" font-size="16px" transform="matrix(1,0,0,1,-211,-62)" fill="green" text-rendering="geometricPrecision" font-family="sans-serif" shape-rendering="geometricPrecision" stroke="green" stroke-miterlimit="1.45">
      <text x="234.4927" xml:space="preserve" y="374.2726" clip-path="url(#clipPath2)" stroke="none">c4o:hasContent</text>
    </g>
    <g stroke-linecap="round" transform="matrix(1,0,0,1,-211,-62)" stroke-dashoffset="2" fill="navy" text-rendering="geometricPrecision" shape-rendering="geometricPrecision" stroke-dasharray="0,4" stroke="navy" stroke-miterlimit="1.45">
      <path fill="none" d="M476.5 228.4818 L476.5 132.271" clip-path="url(#clipPath2)"/>
      <path d="M476.5 236.4818 C474.2909 236.4818 472.5 234.6909 472.5 232.4818 C472.5 230.2726 474.2909 228.4818 476.5 228.4818 C478.7091 228.4818 480.5 230.2726 480.5 232.4818 C480.5 234.6909 478.7091 236.4818 476.5 236.4818 Z" clip-path="url(#clipPath2)" stroke="none"/>
      <path d="M476.5 121.271 L470.5 133.271 L482.5 133.271 Z" clip-path="url(#clipPath2)" stroke="none"/>
      <rect x="428.707" y="165.0742" clip-path="url(#clipPath2)" fill="white" width="95.5859" height="23.6016" stroke="none"/>
    </g>
    <g stroke-linecap="butt" font-size="16px" transform="matrix(1,0,0,1,-211,-62)" fill="navy" text-rendering="geometricPrecision" font-family="sans-serif" shape-rendering="geometricPrecision" stroke="navy" stroke-miterlimit="1.45">
      <text x="430.707" xml:space="preserve" y="183.1602" clip-path="url(#clipPath2)" stroke="none">dcterms:type</text>
    </g>
    <g stroke-linecap="round" transform="matrix(1,0,0,1,-211,-62)" stroke-dashoffset="2" fill="navy" text-rendering="geometricPrecision" shape-rendering="geometricPrecision" stroke-dasharray="0,4" stroke="navy" stroke-miterlimit="1.45">
      <path fill="none" d="M476.5 315.5261 L476.5 433.1978" clip-path="url(#clipPath2)"/>
      <path d="M476.5 307.5261 C478.7091 307.5261 480.5 309.3169 480.5 311.5261 C480.5 313.7352 478.7091 315.5261 476.5 315.5261 C474.2909 315.5261 472.5 313.7352 472.5 311.5261 C472.5 309.3169 474.2909 307.5261 476.5 307.5261 Z" clip-path="url(#clipPath2)" stroke="none"/>
      <path d="M476.5 444.1978 L482.5 432.1978 L470.5 432.1978 Z" clip-path="url(#clipPath2)" stroke="none"/>
      <rect x="406.0312" y="366.0492" clip-path="url(#clipPath2)" fill="white" width="140.9375" height="23.6016" stroke="none"/>
    </g>
    <g stroke-linecap="butt" font-size="16px" transform="matrix(1,0,0,1,-211,-62)" fill="navy" text-rendering="geometricPrecision" font-family="sans-serif" shape-rendering="geometricPrecision" stroke="navy" stroke-miterlimit="1.45">
      <text x="408.0312" xml:space="preserve" y="384.1352" clip-path="url(#clipPath2)" stroke="none">dcterms:references</text>
    </g>
    <g stroke-linecap="round" transform="matrix(1,0,0,1,-211,-62)" stroke-dashoffset="2" fill="navy" text-rendering="geometricPrecision" shape-rendering="geometricPrecision" stroke-dasharray="0,4" stroke="navy" stroke-miterlimit="1.45">
      <path fill="none" d="M563.9875 272 L646.2182 272 L646.2182 154.7226" clip-path="url(#clipPath2)"/>
      <path d="M555.9875 272 C555.9875 269.7909 557.7784 268 559.9875 268 C562.1967 268 563.9875 269.7909 563.9875 272 C563.9875 274.2091 562.1967 276 559.9875 276 C557.7784 276 555.9875 274.2091 555.9875 272 Z" clip-path="url(#clipPath2)" stroke="none"/>
      <path d="M646.2182 143.7226 L640.2182 155.7226 L652.2182 155.7226 Z" clip-path="url(#clipPath2)" stroke="none"/>
      <rect x="588.6479" y="200.6367" clip-path="url(#clipPath2)" fill="white" width="115.1406" height="23.6016" stroke="none"/>
    </g>
    <g stroke-linecap="butt" font-size="16px" transform="matrix(1,0,0,1,-211,-62)" fill="navy" text-rendering="geometricPrecision" font-family="sans-serif" shape-rendering="geometricPrecision" stroke="navy" stroke-miterlimit="1.45">
      <text x="590.6479" xml:space="preserve" y="218.7227" clip-path="url(#clipPath2)" stroke="none">dcterms:creator</text>
    </g>
    <g stroke-linecap="round" transform="matrix(1,0,0,1,-211,-62)" stroke-dashoffset="2" fill="navy" text-rendering="geometricPrecision" shape-rendering="geometricPrecision" stroke-dasharray="0,4" stroke="navy" stroke-miterlimit="1.45">
      <path fill="none" d="M564.0118 298.6149 L646.2182 298.6149 L646.2182 461.6378" clip-path="url(#clipPath2)"/>
      <path d="M556.0118 298.6149 C556.0118 296.4058 557.8026 294.6149 560.0118 294.6149 C562.2209 294.6149 564.0118 296.4058 564.0118 298.6149 C564.0118 300.8241 562.2209 302.6149 560.0118 302.6149 C557.8026 302.6149 556.0118 300.8241 556.0118 298.6149 Z" clip-path="url(#clipPath2)" stroke="none"/>
      <path d="M646.2182 472.6378 L652.2182 460.6378 L640.2182 460.6378 Z" clip-path="url(#clipPath2)" stroke="none"/>
      <rect x="589.5346" y="369.2442" clip-path="url(#clipPath2)" fill="white" width="113.3672" height="23.6016" stroke="none"/>
    </g>
    <g stroke-linecap="butt" font-size="16px" transform="matrix(1,0,0,1,-211,-62)" fill="navy" text-rendering="geometricPrecision" font-family="sans-serif" shape-rendering="geometricPrecision" stroke="navy" stroke-miterlimit="1.45">
      <text x="591.5346" xml:space="preserve" y="387.3301" clip-path="url(#clipPath2)" stroke="none">dcterms:source</text>
    </g>
  </g>
</svg>
