<?xml version="1.0" encoding="UTF-8"?><svg xmlns="http://www.w3.org/2000/svg" xmlns:xlink="http://www.w3.org/1999/xlink" fill-opacity="1" color-rendering="auto" color-interpolation="auto" text-rendering="auto" stroke="black" stroke-linecap="square" width="455" stroke-miterlimit="10" shape-rendering="auto" stroke-opacity="1" fill="black" stroke-dasharray="none" font-weight="normal" stroke-width="1" height="533" font-family="'Dialog'" font-style="normal" stroke-linejoin="miter" font-size="12px" stroke-dashoffset="0" image-rendering="auto">
  <!--Generated by ySVG 2.5-->
  <defs id="genericDefs"/>
  <g>
    <defs id="defs1">
      <clipPath clipPathUnits="userSpaceOnUse" id="clipPath1">
        <path d="M0 0 L455 0 L455 533 L0 533 L0 0 Z"/>
      </clipPath>
      <clipPath clipPathUnits="userSpaceOnUse" id="clipPath2">
        <path d="M210 108 L665 108 L665 641 L210 641 L210 108 Z"/>
      </clipPath>
    </defs>
    <g fill="white" text-rendering="geometricPrecision" shape-rendering="geometricPrecision" transform="translate(-210,-108)" stroke="white">
      <rect x="210" width="455" height="533" y="108" clip-path="url(#clipPath2)" stroke="none"/>
    </g>
    <g fill="rgb(255,255,153)" text-rendering="geometricPrecision" shape-rendering="geometricPrecision" transform="matrix(1,0,0,1,-210,-108)" stroke="rgb(255,255,153)">
      <rect x="263.0159" y="123.5" clip-path="url(#clipPath2)" width="98.9682" rx="4" ry="4" height="44" stroke="none"/>
    </g>
    <g font-size="16px" stroke-linecap="butt" transform="matrix(1,0,0,1,-210,-108)" text-rendering="geometricPrecision" font-family="sans-serif" shape-rendering="geometricPrecision" stroke-miterlimit="1.45">
      <text x="272.4727" xml:space="preserve" y="151.7852" clip-path="url(#clipPath2)" stroke="none">fabio:Letter</text>
      <rect x="263.0159" y="123.5" clip-path="url(#clipPath2)" fill="none" width="98.9682" stroke-dasharray="6,2" rx="4" ry="4" height="44"/>
    </g>
    <g fill="yellow" text-rendering="geometricPrecision" shape-rendering="geometricPrecision" transform="matrix(1,0,0,1,-210,-108)" stroke="yellow">
      <rect x="393.0159" y="232.5" clip-path="url(#clipPath2)" width="166.9682" rx="4" ry="4" height="79" stroke="none"/>
    </g>
    <g font-size="16px" stroke-linecap="butt" transform="matrix(1,0,0,1,-210,-108)" text-rendering="geometricPrecision" font-family="sans-serif" shape-rendering="geometricPrecision" stroke-miterlimit="1.45">
      <text x="418.2461" xml:space="preserve" y="278.2852" clip-path="url(#clipPath2)" stroke="none">doco:TextChunk</text>
      <rect x="393.0159" y="232.5" clip-path="url(#clipPath2)" fill="none" width="166.9682" rx="4" ry="4" height="79"/>
    </g>
    <g fill="yellow" text-rendering="geometricPrecision" shape-rendering="geometricPrecision" transform="matrix(1,0,0,1,-210,-108)" stroke="yellow">
      <rect x="386.0159" y="433.8" clip-path="url(#clipPath2)" width="180.9682" rx="4" ry="4" height="44" stroke="none"/>
    </g>
    <g font-size="16px" stroke-linecap="butt" transform="matrix(1,0,0,1,-210,-108)" text-rendering="geometricPrecision" font-family="sans-serif" shape-rendering="geometricPrecision" stroke-miterlimit="1.45">
      <text x="392.8984" xml:space="preserve" y="462.0851" clip-path="url(#clipPath2)" stroke="none">fabio:WebManifestation</text>
      <rect x="386.0159" y="433.8" clip-path="url(#clipPath2)" fill="none" width="180.9682" rx="4" ry="4" height="44"/>
    </g>
    <g fill="yellow" text-rendering="geometricPrecision" shape-rendering="geometricPrecision" transform="matrix(1,0,0,1,-210,-108)" stroke="yellow">
      <rect x="427.0159" y="581.2" clip-path="url(#clipPath2)" width="98.9682" rx="4" ry="4" height="44" stroke="none"/>
    </g>
    <g font-size="16px" stroke-linecap="butt" transform="matrix(1,0,0,1,-210,-108)" text-rendering="geometricPrecision" font-family="sans-serif" shape-rendering="geometricPrecision" stroke-miterlimit="1.45">
      <text x="446.7188" xml:space="preserve" y="609.4852" clip-path="url(#clipPath2)" stroke="none">frbr:Item</text>
      <rect x="427.0159" y="581.2" clip-path="url(#clipPath2)" fill="none" width="98.9682" rx="4" ry="4" height="44"/>
    </g>
    <g fill="rgb(204,255,204)" text-rendering="geometricPrecision" shape-rendering="geometricPrecision" transform="matrix(1,0,0,1,-210,-108)" stroke="rgb(204,255,204)">
      <path d="M243.9445 434.3 L333.0159 434.3 L323.1191 477.3 L234.0477 477.3 Z" fill-rule="evenodd" clip-path="url(#clipPath2)" stroke="none"/>
    </g>
    <g font-size="16px" stroke-linecap="butt" transform="matrix(1,0,0,1,-210,-108)" text-rendering="geometricPrecision" font-family="sans-serif" shape-rendering="geometricPrecision" stroke-miterlimit="1.45">
      <text x="246.1841" xml:space="preserve" y="462.0851" clip-path="url(#clipPath2)" stroke="none">rdfs:Literal</text>
      <path fill="none" d="M243.9445 434.3 L333.0159 434.3 L323.1191 477.3 L234.0477 477.3 Z" fill-rule="evenodd" clip-path="url(#clipPath2)"/>
    </g>
    <g fill="yellow" text-rendering="geometricPrecision" shape-rendering="geometricPrecision" transform="matrix(1,0,0,1,-210,-108)" stroke="yellow">
      <rect x="435.5159" y="123.5" clip-path="url(#clipPath2)" width="81.9682" rx="4" ry="4" height="44" stroke="none"/>
    </g>
    <g font-size="16px" stroke-linecap="butt" transform="matrix(1,0,0,1,-210,-108)" text-rendering="geometricPrecision" font-family="sans-serif" shape-rendering="geometricPrecision" stroke-miterlimit="1.45">
      <text x="442.2617" xml:space="preserve" y="151.7852" clip-path="url(#clipPath2)" stroke="none">owl:Thing</text>
      <rect x="435.5159" y="123.5" clip-path="url(#clipPath2)" fill="none" width="81.9682" rx="4" ry="4" height="44"/>
    </g>
    <g stroke-linecap="round" transform="matrix(1,0,0,1,-210,-108)" stroke-dashoffset="2" fill="navy" text-rendering="geometricPrecision" shape-rendering="geometricPrecision" stroke-dasharray="0,4" stroke="navy" stroke-miterlimit="1.45">
      <path fill="none" d="M312.5 171.51 L312.5 202.2 L418.05 202.2 L418.05 220" clip-path="url(#clipPath2)"/>
      <path d="M312.5 163.51 C314.7091 163.51 316.5 165.3009 316.5 167.51 C316.5 169.7191 314.7091 171.51 312.5 171.51 C310.2909 171.51 308.5 169.7191 308.5 167.51 C308.5 165.3009 310.2909 163.51 312.5 163.51 Z" clip-path="url(#clipPath2)" stroke="none"/>
      <path d="M418.05 231 L424.05 219 L412.05 219 Z" clip-path="url(#clipPath2)" stroke="none"/>
      <rect x="335.2672" y="190.3992" clip-path="url(#clipPath2)" fill="white" width="60.0156" height="23.6016" stroke="none"/>
    </g>
    <g stroke-linecap="butt" font-size="16px" transform="matrix(1,0,0,1,-210,-108)" fill="navy" text-rendering="geometricPrecision" font-family="sans-serif" shape-rendering="geometricPrecision" stroke="navy" stroke-miterlimit="1.45">
      <text x="337.2672" xml:space="preserve" y="208.4852" clip-path="url(#clipPath2)" stroke="none">frbr:part</text>
    </g>
    <g stroke-linecap="round" transform="matrix(1,0,0,1,-210,-108)" stroke-dashoffset="2" fill="navy" text-rendering="geometricPrecision" shape-rendering="geometricPrecision" stroke-dasharray="0,4" stroke="navy" stroke-miterlimit="1.45">
      <path fill="none" d="M542.85 228.4745 L542.85 200 L649.25 200 L649.25 255.3167 L570.9946 255.3167" clip-path="url(#clipPath2)"/>
      <path d="M542.85 236.4745 C540.6408 236.4745 538.85 234.6836 538.85 232.4745 C538.85 230.2654 540.6408 228.4745 542.85 228.4745 C545.0591 228.4745 546.85 230.2654 546.85 232.4745 C546.85 234.6836 545.0591 236.4745 542.85 236.4745 Z" clip-path="url(#clipPath2)" stroke="none"/>
      <path d="M559.9946 255.3167 L571.9946 261.3167 L571.9946 249.3167 Z" clip-path="url(#clipPath2)" stroke="none"/>
      <rect x="553.132" y="188.1992" clip-path="url(#clipPath2)" fill="white" width="85.8359" height="23.6016" stroke="none"/>
    </g>
    <g stroke-linecap="butt" font-size="16px" transform="matrix(1,0,0,1,-210,-108)" fill="navy" text-rendering="geometricPrecision" font-family="sans-serif" shape-rendering="geometricPrecision" stroke="navy" stroke-miterlimit="1.45">
      <text x="555.132" xml:space="preserve" y="206.2852" clip-path="url(#clipPath2)" stroke="none">po:contains</text>
    </g>
    <g stroke-linecap="round" transform="matrix(1,0,0,1,-210,-108)" stroke-dashoffset="2" fill="navy" text-rendering="geometricPrecision" shape-rendering="geometricPrecision" stroke-dasharray="0,4" stroke="navy" stroke-miterlimit="1.45">
      <path fill="none" d="M476.5 315.5235 L476.5 422.7687" clip-path="url(#clipPath2)"/>
      <path d="M476.5 307.5235 C478.7091 307.5235 480.5 309.3144 480.5 311.5235 C480.5 313.7326 478.7091 315.5235 476.5 315.5235 C474.2909 315.5235 472.5 313.7326 472.5 311.5235 C472.5 309.3144 474.2909 307.5235 476.5 307.5235 Z" clip-path="url(#clipPath2)" stroke="none"/>
      <path d="M476.5 433.7687 L482.5 421.7687 L470.5 421.7687 Z" clip-path="url(#clipPath2)" stroke="none"/>
      <rect x="416.2539" y="360.8492" clip-path="url(#clipPath2)" fill="white" width="120.4922" height="23.6016" stroke="none"/>
    </g>
    <g stroke-linecap="butt" font-size="16px" transform="matrix(1,0,0,1,-210,-108)" fill="navy" text-rendering="geometricPrecision" font-family="sans-serif" shape-rendering="geometricPrecision" stroke="navy" stroke-miterlimit="1.45">
      <text x="418.2539" xml:space="preserve" y="378.9352" clip-path="url(#clipPath2)" stroke="none">frbr:embodiment</text>
    </g>
    <g stroke-linecap="round" transform="matrix(1,0,0,1,-210,-108)" stroke-dashoffset="2" fill="navy" text-rendering="geometricPrecision" shape-rendering="geometricPrecision" stroke-dasharray="0,4" stroke="navy" stroke-miterlimit="1.45">
      <path fill="none" d="M476.5 481.7994 L476.5 570.1876" clip-path="url(#clipPath2)"/>
      <path d="M476.5 473.7994 C478.7091 473.7994 480.5 475.5902 480.5 477.7994 C480.5 480.0085 478.7091 481.7994 476.5 481.7994 C474.2909 481.7994 472.5 480.0085 472.5 477.7994 C472.5 475.5902 474.2909 473.7994 476.5 473.7994 Z" clip-path="url(#clipPath2)" stroke="none"/>
      <path d="M476.5 581.1876 L482.5 569.1876 L470.5 569.1876 Z" clip-path="url(#clipPath2)" stroke="none"/>
      <rect x="427.375" y="517.6992" clip-path="url(#clipPath2)" fill="white" width="98.25" height="23.6016" stroke="none"/>
    </g>
    <g stroke-linecap="butt" font-size="16px" transform="matrix(1,0,0,1,-210,-108)" fill="navy" text-rendering="geometricPrecision" font-family="sans-serif" shape-rendering="geometricPrecision" stroke="navy" stroke-miterlimit="1.45">
      <text x="429.375" xml:space="preserve" y="535.7852" clip-path="url(#clipPath2)" stroke="none">frbr:exemplar</text>
    </g>
    <g stroke-linecap="round" transform="matrix(1,0,0,1,-210,-108)" stroke-dashoffset="2" fill="green" text-rendering="geometricPrecision" shape-rendering="geometricPrecision" stroke-dasharray="0,4" stroke="green" stroke-miterlimit="1.45">
      <path fill="none" d="M389.0125 272 L283.5318 272 L283.5318 419.3058" clip-path="url(#clipPath2)"/>
    </g>
    <g stroke-linecap="round" transform="matrix(1,0,0,1,-210,-108)" fill-opacity="0" stroke-dashoffset="2" fill="rgb(0,0,0)" text-rendering="geometricPrecision" shape-rendering="geometricPrecision" stroke-dasharray="0,4" stroke="rgb(0,0,0)" stroke-opacity="0" stroke-miterlimit="1.45">
      <path d="M397.0125 272 C397.0125 274.2091 395.2216 276 393.0125 276 C390.8033 276 389.0125 274.2091 389.0125 272 C389.0125 269.7909 390.8033 268 393.0125 268 C395.2216 268 397.0125 269.7909 397.0125 272 Z" stroke="none" clip-path="url(#clipPath2)"/>
    </g>
    <g stroke-linecap="butt" transform="matrix(1,0,0,1,-210,-108)" fill="green" text-rendering="geometricPrecision" shape-rendering="geometricPrecision" stroke="green" stroke-miterlimit="1.45">
      <path fill="none" d="M397.0125 272 C397.0125 274.2091 395.2216 276 393.0125 276 C390.8033 276 389.0125 274.2091 389.0125 272 C389.0125 269.7909 390.8033 268 393.0125 268 C395.2216 268 397.0125 269.7909 397.0125 272 Z" clip-path="url(#clipPath2)"/>
    </g>
    <g stroke-linecap="round" transform="matrix(1,0,0,1,-210,-108)" stroke-dashoffset="2" fill="white" text-rendering="geometricPrecision" shape-rendering="geometricPrecision" stroke-dasharray="0,4" stroke="white" stroke-miterlimit="1.45">
      <path d="M283.5318 434.3058 L289.5318 418.3058 L277.5318 418.3058 Z" stroke="none" clip-path="url(#clipPath2)"/>
    </g>
    <g stroke-linecap="butt" transform="matrix(1,0,0,1,-210,-108)" fill="green" text-rendering="geometricPrecision" shape-rendering="geometricPrecision" stroke="green" stroke-miterlimit="1.45">
      <path fill="none" d="M283.5318 434.3058 L289.5318 418.3058 L277.5318 418.3058 Z" clip-path="url(#clipPath2)"/>
    </g>
    <g stroke-linecap="round" transform="matrix(1,0,0,1,-210,-108)" stroke-dashoffset="2" fill="white" text-rendering="geometricPrecision" shape-rendering="geometricPrecision" stroke-dasharray="0,4" stroke="white" stroke-miterlimit="1.45">
      <rect x="225.4927" width="116.0781" height="23.6016" y="336.7867" clip-path="url(#clipPath2)" stroke="none"/>
    </g>
    <g stroke-linecap="butt" font-size="16px" transform="matrix(1,0,0,1,-210,-108)" fill="green" text-rendering="geometricPrecision" font-family="sans-serif" shape-rendering="geometricPrecision" stroke="green" stroke-miterlimit="1.45">
      <text x="227.4927" xml:space="preserve" y="354.8727" clip-path="url(#clipPath2)" stroke="none">c4o:hasContent</text>
    </g>
    <g stroke-linecap="round" transform="matrix(1,0,0,1,-210,-108)" stroke-dashoffset="2" fill="navy" text-rendering="geometricPrecision" shape-rendering="geometricPrecision" stroke-dasharray="0,4" stroke="navy" stroke-miterlimit="1.45">
      <path fill="none" d="M476.5 228.4996 L476.5 178.4623" clip-path="url(#clipPath2)"/>
      <path d="M476.5 236.4996 C474.2909 236.4996 472.5 234.7088 472.5 232.4996 C472.5 230.2905 474.2909 228.4996 476.5 228.4996 C478.7091 228.4996 480.5 230.2905 480.5 232.4996 C480.5 234.7088 478.7091 236.4996 476.5 236.4996 Z" clip-path="url(#clipPath2)" stroke="none"/>
      <path d="M476.5 167.4623 L470.5 179.4623 L482.5 179.4623 Z" clip-path="url(#clipPath2)" stroke="none"/>
      <rect x="428.707" y="188.1992" clip-path="url(#clipPath2)" fill="white" width="95.5859" height="23.6016" stroke="none"/>
    </g>
    <g stroke-linecap="butt" font-size="16px" transform="matrix(1,0,0,1,-210,-108)" fill="navy" text-rendering="geometricPrecision" font-family="sans-serif" shape-rendering="geometricPrecision" stroke="navy" stroke-miterlimit="1.45">
      <text x="430.707" xml:space="preserve" y="206.2852" clip-path="url(#clipPath2)" stroke="none">dcterms:type</text>
    </g>
  </g>
</svg>
