<?xml version="1.0" encoding="UTF-8"?><svg xmlns="http://www.w3.org/2000/svg" xmlns:xlink="http://www.w3.org/1999/xlink" fill-opacity="1" color-rendering="auto" color-interpolation="auto" text-rendering="auto" stroke="black" stroke-linecap="square" width="652" stroke-miterlimit="10" shape-rendering="auto" stroke-opacity="1" fill="black" stroke-dasharray="none" font-weight="normal" stroke-width="1" height="464" font-family="'Dialog'" font-style="normal" stroke-linejoin="miter" font-size="12px" stroke-dashoffset="0" image-rendering="auto">
  <!--Generated by ySVG 2.5-->
  <defs id="genericDefs"/>
  <g>
    <defs id="defs1">
      <clipPath clipPathUnits="userSpaceOnUse" id="clipPath1">
        <path d="M0 0 L652 0 L652 464 L0 464 L0 0 Z"/>
      </clipPath>
      <clipPath clipPathUnits="userSpaceOnUse" id="clipPath2">
        <path d="M140 77 L792 77 L792 541 L140 541 L140 77 Z"/>
      </clipPath>
    </defs>
    <g fill="white" text-rendering="geometricPrecision" shape-rendering="geometricPrecision" transform="translate(-140,-77)" stroke="white">
      <rect x="140" width="652" height="464" y="77" clip-path="url(#clipPath2)" stroke="none"/>
    </g>
    <g fill="yellow" text-rendering="geometricPrecision" shape-rendering="geometricPrecision" transform="matrix(1,0,0,1,-140,-77)" stroke="yellow">
      <rect x="222.5318" y="92" clip-path="url(#clipPath2)" width="167.9682" rx="4" ry="4" height="44" stroke="none"/>
    </g>
    <g font-size="16px" stroke-linecap="butt" transform="matrix(1,0,0,1,-140,-77)" text-rendering="geometricPrecision" font-family="sans-serif" shape-rendering="geometricPrecision" stroke-miterlimit="1.45">
      <text x="233.1526" xml:space="preserve" y="120.2852" clip-path="url(#clipPath2)" stroke="none">fabio:WorkCollection</text>
      <rect x="222.5318" y="92" clip-path="url(#clipPath2)" fill="none" width="167.9682" rx="4" ry="4" height="44"/>
    </g>
    <g fill="yellow" text-rendering="geometricPrecision" shape-rendering="geometricPrecision" transform="matrix(1,0,0,1,-140,-77)" stroke="yellow">
      <rect x="252.5397" y="232" clip-path="url(#clipPath2)" width="107.9523" rx="4" ry="4" height="44" stroke="none"/>
    </g>
    <g font-size="16px" stroke-linecap="butt" transform="matrix(1,0,0,1,-140,-77)" text-rendering="geometricPrecision" font-family="sans-serif" shape-rendering="geometricPrecision" stroke-miterlimit="1.45">
      <text x="273.6292" xml:space="preserve" y="260.2852" clip-path="url(#clipPath2)" stroke="none">frbr:Work</text>
      <rect x="252.5397" y="232" clip-path="url(#clipPath2)" fill="none" width="107.9523" rx="4" ry="4" height="44"/>
    </g>
    <g fill="yellow" text-rendering="geometricPrecision" shape-rendering="geometricPrecision" transform="matrix(1,0,0,1,-140,-77)" stroke="yellow">
      <rect x="612.0318" y="232" clip-path="url(#clipPath2)" width="129.9682" rx="4" ry="4" height="44" stroke="none"/>
    </g>
    <g font-size="16px" stroke-linecap="butt" transform="matrix(1,0,0,1,-140,-77)" text-rendering="geometricPrecision" font-family="sans-serif" shape-rendering="geometricPrecision" stroke-miterlimit="1.45">
      <text x="636.9885" xml:space="preserve" y="260.2852" clip-path="url(#clipPath2)" stroke="none">fabio:Letter</text>
      <rect x="612.0318" y="232" clip-path="url(#clipPath2)" fill="none" width="129.9682" rx="4" ry="4" height="44"/>
    </g>
    <g fill="yellow" text-rendering="geometricPrecision" shape-rendering="geometricPrecision" transform="matrix(1,0,0,1,-140,-77)" stroke="yellow">
      <rect x="413.4921" y="298" clip-path="url(#clipPath2)" width="107.9523" rx="4" ry="4" height="44" stroke="none"/>
    </g>
    <g font-size="16px" stroke-linecap="butt" transform="matrix(1,0,0,1,-140,-77)" text-rendering="geometricPrecision" font-family="sans-serif" shape-rendering="geometricPrecision" stroke-miterlimit="1.45">
      <text x="437.687" xml:space="preserve" y="326.2852" clip-path="url(#clipPath2)" stroke="none">frbr:Item</text>
      <rect x="413.4921" y="298" clip-path="url(#clipPath2)" fill="none" width="107.9523" rx="4" ry="4" height="44"/>
    </g>
    <g fill="yellow" text-rendering="geometricPrecision" shape-rendering="geometricPrecision" transform="matrix(1,0,0,1,-140,-77)" stroke="yellow">
      <rect x="577.6984" y="482" clip-path="url(#clipPath2)" width="198.6349" rx="4" ry="4" height="44" stroke="none"/>
    </g>
    <g font-size="16px" stroke-linecap="butt" transform="matrix(1,0,0,1,-140,-77)" text-rendering="geometricPrecision" font-family="sans-serif" shape-rendering="geometricPrecision" stroke-miterlimit="1.45">
      <text x="587.6331" xml:space="preserve" y="510.2852" clip-path="url(#clipPath2)" stroke="none">fabio:DigitalManifestation</text>
      <rect x="577.6984" y="482" clip-path="url(#clipPath2)" fill="none" width="198.6349" rx="4" ry="4" height="44"/>
    </g>
    <g fill="rgb(255,255,153)" text-rendering="geometricPrecision" shape-rendering="geometricPrecision" transform="matrix(1,0,0,1,-140,-77)" stroke="rgb(255,255,153)">
      <rect x="314.5397" y="482" clip-path="url(#clipPath2)" width="107.9523" rx="4" ry="4" height="44" stroke="none"/>
    </g>
    <g font-size="16px" stroke-linecap="butt" transform="matrix(1,0,0,1,-140,-77)" text-rendering="geometricPrecision" font-family="sans-serif" shape-rendering="geometricPrecision" stroke-miterlimit="1.45">
      <text x="338.7346" xml:space="preserve" y="510.2852" clip-path="url(#clipPath2)" stroke="none">frbr:Item</text>
    </g>
    <g stroke-linecap="round" transform="matrix(1,0,0,1,-140,-77)" stroke-dashoffset="2" text-rendering="geometricPrecision" shape-rendering="geometricPrecision" stroke-dasharray="0,4" stroke-miterlimit="1.45">
      <rect x="314.5397" y="482" clip-path="url(#clipPath2)" fill="none" width="107.9523" rx="4" ry="4" height="44"/>
    </g>
    <g fill="rgb(255,255,153)" text-rendering="geometricPrecision" shape-rendering="geometricPrecision" transform="matrix(1,0,0,1,-140,-77)" stroke="rgb(255,255,153)">
      <rect x="450.5" y="92" clip-path="url(#clipPath2)" width="107.9523" rx="4" ry="4" height="44" stroke="none"/>
    </g>
    <g font-size="16px" stroke-linecap="butt" transform="matrix(1,0,0,1,-140,-77)" text-rendering="geometricPrecision" font-family="sans-serif" shape-rendering="geometricPrecision" stroke-miterlimit="1.45">
      <text x="471.5894" xml:space="preserve" y="120.2852" clip-path="url(#clipPath2)" stroke="none">frbr:Work</text>
    </g>
    <g stroke-linecap="round" transform="matrix(1,0,0,1,-140,-77)" stroke-dashoffset="2" text-rendering="geometricPrecision" shape-rendering="geometricPrecision" stroke-dasharray="0,4" stroke-miterlimit="1.45">
      <rect x="450.5" y="92" clip-path="url(#clipPath2)" fill="none" width="107.9523" rx="4" ry="4" height="44"/>
    </g>
    <g fill="rgb(255,255,153)" text-rendering="geometricPrecision" shape-rendering="geometricPrecision" transform="matrix(1,0,0,1,-140,-77)" stroke="rgb(255,255,153)">
      <rect x="668.381" y="92" clip-path="url(#clipPath2)" width="107.9523" rx="4" ry="4" height="44" stroke="none"/>
    </g>
    <g font-size="16px" stroke-linecap="butt" transform="matrix(1,0,0,1,-140,-77)" text-rendering="geometricPrecision" font-family="sans-serif" shape-rendering="geometricPrecision" stroke-miterlimit="1.45">
      <text x="687.6775" xml:space="preserve" y="120.2852" clip-path="url(#clipPath2)" stroke="none">frbr:Letter</text>
    </g>
    <g stroke-linecap="round" transform="matrix(1,0,0,1,-140,-77)" stroke-dashoffset="2" text-rendering="geometricPrecision" shape-rendering="geometricPrecision" stroke-dasharray="0,4" stroke-miterlimit="1.45">
      <rect x="668.381" y="92" clip-path="url(#clipPath2)" fill="none" width="107.9523" rx="4" ry="4" height="44"/>
      <path fill="none" d="M306.5159 139.9775 L306.5159 221.0149" clip-path="url(#clipPath2)" stroke="navy"/>
      <path fill="navy" d="M306.5159 131.9775 C308.725 131.9775 310.5159 133.7684 310.5159 135.9775 C310.5159 138.1867 308.725 139.9775 306.5159 139.9775 C304.3068 139.9775 302.5159 138.1867 302.5159 135.9775 C302.5159 133.7684 304.3068 131.9775 306.5159 131.9775 Z" clip-path="url(#clipPath2)" stroke="none"/>
      <path fill="navy" d="M306.5159 232.0149 L312.5159 220.0149 L300.5159 220.0149 Z" clip-path="url(#clipPath2)" stroke="none"/>
      <rect x="276.5081" y="172.1992" clip-path="url(#clipPath2)" fill="white" width="60.0156" height="23.6016" stroke="none"/>
    </g>
    <g stroke-linecap="butt" font-size="16px" transform="matrix(1,0,0,1,-140,-77)" fill="navy" text-rendering="geometricPrecision" font-family="sans-serif" shape-rendering="geometricPrecision" stroke="navy" stroke-miterlimit="1.45">
      <text x="278.5081" xml:space="preserve" y="190.2852" clip-path="url(#clipPath2)" stroke="none">frbr:part</text>
    </g>
    <g stroke-linecap="round" transform="matrix(1,0,0,1,-140,-77)" stroke-dashoffset="2" fill="navy" text-rendering="geometricPrecision" shape-rendering="geometricPrecision" stroke-dasharray="0,4" stroke="navy" stroke-miterlimit="1.45">
      <path fill="none" d="M364.4718 254 L601.061 254" clip-path="url(#clipPath2)"/>
      <path d="M356.4718 254 C356.4718 251.7909 358.2626 250 360.4718 250 C362.6809 250 364.4718 251.7909 364.4718 254 C364.4718 256.2091 362.6809 258 360.4718 258 C358.2626 258 356.4718 256.2091 356.4718 254 Z" clip-path="url(#clipPath2)" stroke="none"/>
      <path d="M612.061 254 L600.061 248 L600.061 260 Z" clip-path="url(#clipPath2)" stroke="none"/>
      <rect x="433.5744" y="242.1992" clip-path="url(#clipPath2)" fill="white" width="105.375" height="23.6016" stroke="none"/>
    </g>
    <g stroke-linecap="butt" font-size="16px" transform="matrix(1,0,0,1,-140,-77)" fill="navy" text-rendering="geometricPrecision" font-family="sans-serif" shape-rendering="geometricPrecision" stroke="navy" stroke-miterlimit="1.45">
      <text x="435.5744" xml:space="preserve" y="260.2852" clip-path="url(#clipPath2)" stroke="none">frbr:realization</text>
    </g>
    <g stroke-linecap="round" transform="matrix(1,0,0,1,-140,-77)" stroke-dashoffset="2" fill="navy" text-rendering="geometricPrecision" shape-rendering="geometricPrecision" stroke-dasharray="0,4" stroke="navy" stroke-miterlimit="1.45">
      <path fill="none" d="M677.0159 280.0032 L677.0159 470.9852" clip-path="url(#clipPath2)"/>
      <path d="M677.0159 272.0032 C679.225 272.0032 681.0159 273.794 681.0159 276.0032 C681.0159 278.2123 679.225 280.0032 677.0159 280.0032 C674.8067 280.0032 673.0159 278.2123 673.0159 276.0032 C673.0159 273.794 674.8067 272.0032 677.0159 272.0032 Z" clip-path="url(#clipPath2)" stroke="none"/>
      <path d="M677.0159 481.9852 L683.0159 469.9852 L671.0159 469.9852 Z" clip-path="url(#clipPath2)" stroke="none"/>
      <rect x="616.7698" y="367.1992" clip-path="url(#clipPath2)" fill="white" width="120.4922" height="23.6016" stroke="none"/>
    </g>
    <g stroke-linecap="butt" font-size="16px" transform="matrix(1,0,0,1,-140,-77)" fill="navy" text-rendering="geometricPrecision" font-family="sans-serif" shape-rendering="geometricPrecision" stroke="navy" stroke-miterlimit="1.45">
      <text x="618.7698" xml:space="preserve" y="385.2852" clip-path="url(#clipPath2)" stroke="none">frbr:embodiment</text>
    </g>
    <g stroke-linecap="round" transform="matrix(1,0,0,1,-140,-77)" stroke-dashoffset="2" fill="navy" text-rendering="geometricPrecision" shape-rendering="geometricPrecision" stroke-dasharray="0,4" stroke="navy" stroke-miterlimit="1.45">
      <path fill="none" d="M639 477.9771 L639 419 L467.4682 419 L467.4682 352.9946" clip-path="url(#clipPath2)"/>
      <path d="M639 485.9771 C636.7908 485.9771 635 484.1862 635 481.9771 C635 479.7679 636.7908 477.9771 639 477.9771 C641.2092 477.9771 643 479.7679 643 481.9771 C643 484.1862 641.2092 485.9771 639 485.9771 Z" clip-path="url(#clipPath2)" stroke="none"/>
      <path d="M467.4682 341.9946 L461.4682 353.9946 L473.4682 353.9946 Z" clip-path="url(#clipPath2)" stroke="none"/>
      <rect x="504.1091" y="407.1992" clip-path="url(#clipPath2)" fill="white" width="98.25" height="23.6016" stroke="none"/>
    </g>
    <g stroke-linecap="butt" font-size="16px" transform="matrix(1,0,0,1,-140,-77)" fill="navy" text-rendering="geometricPrecision" font-family="sans-serif" shape-rendering="geometricPrecision" stroke="navy" stroke-miterlimit="1.45">
      <text x="506.1091" xml:space="preserve" y="425.2852" clip-path="url(#clipPath2)" stroke="none">frbr:exemplar</text>
    </g>
    <g stroke-linecap="round" transform="matrix(1,0,0,1,-140,-77)" stroke-dashoffset="2" fill="navy" text-rendering="geometricPrecision" shape-rendering="geometricPrecision" stroke-dasharray="0,4" stroke="navy" stroke-miterlimit="1.45">
      <path fill="none" d="M248.5374 254 L222 254 L222 501.5 L303.5312 501.5" clip-path="url(#clipPath2)"/>
      <path d="M256.5374 254 C256.5374 256.2091 254.7465 258 252.5374 258 C250.3282 258 248.5374 256.2091 248.5374 254 C248.5374 251.7909 250.3282 250 252.5374 250 C254.7465 250 256.5374 251.7909 256.5374 254 Z" clip-path="url(#clipPath2)" stroke="none"/>
      <path d="M314.5312 501.5 L302.5312 495.5 L302.5312 507.5 Z" clip-path="url(#clipPath2)" stroke="none"/>
      <rect x="155.5195" y="365.9492" clip-path="url(#clipPath2)" fill="white" width="132.9609" height="23.6016" stroke="none"/>
    </g>
    <g stroke-linecap="butt" font-size="16px" transform="matrix(1,0,0,1,-140,-77)" fill="navy" text-rendering="geometricPrecision" font-family="sans-serif" shape-rendering="geometricPrecision" stroke="navy" stroke-miterlimit="1.45">
      <text x="157.5195" xml:space="preserve" y="384.0352" clip-path="url(#clipPath2)" stroke="none">fabio:hasPortrayal</text>
    </g>
    <g stroke-linecap="round" transform="matrix(1,0,0,1,-140,-77)" stroke-dashoffset="2" fill="navy" text-rendering="geometricPrecision" shape-rendering="geometricPrecision" stroke-dasharray="0,4" stroke="navy" stroke-miterlimit="1.45">
      <path fill="none" d="M368.5159 477.9688 L368.5159 320 L402.4756 320" clip-path="url(#clipPath2)"/>
      <path d="M368.5159 485.9688 C366.3068 485.9688 364.5159 484.1779 364.5159 481.9688 C364.5159 479.7596 366.3068 477.9688 368.5159 477.9688 C370.725 477.9688 372.5159 479.7596 372.5159 481.9688 C372.5159 484.1779 370.725 485.9688 368.5159 485.9688 Z" clip-path="url(#clipPath2)" stroke="none"/>
      <path d="M413.4756 320 L401.4756 314 L401.4756 326 Z" clip-path="url(#clipPath2)" stroke="none"/>
      <rect x="318.926" y="384.6367" clip-path="url(#clipPath2)" fill="white" width="99.1797" height="23.6016" stroke="none"/>
    </g>
    <g stroke-linecap="butt" font-size="16px" transform="matrix(1,0,0,1,-140,-77)" fill="navy" text-rendering="geometricPrecision" font-family="sans-serif" shape-rendering="geometricPrecision" stroke="navy" stroke-miterlimit="1.45">
      <text x="320.9261" xml:space="preserve" y="402.7227" clip-path="url(#clipPath2)" stroke="none">foaf:depiction</text>
    </g>
    <g stroke-linecap="round" transform="matrix(1,0,0,1,-140,-77)" stroke-dashoffset="2" fill="navy" text-rendering="geometricPrecision" shape-rendering="geometricPrecision" stroke-dasharray="0,4" stroke="navy" stroke-miterlimit="1.45">
      <path fill="none" d="M677.0159 227.9934 L677.0159 172.5 L504.4762 172.5 L504.4762 147.0232" clip-path="url(#clipPath2)"/>
      <path d="M677.0159 235.9934 C674.8067 235.9934 673.0159 234.2025 673.0159 231.9934 C673.0159 229.7843 674.8067 227.9934 677.0159 227.9934 C679.225 227.9934 681.0159 229.7843 681.0159 231.9934 C681.0159 234.2025 679.225 235.9934 677.0159 235.9934 Z" clip-path="url(#clipPath2)" stroke="none"/>
      <path d="M504.4762 136.0232 L498.4762 148.0232 L510.4762 148.0232 Z" clip-path="url(#clipPath2)" stroke="none"/>
      <rect x="524.7187" y="160.6992" clip-path="url(#clipPath2)" fill="white" width="132.0547" height="23.6016" stroke="none"/>
    </g>
    <g stroke-linecap="butt" font-size="16px" transform="matrix(1,0,0,1,-140,-77)" fill="navy" text-rendering="geometricPrecision" font-family="sans-serif" shape-rendering="geometricPrecision" stroke="navy" stroke-miterlimit="1.45">
      <text x="526.7187" xml:space="preserve" y="178.7852" clip-path="url(#clipPath2)" stroke="none">schema:subjectOf</text>
    </g>
    <g stroke-linecap="round" transform="matrix(1,0,0,1,-140,-77)" stroke-dashoffset="2" fill="navy" text-rendering="geometricPrecision" shape-rendering="geometricPrecision" stroke-dasharray="0,4" stroke="navy" stroke-miterlimit="1.45">
      <path fill="none" d="M624.3572 167.5 L624.3572 114 L657.4285 114" clip-path="url(#clipPath2)"/>
      <path d="M668.4285 114 L656.4285 108 L656.4285 120 Z" clip-path="url(#clipPath2)" stroke="none"/>
    </g>
  </g>
</svg>
