<?xml version="1.0" encoding="UTF-8"?><svg xmlns="http://www.w3.org/2000/svg" xmlns:xlink="http://www.w3.org/1999/xlink" fill-opacity="1" color-rendering="auto" color-interpolation="auto" text-rendering="auto" stroke="black" stroke-linecap="square" width="683" stroke-miterlimit="10" shape-rendering="auto" stroke-opacity="1" fill="black" stroke-dasharray="none" font-weight="normal" stroke-width="1" height="654" font-family="'Dialog'" font-style="normal" stroke-linejoin="miter" font-size="12px" stroke-dashoffset="0" image-rendering="auto">
  <!--Generated by ySVG 2.5-->
  <defs id="genericDefs"/>
  <g>
    <defs id="defs1">
      <clipPath clipPathUnits="userSpaceOnUse" id="clipPath1">
        <path d="M0 0 L683 0 L683 654 L0 654 L0 0 Z"/>
      </clipPath>
      <clipPath clipPathUnits="userSpaceOnUse" id="clipPath2">
        <path d="M-1 153 L682 153 L682 807 L-1 807 L-1 153 Z"/>
      </clipPath>
    </defs>
    <g fill="white" text-rendering="geometricPrecision" shape-rendering="geometricPrecision" transform="translate(1,-153)" stroke="white">
      <rect x="-1" width="683" height="654" y="153" clip-path="url(#clipPath2)" stroke="none"/>
    </g>
    <g fill="yellow" text-rendering="geometricPrecision" shape-rendering="geometricPrecision" transform="matrix(1,0,0,1,1,-153)" stroke="yellow">
      <rect x="93.0794" y="243" clip-path="url(#clipPath2)" width="107.9523" rx="4" ry="4" height="44" stroke="none"/>
    </g>
    <g font-size="16px" stroke-linecap="butt" transform="matrix(1,0,0,1,1,-153)" text-rendering="geometricPrecision" font-family="sans-serif" shape-rendering="geometricPrecision" stroke-miterlimit="1.45">
      <text x="114.1689" xml:space="preserve" y="271.2852" clip-path="url(#clipPath2)" stroke="none">frbr:Work</text>
      <rect x="93.0794" y="243" clip-path="url(#clipPath2)" fill="none" width="107.9523" rx="4" ry="4" height="44"/>
    </g>
    <g fill="yellow" text-rendering="geometricPrecision" shape-rendering="geometricPrecision" transform="matrix(1,0,0,1,1,-153)" stroke="yellow">
      <rect x="348.5238" y="168" clip-path="url(#clipPath2)" width="119.9523" rx="4" ry="4" height="44" stroke="none"/>
    </g>
    <g font-size="16px" stroke-linecap="butt" transform="matrix(1,0,0,1,1,-153)" text-rendering="geometricPrecision" font-family="sans-serif" shape-rendering="geometricPrecision" stroke-miterlimit="1.45">
      <text x="356.9219" xml:space="preserve" y="196.2852" clip-path="url(#clipPath2)" stroke="none">dcterms:Agent</text>
      <rect x="348.5238" y="168" clip-path="url(#clipPath2)" fill="none" width="119.9523" rx="4" ry="4" height="44"/>
    </g>
    <g fill="yellow" text-rendering="geometricPrecision" shape-rendering="geometricPrecision" transform="matrix(1,0,0,1,1,-153)" stroke="yellow">
      <rect x="93.0794" y="352" clip-path="url(#clipPath2)" width="107.9523" rx="4" ry="4" height="44" stroke="none"/>
    </g>
    <g font-size="16px" stroke-linecap="butt" transform="matrix(1,0,0,1,1,-153)" text-rendering="geometricPrecision" font-family="sans-serif" shape-rendering="geometricPrecision" stroke-miterlimit="1.45">
      <text x="105.2587" xml:space="preserve" y="380.2852" clip-path="url(#clipPath2)" stroke="none">fabio:Article</text>
      <rect x="93.0794" y="352" clip-path="url(#clipPath2)" fill="none" width="107.9523" rx="4" ry="4" height="44"/>
    </g>
    <g fill="yellow" text-rendering="geometricPrecision" shape-rendering="geometricPrecision" transform="matrix(1,0,0,1,1,-153)" stroke="yellow">
      <rect x="100.8939" y="562" clip-path="url(#clipPath2)" width="138.9523" rx="4" ry="4" height="44" stroke="none"/>
    </g>
    <g font-size="16px" stroke-linecap="butt" transform="matrix(1,0,0,1,1,-153)" text-rendering="geometricPrecision" font-family="sans-serif" shape-rendering="geometricPrecision" stroke-miterlimit="1.45">
      <text x="108.5654" xml:space="preserve" y="590.2852" clip-path="url(#clipPath2)" stroke="none">frbr:Manifestation</text>
      <rect x="100.8939" y="562" clip-path="url(#clipPath2)" fill="none" width="138.9523" rx="4" ry="4" height="44"/>
    </g>
    <g fill="rgb(255,255,153)" text-rendering="geometricPrecision" shape-rendering="geometricPrecision" transform="matrix(1,0,0,1,1,-153)" stroke="rgb(255,255,153)">
      <rect x="476.5475" y="562" clip-path="url(#clipPath2)" width="131.9523" rx="4" ry="4" height="44" stroke="none"/>
    </g>
    <g font-size="16px" stroke-linecap="butt" transform="matrix(1,0,0,1,1,-153)" text-rendering="geometricPrecision" font-family="sans-serif" shape-rendering="geometricPrecision" stroke-miterlimit="1.45">
      <text x="487.8362" xml:space="preserve" y="590.2852" clip-path="url(#clipPath2)" stroke="none">pro:RoleInTime</text>
      <rect x="476.5475" y="562" clip-path="url(#clipPath2)" fill="none" width="131.9523" stroke-dasharray="6,2" rx="4" ry="4" height="44"/>
    </g>
    <g fill="rgb(204,255,204)" text-rendering="geometricPrecision" shape-rendering="geometricPrecision" transform="matrix(1,0,0,1,1,-153)" stroke="rgb(204,255,204)">
      <path d="M358.062 243.5 L471.5475 243.5 L458.938 286.5 L345.4525 286.5 Z" fill-rule="evenodd" clip-path="url(#clipPath2)" stroke="none"/>
    </g>
    <g font-size="16px" stroke-linecap="butt" transform="matrix(1,0,0,1,1,-153)" text-rendering="geometricPrecision" font-family="sans-serif" shape-rendering="geometricPrecision" stroke-miterlimit="1.45">
      <text x="371.1523" xml:space="preserve" y="271.2852" clip-path="url(#clipPath2)" stroke="none">rdfs:Literal</text>
      <path fill="none" d="M358.062 243.5 L471.5475 243.5 L458.938 286.5 L345.4525 286.5 Z" fill-rule="evenodd" clip-path="url(#clipPath2)"/>
    </g>
    <g fill="rgb(204,255,204)" text-rendering="geometricPrecision" shape-rendering="geometricPrecision" transform="matrix(1,0,0,1,1,-153)" stroke="rgb(204,255,204)">
      <path d="M363.062 482 L476.5475 482 L463.938 525 L350.4525 525 Z" fill-rule="evenodd" clip-path="url(#clipPath2)" stroke="none"/>
    </g>
    <g font-size="16px" stroke-linecap="butt" transform="matrix(1,0,0,1,1,-153)" text-rendering="geometricPrecision" font-family="sans-serif" shape-rendering="geometricPrecision" stroke-miterlimit="1.45">
      <text x="377.4805" xml:space="preserve" y="509.7852" clip-path="url(#clipPath2)" stroke="none">xsd:gYear</text>
      <path fill="none" d="M363.062 482 L476.5475 482 L463.938 525 L350.4525 525 Z" fill-rule="evenodd" clip-path="url(#clipPath2)"/>
    </g>
    <g fill="yellow" text-rendering="geometricPrecision" shape-rendering="geometricPrecision" transform="matrix(1,0,0,1,1,-153)" stroke="yellow">
      <rect x="100.8939" y="745" clip-path="url(#clipPath2)" width="163.9523" rx="4" ry="4" height="44" stroke="none"/>
    </g>
    <g font-size="16px" stroke-linecap="butt" transform="matrix(1,0,0,1,1,-153)" text-rendering="geometricPrecision" font-family="sans-serif" shape-rendering="geometricPrecision" stroke-miterlimit="1.45">
      <text x="109.9365" xml:space="preserve" y="773.2852" clip-path="url(#clipPath2)" stroke="none">fabio:JournalVolume</text>
      <rect x="100.8939" y="745" clip-path="url(#clipPath2)" fill="none" width="163.9523" rx="4" ry="4" height="44"/>
    </g>
    <g fill="yellow" text-rendering="geometricPrecision" shape-rendering="geometricPrecision" transform="matrix(1,0,0,1,1,-153)" stroke="yellow">
      <rect x="126.3939" y="637" clip-path="url(#clipPath2)" width="112.9523" rx="4" ry="4" height="44" stroke="none"/>
    </g>
    <g font-size="16px" stroke-linecap="butt" transform="matrix(1,0,0,1,1,-153)" text-rendering="geometricPrecision" font-family="sans-serif" shape-rendering="geometricPrecision" stroke-miterlimit="1.45">
      <text x="137.0615" xml:space="preserve" y="665.2852" clip-path="url(#clipPath2)" stroke="none">fabio:Journal</text>
      <rect x="126.3939" y="637" clip-path="url(#clipPath2)" fill="none" width="112.9523" rx="4" ry="4" height="44"/>
    </g>
    <g stroke-linecap="round" transform="matrix(1,0,0,1,1,-153)" stroke-dashoffset="2" fill="navy" text-rendering="geometricPrecision" shape-rendering="geometricPrecision" stroke-dasharray="0,4" stroke="navy" stroke-miterlimit="1.45">
      <path fill="none" d="M147.0556 238.9907 L147.0556 190 L337.5325 190" clip-path="url(#clipPath2)"/>
      <path d="M147.0556 246.9907 C144.8465 246.9907 143.0556 245.1999 143.0556 242.9907 C143.0556 240.7816 144.8465 238.9907 147.0556 238.9907 C149.2648 238.9907 151.0556 240.7816 151.0556 242.9907 C151.0556 245.1999 149.2648 246.9907 147.0556 246.9907 Z" clip-path="url(#clipPath2)" stroke="none"/>
      <path d="M348.5325 190 L336.5325 184 L336.5325 196 Z" clip-path="url(#clipPath2)" stroke="none"/>
      <rect x="185.6569" y="178.1992" clip-path="url(#clipPath2)" fill="white" width="115.1406" height="23.6016" stroke="none"/>
    </g>
    <g stroke-linecap="butt" font-size="16px" transform="matrix(1,0,0,1,1,-153)" fill="navy" text-rendering="geometricPrecision" font-family="sans-serif" shape-rendering="geometricPrecision" stroke="navy" stroke-miterlimit="1.45">
      <text x="187.6569" xml:space="preserve" y="196.2852" clip-path="url(#clipPath2)" stroke="none">dcterms:creator</text>
    </g>
    <g stroke-linecap="round" transform="matrix(1,0,0,1,1,-153)" stroke-dashoffset="2" fill="navy" text-rendering="geometricPrecision" shape-rendering="geometricPrecision" stroke-dasharray="0,4" stroke="navy" stroke-miterlimit="1.45">
      <path fill="none" d="M147.0556 291.0076 L147.0556 341.0395" clip-path="url(#clipPath2)"/>
      <path d="M147.0556 283.0076 C149.2648 283.0076 151.0556 284.7984 151.0556 287.0076 C151.0556 289.2167 149.2648 291.0076 147.0556 291.0076 C144.8465 291.0076 143.0556 289.2167 143.0556 287.0076 C143.0556 284.7984 144.8465 283.0076 147.0556 283.0076 Z" clip-path="url(#clipPath2)" stroke="none"/>
      <path d="M147.0556 352.0395 L153.0556 340.0395 L141.0556 340.0395 Z" clip-path="url(#clipPath2)" stroke="none"/>
      <rect x="94.3681" y="307.6992" clip-path="url(#clipPath2)" fill="white" width="105.375" height="23.6016" stroke="none"/>
    </g>
    <g stroke-linecap="butt" font-size="16px" transform="matrix(1,0,0,1,1,-153)" fill="navy" text-rendering="geometricPrecision" font-family="sans-serif" shape-rendering="geometricPrecision" stroke="navy" stroke-miterlimit="1.45">
      <text x="96.3681" xml:space="preserve" y="325.7852" clip-path="url(#clipPath2)" stroke="none">frbr:realization</text>
    </g>
    <g stroke-linecap="round" transform="matrix(1,0,0,1,1,-153)" stroke-dashoffset="2" fill="navy" text-rendering="geometricPrecision" shape-rendering="geometricPrecision" stroke-dasharray="0,4" stroke="navy" stroke-miterlimit="1.45">
      <path fill="none" d="M170.3701 400.0293 L170.3701 551.0181" clip-path="url(#clipPath2)"/>
      <path d="M170.3701 392.0293 C172.5792 392.0293 174.3701 393.8202 174.3701 396.0293 C174.3701 398.2385 172.5792 400.0293 170.3701 400.0293 C168.1609 400.0293 166.3701 398.2385 166.3701 396.0293 C166.3701 393.8202 168.1609 392.0293 170.3701 392.0293 Z" clip-path="url(#clipPath2)" stroke="none"/>
      <path d="M170.3701 562.0181 L176.3701 550.0181 L164.3701 550.0181 Z" clip-path="url(#clipPath2)" stroke="none"/>
      <rect x="110.124" y="467.1992" clip-path="url(#clipPath2)" fill="white" width="120.4922" height="23.6016" stroke="none"/>
    </g>
    <g stroke-linecap="butt" font-size="16px" transform="matrix(1,0,0,1,1,-153)" fill="navy" text-rendering="geometricPrecision" font-family="sans-serif" shape-rendering="geometricPrecision" stroke="navy" stroke-miterlimit="1.45">
      <text x="112.124" xml:space="preserve" y="485.2852" clip-path="url(#clipPath2)" stroke="none">frbr:embodiment</text>
    </g>
    <g stroke-linecap="round" transform="matrix(1,0,0,1,1,-153)" stroke-dashoffset="2" fill="navy" text-rendering="geometricPrecision" shape-rendering="geometricPrecision" stroke-dasharray="0,4" stroke="navy" stroke-miterlimit="1.45">
      <path fill="none" d="M243.8729 584 L465.5774 584" clip-path="url(#clipPath2)"/>
      <path d="M235.8729 584 C235.8729 581.7908 237.6638 580 239.8729 580 C242.082 580 243.8729 581.7908 243.8729 584 C243.8729 586.2092 242.082 588 239.8729 588 C237.6638 588 235.8729 586.2092 235.8729 584 Z" clip-path="url(#clipPath2)" stroke="none"/>
      <path d="M476.5774 584 L464.5774 578 L464.5774 590 Z" clip-path="url(#clipPath2)" stroke="none"/>
      <rect x="258.8219" y="572.1992" clip-path="url(#clipPath2)" fill="white" width="198.75" height="23.6016" stroke="none"/>
    </g>
    <g stroke-linecap="butt" font-size="16px" transform="matrix(1,0,0,1,1,-153)" fill="navy" text-rendering="geometricPrecision" font-family="sans-serif" shape-rendering="geometricPrecision" stroke="navy" stroke-miterlimit="1.45">
      <text x="260.8219" xml:space="preserve" y="590.2852" clip-path="url(#clipPath2)" stroke="none">pro:isRelatedToRoleInTime</text>
    </g>
    <g stroke-linecap="round" transform="matrix(1,0,0,1,1,-153)" stroke-dashoffset="2" fill="green" text-rendering="geometricPrecision" shape-rendering="geometricPrecision" stroke-dasharray="0,4" stroke="green" stroke-miterlimit="1.45">
      <path fill="none" d="M205.0232 265 L336.7427 265" clip-path="url(#clipPath2)"/>
    </g>
    <g stroke-linecap="round" transform="matrix(1,0,0,1,1,-153)" fill-opacity="0" stroke-dashoffset="2" fill="rgb(0,0,0)" text-rendering="geometricPrecision" shape-rendering="geometricPrecision" stroke-dasharray="0,4" stroke="rgb(0,0,0)" stroke-opacity="0" stroke-miterlimit="1.45">
      <path d="M197.0232 265 C197.0232 262.7909 198.8141 261 201.0232 261 C203.2323 261 205.0232 262.7909 205.0232 265 C205.0232 267.2091 203.2323 269 201.0232 269 C198.8141 269 197.0232 267.2091 197.0232 265 Z" stroke="none" clip-path="url(#clipPath2)"/>
    </g>
    <g stroke-linecap="butt" transform="matrix(1,0,0,1,1,-153)" fill="green" text-rendering="geometricPrecision" shape-rendering="geometricPrecision" stroke="green" stroke-miterlimit="1.45">
      <path fill="none" d="M197.0232 265 C197.0232 262.7909 198.8141 261 201.0232 261 C203.2323 261 205.0232 262.7909 205.0232 265 C205.0232 267.2091 203.2323 269 201.0232 269 C198.8141 269 197.0232 267.2091 197.0232 265 Z" clip-path="url(#clipPath2)"/>
    </g>
    <g stroke-linecap="round" transform="matrix(1,0,0,1,1,-153)" stroke-dashoffset="2" fill="white" text-rendering="geometricPrecision" shape-rendering="geometricPrecision" stroke-dasharray="0,4" stroke="white" stroke-miterlimit="1.45">
      <path d="M351.7427 265 L335.7427 259 L335.7427 271 Z" stroke="none" clip-path="url(#clipPath2)"/>
    </g>
    <g stroke-linecap="butt" transform="matrix(1,0,0,1,1,-153)" fill="green" text-rendering="geometricPrecision" shape-rendering="geometricPrecision" stroke="green" stroke-miterlimit="1.45">
      <path fill="none" d="M351.7427 265 L335.7427 259 L335.7427 271 Z" clip-path="url(#clipPath2)"/>
    </g>
    <g stroke-linecap="round" transform="matrix(1,0,0,1,1,-153)" stroke-dashoffset="2" fill="white" text-rendering="geometricPrecision" shape-rendering="geometricPrecision" stroke-dasharray="0,4" stroke="white" stroke-miterlimit="1.45">
      <rect x="228.1211" width="90.2422" height="23.6016" y="253.1992" clip-path="url(#clipPath2)" stroke="none"/>
    </g>
    <g stroke-linecap="butt" font-size="16px" transform="matrix(1,0,0,1,1,-153)" fill="green" text-rendering="geometricPrecision" font-family="sans-serif" shape-rendering="geometricPrecision" stroke="green" stroke-miterlimit="1.45">
      <text x="230.121" xml:space="preserve" y="271.2852" clip-path="url(#clipPath2)" stroke="none">dcterms:title</text>
    </g>
    <g stroke-linecap="round" transform="matrix(1,0,0,1,1,-153)" stroke-dashoffset="2" fill="green" text-rendering="geometricPrecision" shape-rendering="geometricPrecision" stroke-dasharray="0,4" stroke="green" stroke-miterlimit="1.45">
      <path fill="none" d="M205.0347 374 L450.4531 374 L450.4531 333 L408.5 333 L408.5 301.5024" clip-path="url(#clipPath2)"/>
    </g>
    <g stroke-linecap="round" transform="matrix(1,0,0,1,1,-153)" fill-opacity="0" stroke-dashoffset="2" fill="rgb(0,0,0)" text-rendering="geometricPrecision" shape-rendering="geometricPrecision" stroke-dasharray="0,4" stroke="rgb(0,0,0)" stroke-opacity="0" stroke-miterlimit="1.45">
      <path d="M197.0347 374 C197.0347 371.7909 198.8256 370 201.0347 370 C203.2439 370 205.0347 371.7909 205.0347 374 C205.0347 376.2091 203.2439 378 201.0347 378 C198.8256 378 197.0347 376.2091 197.0347 374 Z" stroke="none" clip-path="url(#clipPath2)"/>
    </g>
    <g stroke-linecap="butt" transform="matrix(1,0,0,1,1,-153)" fill="green" text-rendering="geometricPrecision" shape-rendering="geometricPrecision" stroke="green" stroke-miterlimit="1.45">
      <path fill="none" d="M197.0347 374 C197.0347 371.7909 198.8256 370 201.0347 370 C203.2439 370 205.0347 371.7909 205.0347 374 C205.0347 376.2091 203.2439 378 201.0347 378 C198.8256 378 197.0347 376.2091 197.0347 374 Z" clip-path="url(#clipPath2)"/>
    </g>
    <g stroke-linecap="round" transform="matrix(1,0,0,1,1,-153)" stroke-dashoffset="2" fill="white" text-rendering="geometricPrecision" shape-rendering="geometricPrecision" stroke-dasharray="0,4" stroke="white" stroke-miterlimit="1.45">
      <path d="M408.5 286.5024 L402.5 302.5024 L414.5 302.5024 Z" stroke="none" clip-path="url(#clipPath2)"/>
    </g>
    <g stroke-linecap="butt" transform="matrix(1,0,0,1,1,-153)" fill="green" text-rendering="geometricPrecision" shape-rendering="geometricPrecision" stroke="green" stroke-miterlimit="1.45">
      <path fill="none" d="M408.5 286.5024 L402.5 302.5024 L414.5 302.5024 Z" clip-path="url(#clipPath2)"/>
    </g>
    <g stroke-linecap="round" transform="matrix(1,0,0,1,1,-153)" stroke-dashoffset="2" fill="white" text-rendering="geometricPrecision" shape-rendering="geometricPrecision" stroke-dasharray="0,4" stroke="white" stroke-miterlimit="1.45">
      <rect x="225.5901" width="209.4297" height="23.6016" y="362.1992" clip-path="url(#clipPath2)" stroke="none"/>
    </g>
    <g stroke-linecap="butt" font-size="16px" transform="matrix(1,0,0,1,1,-153)" fill="green" text-rendering="geometricPrecision" font-family="sans-serif" shape-rendering="geometricPrecision" stroke="green" stroke-miterlimit="1.45">
      <text x="227.5901" xml:space="preserve" y="380.2852" clip-path="url(#clipPath2)" stroke="none">dcterms:bibliographicCitation</text>
    </g>
    <g stroke-linecap="round" transform="matrix(1,0,0,1,1,-153)" stroke-dashoffset="2" fill="green" text-rendering="geometricPrecision" shape-rendering="geometricPrecision" stroke-dasharray="0,4" stroke="green" stroke-miterlimit="1.45">
      <path fill="none" d="M189.9817 400.0166 L189.9817 438.856 L413.5 438.856 L413.5 467.0046" clip-path="url(#clipPath2)"/>
    </g>
    <g stroke-linecap="round" transform="matrix(1,0,0,1,1,-153)" fill-opacity="0" stroke-dashoffset="2" fill="rgb(0,0,0)" text-rendering="geometricPrecision" shape-rendering="geometricPrecision" stroke-dasharray="0,4" stroke="rgb(0,0,0)" stroke-opacity="0" stroke-miterlimit="1.45">
      <path d="M189.9817 392.0166 C192.1908 392.0166 193.9817 393.8074 193.9817 396.0166 C193.9817 398.2257 192.1908 400.0166 189.9817 400.0166 C187.7726 400.0166 185.9817 398.2257 185.9817 396.0166 C185.9817 393.8074 187.7726 392.0166 189.9817 392.0166 Z" stroke="none" clip-path="url(#clipPath2)"/>
    </g>
    <g stroke-linecap="butt" transform="matrix(1,0,0,1,1,-153)" fill="green" text-rendering="geometricPrecision" shape-rendering="geometricPrecision" stroke="green" stroke-miterlimit="1.45">
      <path fill="none" d="M189.9817 392.0166 C192.1908 392.0166 193.9817 393.8074 193.9817 396.0166 C193.9817 398.2257 192.1908 400.0166 189.9817 400.0166 C187.7726 400.0166 185.9817 398.2257 185.9817 396.0166 C185.9817 393.8074 187.7726 392.0166 189.9817 392.0166 Z" clip-path="url(#clipPath2)"/>
    </g>
    <g stroke-linecap="round" transform="matrix(1,0,0,1,1,-153)" stroke-dashoffset="2" fill="white" text-rendering="geometricPrecision" shape-rendering="geometricPrecision" stroke-dasharray="0,4" stroke="white" stroke-miterlimit="1.45">
      <path d="M413.5 482.0046 L419.5 466.0046 L407.5 466.0046 Z" stroke="none" clip-path="url(#clipPath2)"/>
    </g>
    <g stroke-linecap="butt" transform="matrix(1,0,0,1,1,-153)" fill="green" text-rendering="geometricPrecision" shape-rendering="geometricPrecision" stroke="green" stroke-miterlimit="1.45">
      <path fill="none" d="M413.5 482.0046 L419.5 466.0046 L407.5 466.0046 Z" clip-path="url(#clipPath2)"/>
    </g>
    <g stroke-linecap="round" transform="matrix(1,0,0,1,1,-153)" stroke-dashoffset="2" fill="white" text-rendering="geometricPrecision" shape-rendering="geometricPrecision" stroke-dasharray="0,4" stroke="white" stroke-miterlimit="1.45">
      <rect x="211.2369" width="181.0078" height="23.6016" y="427.0552" clip-path="url(#clipPath2)" stroke="none"/>
    </g>
    <g stroke-linecap="butt" font-size="16px" transform="matrix(1,0,0,1,1,-153)" fill="green" text-rendering="geometricPrecision" font-family="sans-serif" shape-rendering="geometricPrecision" stroke="green" stroke-miterlimit="1.45">
      <text x="213.2369" xml:space="preserve" y="445.1412" clip-path="url(#clipPath2)" stroke="none">fabio:hasPublicationYear</text>
    </g>
    <g stroke-linecap="round" transform="matrix(1,0,0,1,1,-153)" stroke-dashoffset="2" fill="navy" text-rendering="geometricPrecision" shape-rendering="geometricPrecision" stroke-dasharray="0,4" stroke="navy" stroke-miterlimit="1.45">
      <path fill="none" d="M89.0832 374 L52.5 374 L52.5 374 L52.5 767 L89.9113 767" clip-path="url(#clipPath2)"/>
      <path d="M97.0832 374 C97.0832 376.2091 95.2923 378 93.0832 378 C90.8741 378 89.0832 376.2091 89.0832 374 C89.0832 371.7909 90.8741 370 93.0832 370 C95.2923 370 97.0832 371.7909 97.0832 374 Z" clip-path="url(#clipPath2)" stroke="none"/>
      <path d="M100.9113 767 L88.9113 761 L88.9113 773 Z" clip-path="url(#clipPath2)" stroke="none"/>
      <rect x="14.0469" y="558.6992" clip-path="url(#clipPath2)" fill="white" width="76.9062" height="23.6016" stroke="none"/>
    </g>
    <g stroke-linecap="butt" font-size="16px" transform="matrix(1,0,0,1,1,-153)" fill="navy" text-rendering="geometricPrecision" font-family="sans-serif" shape-rendering="geometricPrecision" stroke="navy" stroke-miterlimit="1.45">
      <text x="16.0469" xml:space="preserve" y="576.7852" clip-path="url(#clipPath2)" stroke="none">frbr:partOf</text>
    </g>
    <g stroke-linecap="round" transform="matrix(1,0,0,1,1,-153)" stroke-dashoffset="2" fill="green" text-rendering="geometricPrecision" shape-rendering="geometricPrecision" stroke-dasharray="0,4" stroke="green" stroke-miterlimit="1.45">
      <path fill="none" d="M268.8692 754.5457 L638.5 754.5457 L638.5 520.6667 L510.5 520.6667 L510.5 278.6667 L476.2591 278.6667" clip-path="url(#clipPath2)"/>
    </g>
    <g stroke-linecap="round" transform="matrix(1,0,0,1,1,-153)" fill-opacity="0" stroke-dashoffset="2" fill="rgb(0,0,0)" text-rendering="geometricPrecision" shape-rendering="geometricPrecision" stroke-dasharray="0,4" stroke="rgb(0,0,0)" stroke-opacity="0" stroke-miterlimit="1.45">
      <path d="M260.8692 754.5457 C260.8692 752.3365 262.6601 750.5457 264.8692 750.5457 C267.0783 750.5457 268.8692 752.3365 268.8692 754.5457 C268.8692 756.7548 267.0783 758.5457 264.8692 758.5457 C262.6601 758.5457 260.8692 756.7548 260.8692 754.5457 Z" stroke="none" clip-path="url(#clipPath2)"/>
    </g>
    <g stroke-linecap="butt" transform="matrix(1,0,0,1,1,-153)" fill="green" text-rendering="geometricPrecision" shape-rendering="geometricPrecision" stroke="green" stroke-miterlimit="1.45">
      <path fill="none" d="M260.8692 754.5457 C260.8692 752.3365 262.6601 750.5457 264.8692 750.5457 C267.0783 750.5457 268.8692 752.3365 268.8692 754.5457 C268.8692 756.7548 267.0783 758.5457 264.8692 758.5457 C262.6601 758.5457 260.8692 756.7548 260.8692 754.5457 Z" clip-path="url(#clipPath2)"/>
    </g>
    <g stroke-linecap="round" transform="matrix(1,0,0,1,1,-153)" stroke-dashoffset="2" fill="white" text-rendering="geometricPrecision" shape-rendering="geometricPrecision" stroke-dasharray="0,4" stroke="white" stroke-miterlimit="1.45">
      <path d="M461.2591 278.6667 L477.2591 284.6667 L477.2591 272.6667 Z" stroke="none" clip-path="url(#clipPath2)"/>
    </g>
    <g stroke-linecap="butt" transform="matrix(1,0,0,1,1,-153)" fill="green" text-rendering="geometricPrecision" shape-rendering="geometricPrecision" stroke="green" stroke-miterlimit="1.45">
      <path fill="none" d="M461.2591 278.6667 L477.2591 284.6667 L477.2591 272.6667 Z" clip-path="url(#clipPath2)"/>
    </g>
    <g stroke-linecap="round" transform="matrix(1,0,0,1,1,-153)" stroke-dashoffset="2" fill="white" text-rendering="geometricPrecision" shape-rendering="geometricPrecision" stroke-dasharray="0,4" stroke="white" stroke-miterlimit="1.45">
      <rect x="406.6692" width="99.1328" height="23.6016" y="742.7449" clip-path="url(#clipPath2)" stroke="none"/>
    </g>
    <g stroke-linecap="butt" font-size="16px" transform="matrix(1,0,0,1,1,-153)" fill="green" text-rendering="geometricPrecision" font-family="sans-serif" shape-rendering="geometricPrecision" stroke="green" stroke-miterlimit="1.45">
      <text x="408.6692" xml:space="preserve" y="760.8308" clip-path="url(#clipPath2)" stroke="none">prism:volume</text>
    </g>
    <g stroke-linecap="round" transform="matrix(1,0,0,1,1,-153)" stroke-dashoffset="2" fill="green" text-rendering="geometricPrecision" shape-rendering="geometricPrecision" stroke-dasharray="0,4" stroke="green" stroke-miterlimit="1.45">
      <path fill="none" d="M268.869 779.7817 L665.5 779.7817 L666.5 497.6667 L535.5 497.6667 L535.5 250.6667 L484.4575 250.6667" clip-path="url(#clipPath2)"/>
    </g>
    <g stroke-linecap="round" transform="matrix(1,0,0,1,1,-153)" fill-opacity="0" stroke-dashoffset="2" fill="rgb(0,0,0)" text-rendering="geometricPrecision" shape-rendering="geometricPrecision" stroke-dasharray="0,4" stroke="rgb(0,0,0)" stroke-opacity="0" stroke-miterlimit="1.45">
      <path d="M260.869 779.7817 C260.869 777.5725 262.6599 775.7817 264.869 775.7817 C267.0782 775.7817 268.869 777.5725 268.869 779.7817 C268.869 781.9908 267.0782 783.7817 264.869 783.7817 C262.6599 783.7817 260.869 781.9908 260.869 779.7817 Z" stroke="none" clip-path="url(#clipPath2)"/>
    </g>
    <g stroke-linecap="butt" transform="matrix(1,0,0,1,1,-153)" fill="green" text-rendering="geometricPrecision" shape-rendering="geometricPrecision" stroke="green" stroke-miterlimit="1.45">
      <path fill="none" d="M260.869 779.7817 C260.869 777.5725 262.6599 775.7817 264.869 775.7817 C267.0782 775.7817 268.869 777.5725 268.869 779.7817 C268.869 781.9908 267.0782 783.7817 264.869 783.7817 C262.6599 783.7817 260.869 781.9908 260.869 779.7817 Z" clip-path="url(#clipPath2)"/>
    </g>
    <g stroke-linecap="round" transform="matrix(1,0,0,1,1,-153)" stroke-dashoffset="2" fill="white" text-rendering="geometricPrecision" shape-rendering="geometricPrecision" stroke-dasharray="0,4" stroke="white" stroke-miterlimit="1.45">
      <path d="M469.4575 250.6667 L485.4575 256.6667 L485.4575 244.6667 Z" stroke="none" clip-path="url(#clipPath2)"/>
    </g>
    <g stroke-linecap="butt" transform="matrix(1,0,0,1,1,-153)" fill="green" text-rendering="geometricPrecision" shape-rendering="geometricPrecision" stroke="green" stroke-miterlimit="1.45">
      <path fill="none" d="M469.4575 250.6667 L485.4575 256.6667 L485.4575 244.6667 Z" clip-path="url(#clipPath2)"/>
    </g>
    <g stroke-linecap="round" transform="matrix(1,0,0,1,1,-153)" stroke-dashoffset="2" fill="white" text-rendering="geometricPrecision" shape-rendering="geometricPrecision" stroke-dasharray="0,4" stroke="white" stroke-miterlimit="1.45">
      <rect x="413.9387" width="111.5938" height="23.6016" y="767.9809" clip-path="url(#clipPath2)" stroke="none"/>
    </g>
    <g stroke-linecap="butt" font-size="16px" transform="matrix(1,0,0,1,1,-153)" fill="green" text-rendering="geometricPrecision" font-family="sans-serif" shape-rendering="geometricPrecision" stroke="green" stroke-miterlimit="1.45">
      <text x="415.9388" xml:space="preserve" y="786.0668" clip-path="url(#clipPath2)" stroke="none">dcterms:issued</text>
    </g>
    <g stroke-linecap="round" transform="matrix(1,0,0,1,1,-153)" stroke-dashoffset="2" fill="navy" text-rendering="geometricPrecision" shape-rendering="geometricPrecision" stroke-dasharray="0,4" stroke="navy" stroke-miterlimit="1.45">
      <path fill="none" d="M182.8701 740.9834 L182.8701 692.0416" clip-path="url(#clipPath2)"/>
      <path d="M182.8701 748.9834 C180.6609 748.9834 178.8701 747.1926 178.8701 744.9834 C178.8701 742.7742 180.6609 740.9834 182.8701 740.9834 C185.0792 740.9834 186.8701 742.7742 186.8701 744.9834 C186.8701 747.1926 185.0792 748.9834 182.8701 748.9834 Z" clip-path="url(#clipPath2)" stroke="none"/>
      <path d="M182.8701 681.0416 L176.8701 693.0416 L188.8701 693.0416 Z" clip-path="url(#clipPath2)" stroke="none"/>
      <rect x="144.4169" y="701.1992" clip-path="url(#clipPath2)" fill="white" width="76.9062" height="23.6016" stroke="none"/>
    </g>
    <g stroke-linecap="butt" font-size="16px" transform="matrix(1,0,0,1,1,-153)" fill="navy" text-rendering="geometricPrecision" font-family="sans-serif" shape-rendering="geometricPrecision" stroke="navy" stroke-miterlimit="1.45">
      <text x="146.4169" xml:space="preserve" y="719.2852" clip-path="url(#clipPath2)" stroke="none">frbr:partOf</text>
    </g>
    <g stroke-linecap="round" transform="matrix(1,0,0,1,1,-153)" stroke-dashoffset="2" fill="navy" text-rendering="geometricPrecision" shape-rendering="geometricPrecision" stroke-dasharray="0,4" stroke="navy" stroke-miterlimit="1.45">
      <path fill="none" d="M243.3733 659 L542.5236 659 L542.5236 659 L542.5236 617.0093" clip-path="url(#clipPath2)"/>
      <path d="M235.3733 659 C235.3733 656.7908 237.1641 655 239.3733 655 C241.5824 655 243.3733 656.7908 243.3733 659 C243.3733 661.2092 241.5824 663 239.3733 663 C237.1641 663 235.3733 661.2092 235.3733 659 Z" clip-path="url(#clipPath2)" stroke="none"/>
      <path d="M542.5236 606.0093 L536.5236 618.0093 L548.5236 618.0093 Z" clip-path="url(#clipPath2)" stroke="none"/>
      <rect x="296.1224" y="647.1992" clip-path="url(#clipPath2)" fill="white" width="198.75" height="23.6016" stroke="none"/>
    </g>
    <g stroke-linecap="butt" font-size="16px" transform="matrix(1,0,0,1,1,-153)" fill="navy" text-rendering="geometricPrecision" font-family="sans-serif" shape-rendering="geometricPrecision" stroke="navy" stroke-miterlimit="1.45">
      <text x="298.1224" xml:space="preserve" y="665.2852" clip-path="url(#clipPath2)" stroke="none">pro:isRelatedToRoleInTime</text>
    </g>
  </g>
</svg>
