<?xml version="1.0" encoding="UTF-8"?><svg xmlns="http://www.w3.org/2000/svg" xmlns:xlink="http://www.w3.org/1999/xlink" fill-opacity="1" color-rendering="auto" color-interpolation="auto" text-rendering="auto" stroke="black" stroke-linecap="square" width="317" stroke-miterlimit="10" shape-rendering="auto" stroke-opacity="1" fill="black" stroke-dasharray="none" font-weight="normal" stroke-width="1" height="453" font-family="'Dialog'" font-style="normal" stroke-linejoin="miter" font-size="12px" stroke-dashoffset="0" image-rendering="auto">
  <!--Generated by ySVG 2.5-->
  <defs id="genericDefs"/>
  <g>
    <defs id="defs1">
      <clipPath clipPathUnits="userSpaceOnUse" id="clipPath1">
        <path d="M0 0 L317 0 L317 453 L0 453 L0 0 Z"/>
      </clipPath>
      <clipPath clipPathUnits="userSpaceOnUse" id="clipPath2">
        <path d="M289 90 L606 90 L606 543 L289 543 L289 90 Z"/>
      </clipPath>
    </defs>
    <g fill="white" text-rendering="geometricPrecision" shape-rendering="geometricPrecision" transform="translate(-289,-90)" stroke="white">
      <rect x="289" width="317" height="453" y="90" clip-path="url(#clipPath2)" stroke="none"/>
    </g>
    <g fill="rgb(255,255,153)" text-rendering="geometricPrecision" shape-rendering="geometricPrecision" transform="matrix(1,0,0,1,-289,-90)" stroke="rgb(255,255,153)">
      <rect x="375.0318" y="105" clip-path="url(#clipPath2)" width="97.9682" rx="4" ry="4" height="44" stroke="none"/>
    </g>
    <g font-size="16px" stroke-linecap="butt" transform="matrix(1,0,0,1,-289,-90)" text-rendering="geometricPrecision" font-family="sans-serif" shape-rendering="geometricPrecision" stroke-miterlimit="1.45">
      <text x="383.9886" xml:space="preserve" y="133.2852" clip-path="url(#clipPath2)" stroke="none">fabio:Letter</text>
      <rect x="375.0318" y="105" clip-path="url(#clipPath2)" fill="none" width="97.9682" stroke-dasharray="6,2" rx="4" ry="4" height="44"/>
    </g>
    <g fill="yellow" text-rendering="geometricPrecision" shape-rendering="geometricPrecision" transform="matrix(1,0,0,1,-289,-90)" stroke="yellow">
      <rect x="359.5318" y="243" clip-path="url(#clipPath2)" width="128.9682" rx="4" ry="4" height="44" stroke="none"/>
    </g>
    <g font-size="16px" stroke-linecap="butt" transform="matrix(1,0,0,1,-289,-90)" text-rendering="geometricPrecision" font-family="sans-serif" shape-rendering="geometricPrecision" stroke-miterlimit="1.45">
      <text x="372.8675" xml:space="preserve" y="271.2852" clip-path="url(#clipPath2)" stroke="none">doco:Footnote</text>
      <rect x="359.5318" y="243" clip-path="url(#clipPath2)" fill="none" width="128.9682" rx="4" ry="4" height="44"/>
    </g>
    <g fill="rgb(204,255,204)" text-rendering="geometricPrecision" shape-rendering="geometricPrecision" transform="matrix(1,0,0,1,-289,-90)" stroke="rgb(204,255,204)">
      <path d="M476.562 485 L590.0475 485 L577.438 528 L463.9525 528 Z" fill-rule="evenodd" clip-path="url(#clipPath2)" stroke="none"/>
    </g>
    <g font-size="16px" stroke-linecap="butt" transform="matrix(1,0,0,1,-289,-90)" text-rendering="geometricPrecision" font-family="sans-serif" shape-rendering="geometricPrecision" stroke-miterlimit="1.45">
      <text x="489.6523" xml:space="preserve" y="512.7852" clip-path="url(#clipPath2)" stroke="none">rdfs:Literal</text>
      <path fill="none" d="M476.562 485 L590.0475 485 L577.438 528 L463.9525 528 Z" fill-rule="evenodd" clip-path="url(#clipPath2)"/>
    </g>
    <g fill="yellow" text-rendering="geometricPrecision" shape-rendering="geometricPrecision" transform="matrix(1,0,0,1,-289,-90)" stroke="yellow">
      <rect x="310.343" y="356" clip-path="url(#clipPath2)" width="128.9682" rx="4" ry="4" height="44" stroke="none"/>
    </g>
    <g font-size="16px" stroke-linecap="butt" transform="matrix(1,0,0,1,-289,-90)" text-rendering="geometricPrecision" font-family="sans-serif" shape-rendering="geometricPrecision" stroke-miterlimit="1.45">
      <text x="322.3467" xml:space="preserve" y="384.2852" clip-path="url(#clipPath2)" stroke="none">deo:Reference</text>
      <rect x="310.343" y="356" clip-path="url(#clipPath2)" fill="none" width="128.9682" rx="4" ry="4" height="44"/>
    </g>
    <g fill="yellow" text-rendering="geometricPrecision" shape-rendering="geometricPrecision" transform="matrix(1,0,0,1,-289,-90)" stroke="yellow">
      <rect x="325.843" y="484" clip-path="url(#clipPath2)" width="97.9682" rx="4" ry="4" height="44" stroke="none"/>
    </g>
    <g font-size="16px" stroke-linecap="butt" transform="matrix(1,0,0,1,-289,-90)" text-rendering="geometricPrecision" font-family="sans-serif" shape-rendering="geometricPrecision" stroke-miterlimit="1.45">
      <text x="341.9404" xml:space="preserve" y="512.2852" clip-path="url(#clipPath2)" stroke="none">frbr:Work</text>
      <rect x="325.843" y="484" clip-path="url(#clipPath2)" fill="none" width="97.9682" rx="4" ry="4" height="44"/>
    </g>
    <g stroke-linecap="round" transform="matrix(1,0,0,1,-289,-90)" stroke-dashoffset="2" fill="navy" text-rendering="geometricPrecision" shape-rendering="geometricPrecision" stroke-dasharray="0,4" stroke="navy" stroke-miterlimit="1.45">
      <path fill="none" d="M424.0159 153.0005 L424.0159 231.9952" clip-path="url(#clipPath2)"/>
      <path d="M424.0159 145.0005 C426.225 145.0005 428.0159 146.7914 428.0159 149.0005 C428.0159 151.2096 426.225 153.0005 424.0159 153.0005 C421.8068 153.0005 420.0159 151.2096 420.0159 149.0005 C420.0159 146.7914 421.8068 145.0005 424.0159 145.0005 Z" clip-path="url(#clipPath2)" stroke="none"/>
      <path d="M424.0159 242.9952 L430.0159 230.9952 L418.0159 230.9952 Z" clip-path="url(#clipPath2)" stroke="none"/>
      <rect x="364.219" y="184.1992" clip-path="url(#clipPath2)" fill="white" width="119.5938" height="23.6016" stroke="none"/>
    </g>
    <g stroke-linecap="butt" font-size="16px" transform="matrix(1,0,0,1,-289,-90)" fill="navy" text-rendering="geometricPrecision" font-family="sans-serif" shape-rendering="geometricPrecision" stroke="navy" stroke-miterlimit="1.45">
      <text x="366.219" xml:space="preserve" y="202.2852" clip-path="url(#clipPath2)" stroke="none">frbr:complement</text>
    </g>
    <g stroke-linecap="round" transform="matrix(1,0,0,1,-289,-90)" stroke-dashoffset="2" fill="green" text-rendering="geometricPrecision" shape-rendering="geometricPrecision" stroke-dasharray="0,4" stroke="green" stroke-miterlimit="1.45">
      <path fill="none" d="M492.5361 265 L527 265 L527 470.0091" clip-path="url(#clipPath2)"/>
    </g>
    <g stroke-linecap="round" transform="matrix(1,0,0,1,-289,-90)" fill-opacity="0" stroke-dashoffset="2" fill="rgb(0,0,0)" text-rendering="geometricPrecision" shape-rendering="geometricPrecision" stroke-dasharray="0,4" stroke="rgb(0,0,0)" stroke-opacity="0" stroke-miterlimit="1.45">
      <path d="M484.5361 265 C484.5361 262.7909 486.3269 261 488.5361 261 C490.7452 261 492.5361 262.7909 492.5361 265 C492.5361 267.2091 490.7452 269 488.5361 269 C486.3269 269 484.5361 267.2091 484.5361 265 Z" stroke="none" clip-path="url(#clipPath2)"/>
    </g>
    <g stroke-linecap="butt" transform="matrix(1,0,0,1,-289,-90)" fill="green" text-rendering="geometricPrecision" shape-rendering="geometricPrecision" stroke="green" stroke-miterlimit="1.45">
      <path fill="none" d="M484.5361 265 C484.5361 262.7909 486.3269 261 488.5361 261 C490.7452 261 492.5361 262.7909 492.5361 265 C492.5361 267.2091 490.7452 269 488.5361 269 C486.3269 269 484.5361 267.2091 484.5361 265 Z" clip-path="url(#clipPath2)"/>
    </g>
    <g stroke-linecap="round" transform="matrix(1,0,0,1,-289,-90)" stroke-dashoffset="2" fill="white" text-rendering="geometricPrecision" shape-rendering="geometricPrecision" stroke-dasharray="0,4" stroke="white" stroke-miterlimit="1.45">
      <path d="M527 485.0091 L533 469.0091 L521 469.0091 Z" stroke="none" clip-path="url(#clipPath2)"/>
    </g>
    <g stroke-linecap="butt" transform="matrix(1,0,0,1,-289,-90)" fill="green" text-rendering="geometricPrecision" shape-rendering="geometricPrecision" stroke="green" stroke-miterlimit="1.45">
      <path fill="none" d="M527 485.0091 L533 469.0091 L521 469.0091 Z" clip-path="url(#clipPath2)"/>
    </g>
    <g stroke-linecap="round" transform="matrix(1,0,0,1,-289,-90)" stroke-dashoffset="2" fill="white" text-rendering="geometricPrecision" shape-rendering="geometricPrecision" stroke-dasharray="0,4" stroke="white" stroke-miterlimit="1.45">
      <rect x="468.9609" width="116.0781" height="43.2031" y="348.8359" clip-path="url(#clipPath2)" stroke="none"/>
    </g>
    <g stroke-linecap="butt" font-size="16px" transform="matrix(1,0,0,1,-289,-90)" fill="green" text-rendering="geometricPrecision" font-family="sans-serif" shape-rendering="geometricPrecision" stroke="green" stroke-miterlimit="1.45">
      <text x="483.8789" xml:space="preserve" y="366.9219" clip-path="url(#clipPath2)" stroke="none">dcterms:title</text>
      <text x="470.9609" xml:space="preserve" y="386.5234" clip-path="url(#clipPath2)" stroke="none">c4o:hasContent</text>
    </g>
    <g stroke-linecap="round" transform="matrix(1,0,0,1,-289,-90)" stroke-dashoffset="2" fill="navy" text-rendering="geometricPrecision" shape-rendering="geometricPrecision" stroke-dasharray="0,4" stroke="navy" stroke-miterlimit="1.45">
      <path fill="none" d="M374.8271 291.0237 L374.8271 345.0111" clip-path="url(#clipPath2)"/>
      <path d="M374.8271 283.0237 C377.0363 283.0237 378.8271 284.8145 378.8271 287.0237 C378.8271 289.2328 377.0363 291.0237 374.8271 291.0237 C372.618 291.0237 370.8271 289.2328 370.8271 287.0237 C370.8271 284.8145 372.618 283.0237 374.8271 283.0237 Z" clip-path="url(#clipPath2)" stroke="none"/>
      <path d="M374.8271 356.0111 L380.8271 344.0111 L368.8271 344.0111 Z" clip-path="url(#clipPath2)" stroke="none"/>
      <rect x="331.9092" y="309.6992" clip-path="url(#clipPath2)" fill="white" width="85.8359" height="23.6016" stroke="none"/>
    </g>
    <g stroke-linecap="butt" font-size="16px" transform="matrix(1,0,0,1,-289,-90)" fill="navy" text-rendering="geometricPrecision" font-family="sans-serif" shape-rendering="geometricPrecision" stroke="navy" stroke-miterlimit="1.45">
      <text x="333.9092" xml:space="preserve" y="327.7852" clip-path="url(#clipPath2)" stroke="none">po:contains</text>
    </g>
    <g stroke-linecap="round" transform="matrix(1,0,0,1,-289,-90)" stroke-dashoffset="2" fill="navy" text-rendering="geometricPrecision" shape-rendering="geometricPrecision" stroke-dasharray="0,4" stroke="navy" stroke-miterlimit="1.45">
      <path fill="none" d="M374.8271 403.9688 L374.8271 473.0223" clip-path="url(#clipPath2)"/>
      <path d="M374.8271 395.9688 C377.0363 395.9688 378.8271 397.7596 378.8271 399.9688 C378.8271 402.1779 377.0363 403.9688 374.8271 403.9688 C372.618 403.9688 370.8271 402.1779 370.8271 399.9688 C370.8271 397.7596 372.618 395.9688 374.8271 395.9688 Z" clip-path="url(#clipPath2)" stroke="none"/>
      <path d="M374.8271 484.0223 L380.8271 472.0223 L368.8271 472.0223 Z" clip-path="url(#clipPath2)" stroke="none"/>
      <rect x="304.3584" y="430.1992" clip-path="url(#clipPath2)" fill="white" width="140.9375" height="23.6016" stroke="none"/>
    </g>
    <g stroke-linecap="butt" font-size="16px" transform="matrix(1,0,0,1,-289,-90)" fill="navy" text-rendering="geometricPrecision" font-family="sans-serif" shape-rendering="geometricPrecision" stroke="navy" stroke-miterlimit="1.45">
      <text x="306.3584" xml:space="preserve" y="448.2852" clip-path="url(#clipPath2)" stroke="none">dcterms:references</text>
    </g>
  </g>
</svg>
