<?xml version="1.0" encoding="UTF-8"?><svg xmlns="http://www.w3.org/2000/svg" xmlns:xlink="http://www.w3.org/1999/xlink" fill-opacity="1" color-rendering="auto" color-interpolation="auto" text-rendering="auto" stroke="black" stroke-linecap="square" width="509" stroke-miterlimit="10" shape-rendering="auto" stroke-opacity="1" fill="black" stroke-dasharray="none" font-weight="normal" stroke-width="1" height="355" font-family="'Dialog'" font-style="normal" stroke-linejoin="miter" font-size="12px" stroke-dashoffset="0" image-rendering="auto">
  <!--Generated by ySVG 2.5-->
  <defs id="genericDefs"/>
  <g>
    <defs id="defs1">
      <clipPath clipPathUnits="userSpaceOnUse" id="clipPath1">
        <path d="M0 0 L509 0 L509 355 L0 355 L0 0 Z"/>
      </clipPath>
      <clipPath clipPathUnits="userSpaceOnUse" id="clipPath2">
        <path d="M212 65 L721 65 L721 420 L212 420 L212 65 Z"/>
      </clipPath>
    </defs>
    <g fill="white" text-rendering="geometricPrecision" shape-rendering="geometricPrecision" transform="translate(-212,-65)" stroke="white">
      <rect x="212" width="509" height="355" y="65" clip-path="url(#clipPath2)" stroke="none"/>
    </g>
    <g fill="yellow" text-rendering="geometricPrecision" shape-rendering="geometricPrecision" transform="matrix(1,0,0,1,-212,-65)" stroke="yellow">
      <rect x="227.0159" y="155" clip-path="url(#clipPath2)" width="154.9682" rx="4" ry="4" height="44" stroke="none"/>
    </g>
    <g font-size="16px" stroke-linecap="butt" transform="matrix(1,0,0,1,-212,-65)" text-rendering="geometricPrecision" font-family="sans-serif" shape-rendering="geometricPrecision" stroke-miterlimit="1.45">
      <text x="243.1328" xml:space="preserve" y="183.2852" clip-path="url(#clipPath2)" stroke="none">san:conservatore</text>
      <rect x="227.0159" y="155" clip-path="url(#clipPath2)" fill="none" width="154.9682" rx="4" ry="4" height="44"/>
    </g>
    <g fill="yellow" text-rendering="geometricPrecision" shape-rendering="geometricPrecision" transform="matrix(1,0,0,1,-212,-65)" stroke="yellow">
      <rect x="502.0318" y="230" clip-path="url(#clipPath2)" width="203.9682" rx="4" ry="4" height="44" stroke="none"/>
    </g>
    <g font-size="16px" stroke-linecap="butt" transform="matrix(1,0,0,1,-212,-65)" text-rendering="geometricPrecision" font-family="sans-serif" shape-rendering="geometricPrecision" stroke-miterlimit="1.45">
      <text x="510.2034" xml:space="preserve" y="258.2852" clip-path="url(#clipPath2)" stroke="none">san:complessoArchivistico</text>
      <rect x="502.0318" y="230" clip-path="url(#clipPath2)" fill="none" width="203.9682" rx="4" ry="4" height="44"/>
    </g>
    <g fill="yellow" text-rendering="geometricPrecision" shape-rendering="geometricPrecision" transform="matrix(1,0,0,1,-212,-65)" stroke="yellow">
      <rect x="563.0318" y="80" clip-path="url(#clipPath2)" width="81.9682" rx="4" ry="4" height="44" stroke="none"/>
    </g>
    <g font-size="16px" stroke-linecap="butt" transform="matrix(1,0,0,1,-212,-65)" text-rendering="geometricPrecision" font-family="sans-serif" shape-rendering="geometricPrecision" stroke-miterlimit="1.45">
      <text x="571.1057" xml:space="preserve" y="108.2852" clip-path="url(#clipPath2)" stroke="none">bio:Place</text>
      <rect x="563.0318" y="80" clip-path="url(#clipPath2)" fill="none" width="81.9682" rx="4" ry="4" height="44"/>
    </g>
    <g fill="yellow" text-rendering="geometricPrecision" shape-rendering="geometricPrecision" transform="matrix(1,0,0,1,-212,-65)" stroke="yellow">
      <rect x="536.5318" y="360.5" clip-path="url(#clipPath2)" width="134.9682" rx="4" ry="4" height="44" stroke="none"/>
    </g>
    <g font-size="16px" stroke-linecap="butt" transform="matrix(1,0,0,1,-212,-65)" text-rendering="geometricPrecision" font-family="sans-serif" shape-rendering="geometricPrecision" stroke-miterlimit="1.45">
      <text x="543.9768" xml:space="preserve" y="388.7852" clip-path="url(#clipPath2)" stroke="none">fabio:AnalogItem</text>
      <rect x="536.5318" y="360.5" clip-path="url(#clipPath2)" fill="none" width="134.9682" rx="4" ry="4" height="44"/>
    </g>
    <g stroke-linecap="butt" transform="matrix(1,0,0,1,-212,-65)" fill="navy" text-rendering="geometricPrecision" shape-rendering="geometricPrecision" stroke="navy" stroke-miterlimit="1.45">
      <path fill="none" d="M304.5 203.0093 L304.5 252 L491.0445 252" clip-path="url(#clipPath2)"/>
      <path d="M304.5 195.0093 C306.7091 195.0093 308.5 196.8001 308.5 199.0093 C308.5 201.2184 306.7091 203.0093 304.5 203.0093 C302.2909 203.0093 300.5 201.2184 300.5 199.0093 C300.5 196.8001 302.2909 195.0093 304.5 195.0093 Z" clip-path="url(#clipPath2)" stroke="none"/>
      <path d="M502.0445 252 L490.0445 246 L490.0445 258 Z" clip-path="url(#clipPath2)" stroke="none"/>
      <rect x="319.3362" y="240.1992" clip-path="url(#clipPath2)" fill="white" width="158.7344" height="23.6016" stroke="none"/>
      <text x="321.3362" font-size="16px" y="258.2852" clip-path="url(#clipPath2)" font-family="sans-serif" stroke="none" xml:space="preserve">san:isConservatoreOf</text>
      <path fill="none" stroke-dasharray="0,4" d="M304.5 150.9907 L304.5 102 L552.0299 102" stroke-dashoffset="2" clip-path="url(#clipPath2)" stroke-linecap="round"/>
      <path stroke-dasharray="0,4" d="M304.5 158.9907 C302.2909 158.9907 300.5 157.1999 300.5 154.9907 C300.5 152.7816 302.2909 150.9907 304.5 150.9907 C306.7091 150.9907 308.5 152.7816 308.5 154.9907 C308.5 157.1999 306.7091 158.9907 304.5 158.9907 Z" stroke-dashoffset="2" clip-path="url(#clipPath2)" stroke-linecap="round" stroke="none"/>
      <path stroke-dasharray="0,4" d="M563.0299 102 L551.0299 96 L551.0299 108 Z" stroke-dashoffset="2" clip-path="url(#clipPath2)" stroke-linecap="round" stroke="none"/>
    </g>
    <g stroke-linecap="round" transform="matrix(1,0,0,1,-212,-65)" stroke-dashoffset="2" fill="white" text-rendering="geometricPrecision" shape-rendering="geometricPrecision" stroke-dasharray="0,4" stroke="white" stroke-miterlimit="1.45">
      <rect x="327.137" width="204.1328" height="23.6016" y="90.1992" clip-path="url(#clipPath2)" stroke="none"/>
    </g>
    <g stroke-linecap="butt" font-size="16px" transform="matrix(1,0,0,1,-212,-65)" fill="navy" text-rendering="geometricPrecision" font-family="sans-serif" shape-rendering="geometricPrecision" stroke="navy" stroke-miterlimit="1.45">
      <text x="329.137" xml:space="preserve" y="108.2852" clip-path="url(#clipPath2)" stroke="none">san:has_luogoConservatore</text>
    </g>
    <g stroke-linecap="round" transform="matrix(1,0,0,1,-212,-65)" stroke-dashoffset="2" fill="navy" text-rendering="geometricPrecision" shape-rendering="geometricPrecision" stroke-dasharray="0,4" stroke="navy" stroke-miterlimit="1.45">
      <path fill="none" d="M604.0159 278.0155 L604.0159 349.4906" clip-path="url(#clipPath2)"/>
      <path d="M604.0159 270.0155 C606.225 270.0155 608.0159 271.8064 608.0159 274.0155 C608.0159 276.2246 606.225 278.0155 604.0159 278.0155 C601.8067 278.0155 600.0159 276.2246 600.0159 274.0155 C600.0159 271.8064 601.8067 270.0155 604.0159 270.0155 Z" clip-path="url(#clipPath2)" stroke="none"/>
      <path d="M604.0159 360.4906 L610.0159 348.4906 L598.0159 348.4906 Z" clip-path="url(#clipPath2)" stroke="none"/>
      <rect x="574.0081" y="305.4492" clip-path="url(#clipPath2)" fill="white" width="60.0156" height="23.6016" stroke="none"/>
    </g>
    <g stroke-linecap="butt" font-size="16px" transform="matrix(1,0,0,1,-212,-65)" fill="navy" text-rendering="geometricPrecision" font-family="sans-serif" shape-rendering="geometricPrecision" stroke="navy" stroke-miterlimit="1.45">
      <text x="576.0081" xml:space="preserve" y="323.5352" clip-path="url(#clipPath2)" stroke="none">frbr:part</text>
    </g>
  </g>
</svg>
