<?xml version="1.0" encoding="UTF-8"?><svg xmlns="http://www.w3.org/2000/svg" xmlns:xlink="http://www.w3.org/1999/xlink" fill-opacity="1" color-rendering="auto" color-interpolation="auto" text-rendering="auto" stroke="black" stroke-linecap="square" width="699" stroke-miterlimit="10" shape-rendering="auto" stroke-opacity="1" fill="black" stroke-dasharray="none" font-weight="normal" stroke-width="1" height="584" font-family="'Dialog'" font-style="normal" stroke-linejoin="miter" font-size="12px" stroke-dashoffset="0" image-rendering="auto">
  <!--Generated by ySVG 2.5-->
  <defs id="genericDefs"/>
  <g>
    <defs id="defs1">
      <clipPath clipPathUnits="userSpaceOnUse" id="clipPath1">
        <path d="M0 0 L699 0 L699 584 L0 584 L0 0 Z"/>
      </clipPath>
      <clipPath clipPathUnits="userSpaceOnUse" id="clipPath2">
        <path d="M134 77 L833 77 L833 661 L134 661 L134 77 Z"/>
      </clipPath>
    </defs>
    <g fill="white" text-rendering="geometricPrecision" shape-rendering="geometricPrecision" transform="translate(-134,-77)" stroke="white">
      <rect x="134" width="699" height="584" y="77" clip-path="url(#clipPath2)" stroke="none"/>
    </g>
    <g fill="yellow" text-rendering="geometricPrecision" shape-rendering="geometricPrecision" transform="matrix(1,0,0,1,-134,-77)" stroke="yellow">
      <rect x="222.5318" y="92" clip-path="url(#clipPath2)" width="167.9682" rx="4" ry="4" height="44" stroke="none"/>
    </g>
    <g font-size="16px" stroke-linecap="butt" transform="matrix(1,0,0,1,-134,-77)" text-rendering="geometricPrecision" font-family="sans-serif" shape-rendering="geometricPrecision" stroke-miterlimit="1.45">
      <text x="233.1526" xml:space="preserve" y="120.2852" clip-path="url(#clipPath2)" stroke="none">fabio:WorkCollection</text>
      <rect x="222.5318" y="92" clip-path="url(#clipPath2)" fill="none" width="167.9682" rx="4" ry="4" height="44"/>
    </g>
    <g fill="yellow" text-rendering="geometricPrecision" shape-rendering="geometricPrecision" transform="matrix(1,0,0,1,-134,-77)" stroke="yellow">
      <rect x="252.5397" y="232" clip-path="url(#clipPath2)" width="107.9523" rx="4" ry="4" height="44" stroke="none"/>
    </g>
    <g font-size="16px" stroke-linecap="butt" transform="matrix(1,0,0,1,-134,-77)" text-rendering="geometricPrecision" font-family="sans-serif" shape-rendering="geometricPrecision" stroke-miterlimit="1.45">
      <text x="273.6292" xml:space="preserve" y="260.2852" clip-path="url(#clipPath2)" stroke="none">frbr:Work</text>
      <rect x="252.5397" y="232" clip-path="url(#clipPath2)" fill="none" width="107.9523" rx="4" ry="4" height="44"/>
    </g>
    <g fill="yellow" text-rendering="geometricPrecision" shape-rendering="geometricPrecision" transform="matrix(1,0,0,1,-134,-77)" stroke="yellow">
      <rect x="607.0318" y="232" clip-path="url(#clipPath2)" width="129.9682" rx="4" ry="4" height="44" stroke="none"/>
    </g>
    <g font-size="16px" stroke-linecap="butt" transform="matrix(1,0,0,1,-134,-77)" text-rendering="geometricPrecision" font-family="sans-serif" shape-rendering="geometricPrecision" stroke-miterlimit="1.45">
      <text x="631.9885" xml:space="preserve" y="260.2852" clip-path="url(#clipPath2)" stroke="none">fabio:Letter</text>
      <rect x="607.0318" y="232" clip-path="url(#clipPath2)" fill="none" width="129.9682" rx="4" ry="4" height="44"/>
    </g>
    <g fill="yellow" text-rendering="geometricPrecision" shape-rendering="geometricPrecision" transform="matrix(1,0,0,1,-134,-77)" stroke="yellow">
      <rect x="252.5397" y="372" clip-path="url(#clipPath2)" width="107.9523" rx="4" ry="4" height="44" stroke="none"/>
    </g>
    <g font-size="16px" stroke-linecap="butt" transform="matrix(1,0,0,1,-134,-77)" text-rendering="geometricPrecision" font-family="sans-serif" shape-rendering="geometricPrecision" stroke-miterlimit="1.45">
      <text x="276.7346" xml:space="preserve" y="400.2852" clip-path="url(#clipPath2)" stroke="none">frbr:Item</text>
      <rect x="252.5397" y="372" clip-path="url(#clipPath2)" fill="none" width="107.9523" rx="4" ry="4" height="44"/>
    </g>
    <g fill="yellow" text-rendering="geometricPrecision" shape-rendering="geometricPrecision" transform="matrix(1,0,0,1,-134,-77)" stroke="yellow">
      <rect x="238.5397" y="602" clip-path="url(#clipPath2)" width="135.9523" rx="4" ry="4" height="44" stroke="none"/>
    </g>
    <g font-size="16px" stroke-linecap="butt" transform="matrix(1,0,0,1,-134,-77)" text-rendering="geometricPrecision" font-family="sans-serif" shape-rendering="geometricPrecision" stroke-miterlimit="1.45">
      <text x="246.4768" xml:space="preserve" y="630.2852" clip-path="url(#clipPath2)" stroke="none">fabio:AnalogItem</text>
      <rect x="238.5397" y="602" clip-path="url(#clipPath2)" fill="none" width="135.9523" rx="4" ry="4" height="44"/>
    </g>
    <g fill="rgb(255,255,153)" text-rendering="geometricPrecision" shape-rendering="geometricPrecision" transform="matrix(1,0,0,1,-134,-77)" stroke="rgb(255,255,153)">
      <rect x="564.6905" y="602" clip-path="url(#clipPath2)" width="135.9523" rx="4" ry="4" height="44" stroke="none"/>
    </g>
    <g font-size="16px" stroke-linecap="butt" transform="matrix(1,0,0,1,-134,-77)" text-rendering="geometricPrecision" font-family="sans-serif" shape-rendering="geometricPrecision" stroke-miterlimit="1.45">
      <text x="577.9792" xml:space="preserve" y="630.2852" clip-path="url(#clipPath2)" stroke="none">pro:RoleInTime</text>
    </g>
    <g stroke-linecap="round" transform="matrix(1,0,0,1,-134,-77)" stroke-dashoffset="2" text-rendering="geometricPrecision" shape-rendering="geometricPrecision" stroke-dasharray="0,4" stroke-miterlimit="1.45">
      <rect x="564.6905" y="602" clip-path="url(#clipPath2)" fill="none" width="135.9523" rx="4" ry="4" height="44"/>
    </g>
    <g fill="yellow" text-rendering="geometricPrecision" shape-rendering="geometricPrecision" transform="matrix(1,0,0,1,-134,-77)" stroke="yellow">
      <rect x="577.6984" y="338" clip-path="url(#clipPath2)" width="198.6349" rx="4" ry="4" height="44" stroke="none"/>
    </g>
    <g font-size="16px" stroke-linecap="butt" transform="matrix(1,0,0,1,-134,-77)" text-rendering="geometricPrecision" font-family="sans-serif" shape-rendering="geometricPrecision" stroke-miterlimit="1.45">
      <text x="587.6331" xml:space="preserve" y="366.2852" clip-path="url(#clipPath2)" stroke="none">fabio:DigitalManifestation</text>
      <rect x="577.6984" y="338" clip-path="url(#clipPath2)" fill="none" width="198.6349" rx="4" ry="4" height="44"/>
    </g>
    <g fill="yellow" text-rendering="geometricPrecision" shape-rendering="geometricPrecision" transform="matrix(1,0,0,1,-134,-77)" stroke="yellow">
      <rect x="577.6984" y="403" clip-path="url(#clipPath2)" width="198.6349" rx="4" ry="4" height="44" stroke="none"/>
    </g>
    <g font-size="16px" stroke-linecap="butt" transform="matrix(1,0,0,1,-134,-77)" text-rendering="geometricPrecision" font-family="sans-serif" shape-rendering="geometricPrecision" stroke-miterlimit="1.45">
      <text x="584.9534" xml:space="preserve" y="431.2852" clip-path="url(#clipPath2)" stroke="none">fabio:AnalogManifestation</text>
      <rect x="577.6984" y="403" clip-path="url(#clipPath2)" fill="none" width="198.6349" rx="4" ry="4" height="44"/>
    </g>
    <g fill="rgb(204,255,204)" text-rendering="geometricPrecision" shape-rendering="geometricPrecision" transform="matrix(1,0,0,1,-134,-77)" stroke="rgb(204,255,204)">
      <path d="M582.2287 492.5 L695.7142 492.5 L683.1047 535.5 L569.6192 535.5 Z" fill-rule="evenodd" clip-path="url(#clipPath2)" stroke="none"/>
    </g>
    <g font-size="16px" stroke-linecap="butt" transform="matrix(1,0,0,1,-134,-77)" text-rendering="geometricPrecision" font-family="sans-serif" shape-rendering="geometricPrecision" stroke-miterlimit="1.45">
      <text x="595.319" xml:space="preserve" y="520.2852" clip-path="url(#clipPath2)" stroke="none">rdfs:Literal</text>
      <path fill="none" d="M582.2287 492.5 L695.7142 492.5 L683.1047 535.5 L569.6192 535.5 Z" fill-rule="evenodd" clip-path="url(#clipPath2)"/>
    </g>
    <g stroke-linecap="round" transform="matrix(1,0,0,1,-134,-77)" stroke-dashoffset="2" fill="navy" text-rendering="geometricPrecision" shape-rendering="geometricPrecision" stroke-dasharray="0,4" stroke="navy" stroke-miterlimit="1.45">
      <path fill="none" d="M306.5159 139.9775 L306.5159 221.0149" clip-path="url(#clipPath2)"/>
      <path d="M306.5159 131.9775 C308.725 131.9775 310.5159 133.7684 310.5159 135.9775 C310.5159 138.1867 308.725 139.9775 306.5159 139.9775 C304.3068 139.9775 302.5159 138.1867 302.5159 135.9775 C302.5159 133.7684 304.3068 131.9775 306.5159 131.9775 Z" clip-path="url(#clipPath2)" stroke="none"/>
      <path d="M306.5159 232.0149 L312.5159 220.0149 L300.5159 220.0149 Z" clip-path="url(#clipPath2)" stroke="none"/>
      <rect x="276.5081" y="172.1992" clip-path="url(#clipPath2)" fill="white" width="60.0156" height="23.6016" stroke="none"/>
    </g>
    <g stroke-linecap="butt" font-size="16px" transform="matrix(1,0,0,1,-134,-77)" fill="navy" text-rendering="geometricPrecision" font-family="sans-serif" shape-rendering="geometricPrecision" stroke="navy" stroke-miterlimit="1.45">
      <text x="278.5081" xml:space="preserve" y="190.2852" clip-path="url(#clipPath2)" stroke="none">frbr:part</text>
    </g>
    <g stroke-linecap="round" transform="matrix(1,0,0,1,-134,-77)" stroke-dashoffset="2" fill="navy" text-rendering="geometricPrecision" shape-rendering="geometricPrecision" stroke-dasharray="0,4" stroke="navy" stroke-miterlimit="1.45">
      <path fill="none" d="M364.4575 254 L596.0192 254" clip-path="url(#clipPath2)"/>
      <path d="M356.4575 254 C356.4575 251.7909 358.2484 250 360.4575 250 C362.6666 250 364.4575 251.7909 364.4575 254 C364.4575 256.2091 362.6666 258 360.4575 258 C358.2484 258 356.4575 256.2091 356.4575 254 Z" clip-path="url(#clipPath2)" stroke="none"/>
      <path d="M607.0192 254 L595.0192 248 L595.0192 260 Z" clip-path="url(#clipPath2)" stroke="none"/>
      <rect x="431.0744" y="242.1992" clip-path="url(#clipPath2)" fill="white" width="105.375" height="23.6016" stroke="none"/>
    </g>
    <g stroke-linecap="butt" font-size="16px" transform="matrix(1,0,0,1,-134,-77)" fill="navy" text-rendering="geometricPrecision" font-family="sans-serif" shape-rendering="geometricPrecision" stroke="navy" stroke-miterlimit="1.45">
      <text x="433.0744" xml:space="preserve" y="260.2852" clip-path="url(#clipPath2)" stroke="none">frbr:realization</text>
    </g>
    <g stroke-linecap="round" transform="matrix(1,0,0,1,-134,-77)" stroke-dashoffset="2" fill="navy" text-rendering="geometricPrecision" shape-rendering="geometricPrecision" stroke-dasharray="0,4" stroke="navy" stroke-miterlimit="1.45">
      <path fill="none" d="M672.0159 227.9673 L672.0159 209.5 L346.8049 209.5 L346.8049 220.9579" clip-path="url(#clipPath2)"/>
      <path d="M672.0159 235.9673 C669.8067 235.9673 668.0159 234.1764 668.0159 231.9673 C668.0159 229.7581 669.8067 227.9673 672.0159 227.9673 C674.225 227.9673 676.0159 229.7581 676.0159 231.9673 C676.0159 234.1764 674.225 235.9673 672.0159 235.9673 Z" clip-path="url(#clipPath2)" stroke="none"/>
      <path d="M346.8049 231.9579 L352.8049 219.9579 L340.8049 219.9579 Z" clip-path="url(#clipPath2)" stroke="none"/>
      <rect x="459.3948" y="197.6992" clip-path="url(#clipPath2)" fill="white" width="100.0312" height="23.6016" stroke="none"/>
    </g>
    <g stroke-linecap="butt" font-size="16px" transform="matrix(1,0,0,1,-134,-77)" fill="navy" text-rendering="geometricPrecision" font-family="sans-serif" shape-rendering="geometricPrecision" stroke="navy" stroke-miterlimit="1.45">
      <text x="461.3948" xml:space="preserve" y="215.7852" clip-path="url(#clipPath2)" stroke="none">frbr:subjectOf</text>
    </g>
    <g stroke-linecap="round" transform="matrix(1,0,0,1,-134,-77)" stroke-dashoffset="2" fill="navy" text-rendering="geometricPrecision" shape-rendering="geometricPrecision" stroke-dasharray="0,4" stroke="navy" stroke-miterlimit="1.45">
      <path fill="none" d="M306.5159 279.9775 L306.5159 361.0149" clip-path="url(#clipPath2)"/>
      <path d="M306.5159 271.9775 C308.725 271.9775 310.5159 273.7684 310.5159 275.9775 C310.5159 278.1867 308.725 279.9775 306.5159 279.9775 C304.3068 279.9775 302.5159 278.1867 302.5159 275.9775 C302.5159 273.7684 304.3068 271.9775 306.5159 271.9775 Z" clip-path="url(#clipPath2)" stroke="none"/>
      <path d="M306.5159 372.0149 L312.5159 360.0149 L300.5159 360.0149 Z" clip-path="url(#clipPath2)" stroke="none"/>
      <rect x="240.0354" y="312.1992" clip-path="url(#clipPath2)" fill="white" width="132.9609" height="23.6016" stroke="none"/>
    </g>
    <g stroke-linecap="butt" font-size="16px" transform="matrix(1,0,0,1,-134,-77)" fill="navy" text-rendering="geometricPrecision" font-family="sans-serif" shape-rendering="geometricPrecision" stroke="navy" stroke-miterlimit="1.45">
      <text x="242.0354" xml:space="preserve" y="330.2852" clip-path="url(#clipPath2)" stroke="none">fabio:hasPortrayal</text>
    </g>
    <g stroke-linecap="round" transform="matrix(1,0,0,1,-134,-77)" stroke-dashoffset="2" fill="navy" text-rendering="geometricPrecision" shape-rendering="geometricPrecision" stroke-dasharray="0,4" stroke="navy" stroke-miterlimit="1.45">
      <path fill="none" d="M270 367.9922 L270 349 L199.5397 349 L199.5397 438 L273 438 L273 427.0332" clip-path="url(#clipPath2)"/>
      <path d="M270 375.9922 C267.7909 375.9922 266 374.2013 266 371.9922 C266 369.7831 267.7909 367.9922 270 367.9922 C272.2091 367.9922 274 369.7831 274 371.9922 C274 374.2013 272.2091 375.9922 270 375.9922 Z" clip-path="url(#clipPath2)" stroke="none"/>
      <path d="M273 416.0332 L267 428.0332 L279 428.0332 Z" clip-path="url(#clipPath2)" stroke="none"/>
      <rect x="149.9499" y="381.6992" clip-path="url(#clipPath2)" fill="white" width="99.1797" height="23.6016" stroke="none"/>
    </g>
    <g stroke-linecap="butt" font-size="16px" transform="matrix(1,0,0,1,-134,-77)" fill="navy" text-rendering="geometricPrecision" font-family="sans-serif" shape-rendering="geometricPrecision" stroke="navy" stroke-miterlimit="1.45">
      <text x="151.9499" xml:space="preserve" y="399.7852" clip-path="url(#clipPath2)" stroke="none">foaf:depiction</text>
    </g>
    <g stroke-linecap="round" transform="matrix(1,0,0,1,-134,-77)" stroke-dashoffset="2" fill="navy" text-rendering="geometricPrecision" shape-rendering="geometricPrecision" stroke-dasharray="0,4" stroke="navy" stroke-miterlimit="1.45">
      <path fill="none" d="M306.5159 419.9836 L306.5159 590.9846" clip-path="url(#clipPath2)"/>
      <path d="M306.5159 411.9836 C308.725 411.9836 310.5159 413.7745 310.5159 415.9836 C310.5159 418.1928 308.725 419.9836 306.5159 419.9836 C304.3068 419.9836 302.5159 418.1928 302.5159 415.9836 C302.5159 413.7745 304.3068 411.9836 306.5159 411.9836 Z" clip-path="url(#clipPath2)" stroke="none"/>
      <path d="M306.5159 601.9846 L312.5159 589.9846 L300.5159 589.9846 Z" clip-path="url(#clipPath2)" stroke="none"/>
      <rect x="268.0628" y="497.1992" clip-path="url(#clipPath2)" fill="white" width="76.9062" height="23.6016" stroke="none"/>
    </g>
    <g stroke-linecap="butt" font-size="16px" transform="matrix(1,0,0,1,-134,-77)" fill="navy" text-rendering="geometricPrecision" font-family="sans-serif" shape-rendering="geometricPrecision" stroke="navy" stroke-miterlimit="1.45">
      <text x="270.0628" xml:space="preserve" y="515.2852" clip-path="url(#clipPath2)" stroke="none">frbr:partOf</text>
    </g>
    <g stroke-linecap="round" transform="matrix(1,0,0,1,-134,-77)" stroke-dashoffset="2" fill="navy" text-rendering="geometricPrecision" shape-rendering="geometricPrecision" stroke-dasharray="0,4" stroke="navy" stroke-miterlimit="1.45">
      <path fill="none" d="M331.0228 420.0191 L331.0228 492 L352.7878 492 L352.7878 567 L632.6667 567 L632.6667 590.9849" clip-path="url(#clipPath2)"/>
      <path d="M331.0228 412.0191 C333.2319 412.0191 335.0228 413.81 335.0228 416.0191 C335.0228 418.2282 333.2319 420.0191 331.0228 420.0191 C328.8137 420.0191 327.0228 418.2282 327.0228 416.0191 C327.0228 413.81 328.8137 412.0191 331.0228 412.0191 Z" clip-path="url(#clipPath2)" stroke="none"/>
      <path d="M632.6667 601.9849 L638.6667 589.9849 L626.6667 589.9849 Z" clip-path="url(#clipPath2)" stroke="none"/>
      <rect x="393.3522" y="555.1992" clip-path="url(#clipPath2)" fill="white" width="198.75" height="23.6016" stroke="none"/>
    </g>
    <g stroke-linecap="butt" font-size="16px" transform="matrix(1,0,0,1,-134,-77)" fill="navy" text-rendering="geometricPrecision" font-family="sans-serif" shape-rendering="geometricPrecision" stroke="navy" stroke-miterlimit="1.45">
      <text x="395.3522" xml:space="preserve" y="573.2852" clip-path="url(#clipPath2)" stroke="none">pro:isRelatedToRoleInTime</text>
    </g>
    <g stroke-linecap="round" transform="matrix(1,0,0,1,-134,-77)" stroke-dashoffset="2" fill="navy" text-rendering="geometricPrecision" shape-rendering="geometricPrecision" stroke-dasharray="0,4" stroke="navy" stroke-miterlimit="1.45">
      <path fill="none" d="M672.0159 279.9639 L672.0159 305 L817.6667 305 L817.6667 360 L787.3643 360" clip-path="url(#clipPath2)"/>
      <path d="M672.0159 271.9639 C674.225 271.9639 676.0159 273.7547 676.0159 275.9639 C676.0159 278.173 674.225 279.9639 672.0159 279.9639 C669.8067 279.9639 668.0159 278.173 668.0159 275.9639 C668.0159 273.7547 669.8067 271.9639 672.0159 271.9639 Z" clip-path="url(#clipPath2)" stroke="none"/>
      <path d="M776.3643 360 L788.3643 366 L788.3643 354 Z" clip-path="url(#clipPath2)" stroke="none"/>
      <rect x="684.5952" y="293.1992" clip-path="url(#clipPath2)" fill="white" width="120.4922" height="23.6016" stroke="none"/>
    </g>
    <g stroke-linecap="butt" font-size="16px" transform="matrix(1,0,0,1,-134,-77)" fill="navy" text-rendering="geometricPrecision" font-family="sans-serif" shape-rendering="geometricPrecision" stroke="navy" stroke-miterlimit="1.45">
      <text x="686.5952" xml:space="preserve" y="311.2852" clip-path="url(#clipPath2)" stroke="none">frbr:embodiment</text>
    </g>
    <g stroke-linecap="round" transform="matrix(1,0,0,1,-134,-77)" stroke-dashoffset="2" fill="navy" text-rendering="geometricPrecision" shape-rendering="geometricPrecision" stroke-dasharray="0,4" stroke="navy" stroke-miterlimit="1.45">
      <path fill="none" d="M573.73 360 L542.6667 360 L542.6667 394 L371.5089 394" clip-path="url(#clipPath2)"/>
      <path d="M581.73 360 C581.73 362.2091 579.9391 364 577.73 364 C575.5208 364 573.73 362.2091 573.73 360 C573.73 357.7909 575.5208 356 577.73 356 C579.9391 356 581.73 357.7909 581.73 360 Z" clip-path="url(#clipPath2)" stroke="none"/>
      <path d="M360.5089 394 L372.5089 400 L372.5089 388 Z" clip-path="url(#clipPath2)" stroke="none"/>
      <rect x="407.0169" y="382.1992" clip-path="url(#clipPath2)" fill="white" width="98.25" height="23.6016" stroke="none"/>
    </g>
    <g stroke-linecap="butt" font-size="16px" transform="matrix(1,0,0,1,-134,-77)" fill="navy" text-rendering="geometricPrecision" font-family="sans-serif" shape-rendering="geometricPrecision" stroke="navy" stroke-miterlimit="1.45">
      <text x="409.0168" xml:space="preserve" y="400.2852" clip-path="url(#clipPath2)" stroke="none">frbr:exemplar</text>
    </g>
    <g stroke-linecap="round" transform="matrix(1,0,0,1,-134,-77)" stroke-dashoffset="2" fill="navy" text-rendering="geometricPrecision" shape-rendering="geometricPrecision" stroke-dasharray="0,4" stroke="navy" stroke-miterlimit="1.45">
      <path fill="none" d="M817.6667 359.7429 L817.6667 425 L787.3574 425" clip-path="url(#clipPath2)"/>
      <path d="M776.3574 425 L788.3574 431 L788.3574 419 Z" clip-path="url(#clipPath2)" stroke="none"/>
      <path fill="none" d="M573.73 425 L542.6667 425 L542.6667 394 L371.5089 394" clip-path="url(#clipPath2)"/>
      <path d="M581.73 425 C581.73 427.2091 579.9391 429 577.73 429 C575.5208 429 573.73 427.2091 573.73 425 C573.73 422.7909 575.5208 421 577.73 421 C579.9391 421 581.73 422.7909 581.73 425 Z" clip-path="url(#clipPath2)" stroke="none"/>
      <path d="M360.5089 394 L372.5089 400 L372.5089 388 Z" clip-path="url(#clipPath2)" stroke="none"/>
      <path fill="none" d="M348.8463 420.0105 L348.8463 472.6122 L389.6667 472.6122 L389.6667 514 L560.9212 514" clip-path="url(#clipPath2)" stroke="green"/>
    </g>
    <g stroke-linecap="round" transform="matrix(1,0,0,1,-134,-77)" fill-opacity="0" stroke-dashoffset="2" fill="rgb(0,0,0)" text-rendering="geometricPrecision" shape-rendering="geometricPrecision" stroke-dasharray="0,4" stroke="rgb(0,0,0)" stroke-opacity="0" stroke-miterlimit="1.45">
      <path d="M348.8463 412.0105 C351.0554 412.0105 352.8463 413.8014 352.8463 416.0105 C352.8463 418.2197 351.0554 420.0105 348.8463 420.0105 C346.6371 420.0105 344.8463 418.2197 344.8463 416.0105 C344.8463 413.8014 346.6371 412.0105 348.8463 412.0105 Z" stroke="none" clip-path="url(#clipPath2)"/>
    </g>
    <g stroke-linecap="butt" transform="matrix(1,0,0,1,-134,-77)" fill="green" text-rendering="geometricPrecision" shape-rendering="geometricPrecision" stroke="green" stroke-miterlimit="1.45">
      <path fill="none" d="M348.8463 412.0105 C351.0554 412.0105 352.8463 413.8014 352.8463 416.0105 C352.8463 418.2197 351.0554 420.0105 348.8463 420.0105 C346.6371 420.0105 344.8463 418.2197 344.8463 416.0105 C344.8463 413.8014 346.6371 412.0105 348.8463 412.0105 Z" clip-path="url(#clipPath2)"/>
    </g>
    <g stroke-linecap="round" transform="matrix(1,0,0,1,-134,-77)" stroke-dashoffset="2" fill="white" text-rendering="geometricPrecision" shape-rendering="geometricPrecision" stroke-dasharray="0,4" stroke="white" stroke-miterlimit="1.45">
      <path d="M575.9212 514 L559.9212 508 L559.9212 520 Z" stroke="none" clip-path="url(#clipPath2)"/>
    </g>
    <g stroke-linecap="butt" transform="matrix(1,0,0,1,-134,-77)" fill="green" text-rendering="geometricPrecision" shape-rendering="geometricPrecision" stroke="green" stroke-miterlimit="1.45">
      <path fill="none" d="M575.9212 514 L559.9212 508 L559.9212 520 Z" clip-path="url(#clipPath2)"/>
    </g>
    <g stroke-linecap="round" transform="matrix(1,0,0,1,-134,-77)" stroke-dashoffset="2" fill="white" text-rendering="geometricPrecision" shape-rendering="geometricPrecision" stroke-dasharray="0,4" stroke="white" stroke-miterlimit="1.45">
      <rect x="412.1703" width="125.8203" height="23.6016" y="502.1992" clip-path="url(#clipPath2)" stroke="none"/>
    </g>
    <g stroke-linecap="butt" font-size="16px" transform="matrix(1,0,0,1,-134,-77)" fill="green" text-rendering="geometricPrecision" font-family="sans-serif" shape-rendering="geometricPrecision" stroke="green" stroke-miterlimit="1.45">
      <text x="414.1703" xml:space="preserve" y="520.2852" clip-path="url(#clipPath2)" stroke="none">dcterms:identifier</text>
    </g>
  </g>
</svg>
