<?xml version="1.0" encoding="UTF-8"?><svg xmlns="http://www.w3.org/2000/svg" xmlns:xlink="http://www.w3.org/1999/xlink" fill-opacity="1" color-rendering="auto" color-interpolation="auto" text-rendering="auto" stroke="black" stroke-linecap="square" width="450" stroke-miterlimit="10" shape-rendering="auto" stroke-opacity="1" fill="black" stroke-dasharray="none" font-weight="normal" stroke-width="1" height="549" font-family="'Dialog'" font-style="normal" stroke-linejoin="miter" font-size="12px" stroke-dashoffset="0" image-rendering="auto">
  <!--Generated by ySVG 2.5-->
  <defs id="genericDefs"/>
  <g>
    <defs id="defs1">
      <clipPath clipPathUnits="userSpaceOnUse" id="clipPath1">
        <path d="M0 0 L450 0 L450 549 L0 549 L0 0 Z"/>
      </clipPath>
      <clipPath clipPathUnits="userSpaceOnUse" id="clipPath2">
        <path d="M66 153 L516 153 L516 702 L66 702 L66 153 Z"/>
      </clipPath>
    </defs>
    <g fill="white" text-rendering="geometricPrecision" shape-rendering="geometricPrecision" transform="translate(-66,-153)" stroke="white">
      <rect x="66" width="450" height="549" y="153" clip-path="url(#clipPath2)" stroke="none"/>
    </g>
    <g fill="yellow" text-rendering="geometricPrecision" shape-rendering="geometricPrecision" transform="matrix(1,0,0,1,-66,-153)" stroke="yellow">
      <rect x="93.0794" y="243" clip-path="url(#clipPath2)" width="107.9523" rx="4" ry="4" height="44" stroke="none"/>
    </g>
    <g font-size="16px" stroke-linecap="butt" transform="matrix(1,0,0,1,-66,-153)" text-rendering="geometricPrecision" font-family="sans-serif" shape-rendering="geometricPrecision" stroke-miterlimit="1.45">
      <text x="114.1689" xml:space="preserve" y="271.2852" clip-path="url(#clipPath2)" stroke="none">frbr:Work</text>
      <rect x="93.0794" y="243" clip-path="url(#clipPath2)" fill="none" width="107.9523" rx="4" ry="4" height="44"/>
    </g>
    <g fill="yellow" text-rendering="geometricPrecision" shape-rendering="geometricPrecision" transform="matrix(1,0,0,1,-66,-153)" stroke="yellow">
      <rect x="348.5238" y="168" clip-path="url(#clipPath2)" width="119.9523" rx="4" ry="4" height="44" stroke="none"/>
    </g>
    <g font-size="16px" stroke-linecap="butt" transform="matrix(1,0,0,1,-66,-153)" text-rendering="geometricPrecision" font-family="sans-serif" shape-rendering="geometricPrecision" stroke-miterlimit="1.45">
      <text x="356.9219" xml:space="preserve" y="196.2852" clip-path="url(#clipPath2)" stroke="none">dcterms:Agent</text>
      <rect x="348.5238" y="168" clip-path="url(#clipPath2)" fill="none" width="119.9523" rx="4" ry="4" height="44"/>
    </g>
    <g fill="yellow" text-rendering="geometricPrecision" shape-rendering="geometricPrecision" transform="matrix(1,0,0,1,-66,-153)" stroke="yellow">
      <rect x="93.0794" y="352" clip-path="url(#clipPath2)" width="107.9523" rx="4" ry="4" height="44" stroke="none"/>
    </g>
    <g font-size="16px" stroke-linecap="butt" transform="matrix(1,0,0,1,-66,-153)" text-rendering="geometricPrecision" font-family="sans-serif" shape-rendering="geometricPrecision" stroke-miterlimit="1.45">
      <text x="109.2509" xml:space="preserve" y="380.2852" clip-path="url(#clipPath2)" stroke="none">fabio:Book</text>
      <rect x="93.0794" y="352" clip-path="url(#clipPath2)" fill="none" width="107.9523" rx="4" ry="4" height="44"/>
    </g>
    <g fill="yellow" text-rendering="geometricPrecision" shape-rendering="geometricPrecision" transform="matrix(1,0,0,1,-66,-153)" stroke="yellow">
      <rect x="81.0794" y="562" clip-path="url(#clipPath2)" width="131.9523" rx="4" ry="4" height="44" stroke="none"/>
    </g>
    <g font-size="16px" stroke-linecap="butt" transform="matrix(1,0,0,1,-66,-153)" text-rendering="geometricPrecision" font-family="sans-serif" shape-rendering="geometricPrecision" stroke-miterlimit="1.45">
      <text x="87.915" xml:space="preserve" y="590.2852" clip-path="url(#clipPath2)" stroke="none">fabio:PrintObject</text>
      <rect x="81.0794" y="562" clip-path="url(#clipPath2)" fill="none" width="131.9523" rx="4" ry="4" height="44"/>
    </g>
    <g fill="rgb(255,255,153)" text-rendering="geometricPrecision" shape-rendering="geometricPrecision" transform="matrix(1,0,0,1,-66,-153)" stroke="rgb(255,255,153)">
      <rect x="347.5238" y="643" clip-path="url(#clipPath2)" width="131.9523" rx="4" ry="4" height="44" stroke="none"/>
    </g>
    <g font-size="16px" stroke-linecap="butt" transform="matrix(1,0,0,1,-66,-153)" text-rendering="geometricPrecision" font-family="sans-serif" shape-rendering="geometricPrecision" stroke-miterlimit="1.45">
      <text x="358.8125" xml:space="preserve" y="671.2852" clip-path="url(#clipPath2)" stroke="none">pro:RoleInTime</text>
      <rect x="347.5238" y="643" clip-path="url(#clipPath2)" fill="none" width="131.9523" stroke-dasharray="6,2" rx="4" ry="4" height="44"/>
    </g>
    <g fill="yellow" text-rendering="geometricPrecision" shape-rendering="geometricPrecision" transform="matrix(1,0,0,1,-66,-153)" stroke="yellow">
      <rect x="359.5238" y="562" clip-path="url(#clipPath2)" width="107.9523" rx="4" ry="4" height="44" stroke="none"/>
    </g>
    <g font-size="16px" stroke-linecap="butt" transform="matrix(1,0,0,1,-66,-153)" text-rendering="geometricPrecision" font-family="sans-serif" shape-rendering="geometricPrecision" stroke-miterlimit="1.45">
      <text x="383.7188" xml:space="preserve" y="590.2852" clip-path="url(#clipPath2)" stroke="none">frbr:Item</text>
      <rect x="359.5238" y="562" clip-path="url(#clipPath2)" fill="none" width="107.9523" rx="4" ry="4" height="44"/>
    </g>
    <g fill="rgb(204,255,204)" text-rendering="geometricPrecision" shape-rendering="geometricPrecision" transform="matrix(1,0,0,1,-66,-153)" stroke="rgb(204,255,204)">
      <path d="M358.062 243.5 L471.5475 243.5 L458.938 286.5 L345.4525 286.5 Z" fill-rule="evenodd" clip-path="url(#clipPath2)" stroke="none"/>
    </g>
    <g font-size="16px" stroke-linecap="butt" transform="matrix(1,0,0,1,-66,-153)" text-rendering="geometricPrecision" font-family="sans-serif" shape-rendering="geometricPrecision" stroke-miterlimit="1.45">
      <text x="371.1523" xml:space="preserve" y="271.2852" clip-path="url(#clipPath2)" stroke="none">rdfs:Literal</text>
      <path fill="none" d="M358.062 243.5 L471.5475 243.5 L458.938 286.5 L345.4525 286.5 Z" fill-rule="evenodd" clip-path="url(#clipPath2)"/>
    </g>
    <g fill="rgb(204,255,204)" text-rendering="geometricPrecision" shape-rendering="geometricPrecision" transform="matrix(1,0,0,1,-66,-153)" stroke="rgb(204,255,204)">
      <path d="M363.062 482 L476.5475 482 L463.938 525 L350.4525 525 Z" fill-rule="evenodd" clip-path="url(#clipPath2)" stroke="none"/>
    </g>
    <g font-size="16px" stroke-linecap="butt" transform="matrix(1,0,0,1,-66,-153)" text-rendering="geometricPrecision" font-family="sans-serif" shape-rendering="geometricPrecision" stroke-miterlimit="1.45">
      <text x="377.4805" xml:space="preserve" y="509.7852" clip-path="url(#clipPath2)" stroke="none">xsd:gYear</text>
      <path fill="none" d="M363.062 482 L476.5475 482 L463.938 525 L350.4525 525 Z" fill-rule="evenodd" clip-path="url(#clipPath2)"/>
    </g>
    <g stroke-linecap="round" transform="matrix(1,0,0,1,-66,-153)" stroke-dashoffset="2" fill="navy" text-rendering="geometricPrecision" shape-rendering="geometricPrecision" stroke-dasharray="0,4" stroke="navy" stroke-miterlimit="1.45">
      <path fill="none" d="M147.0556 238.9907 L147.0556 190 L337.5325 190" clip-path="url(#clipPath2)"/>
      <path d="M147.0556 246.9907 C144.8465 246.9907 143.0556 245.1999 143.0556 242.9907 C143.0556 240.7816 144.8465 238.9907 147.0556 238.9907 C149.2648 238.9907 151.0556 240.7816 151.0556 242.9907 C151.0556 245.1999 149.2648 246.9907 147.0556 246.9907 Z" clip-path="url(#clipPath2)" stroke="none"/>
      <path d="M348.5325 190 L336.5325 184 L336.5325 196 Z" clip-path="url(#clipPath2)" stroke="none"/>
      <rect x="185.6569" y="178.1992" clip-path="url(#clipPath2)" fill="white" width="115.1406" height="23.6016" stroke="none"/>
    </g>
    <g stroke-linecap="butt" font-size="16px" transform="matrix(1,0,0,1,-66,-153)" fill="navy" text-rendering="geometricPrecision" font-family="sans-serif" shape-rendering="geometricPrecision" stroke="navy" stroke-miterlimit="1.45">
      <text x="187.6569" xml:space="preserve" y="196.2852" clip-path="url(#clipPath2)" stroke="none">dcterms:creator</text>
    </g>
    <g stroke-linecap="round" transform="matrix(1,0,0,1,-66,-153)" stroke-dashoffset="2" fill="navy" text-rendering="geometricPrecision" shape-rendering="geometricPrecision" stroke-dasharray="0,4" stroke="navy" stroke-miterlimit="1.45">
      <path fill="none" d="M147.0556 291.0076 L147.0556 341.0395" clip-path="url(#clipPath2)"/>
      <path d="M147.0556 283.0076 C149.2648 283.0076 151.0556 284.7984 151.0556 287.0076 C151.0556 289.2167 149.2648 291.0076 147.0556 291.0076 C144.8465 291.0076 143.0556 289.2167 143.0556 287.0076 C143.0556 284.7984 144.8465 283.0076 147.0556 283.0076 Z" clip-path="url(#clipPath2)" stroke="none"/>
      <path d="M147.0556 352.0395 L153.0556 340.0395 L141.0556 340.0395 Z" clip-path="url(#clipPath2)" stroke="none"/>
      <rect x="94.3681" y="307.6992" clip-path="url(#clipPath2)" fill="white" width="105.375" height="23.6016" stroke="none"/>
    </g>
    <g stroke-linecap="butt" font-size="16px" transform="matrix(1,0,0,1,-66,-153)" fill="navy" text-rendering="geometricPrecision" font-family="sans-serif" shape-rendering="geometricPrecision" stroke="navy" stroke-miterlimit="1.45">
      <text x="96.3681" xml:space="preserve" y="325.7852" clip-path="url(#clipPath2)" stroke="none">frbr:realization</text>
    </g>
    <g stroke-linecap="round" transform="matrix(1,0,0,1,-66,-153)" stroke-dashoffset="2" fill="navy" text-rendering="geometricPrecision" shape-rendering="geometricPrecision" stroke-dasharray="0,4" stroke="navy" stroke-miterlimit="1.45">
      <path fill="none" d="M147.0556 400.0203 L147.0556 551.017" clip-path="url(#clipPath2)"/>
      <path d="M147.0556 392.0203 C149.2648 392.0203 151.0556 393.8111 151.0556 396.0203 C151.0556 398.2294 149.2648 400.0203 147.0556 400.0203 C144.8465 400.0203 143.0556 398.2294 143.0556 396.0203 C143.0556 393.8111 144.8465 392.0203 147.0556 392.0203 Z" clip-path="url(#clipPath2)" stroke="none"/>
      <path d="M147.0556 562.017 L153.0556 550.017 L141.0556 550.017 Z" clip-path="url(#clipPath2)" stroke="none"/>
      <rect x="86.8095" y="467.1992" clip-path="url(#clipPath2)" fill="white" width="120.4922" height="23.6016" stroke="none"/>
    </g>
    <g stroke-linecap="butt" font-size="16px" transform="matrix(1,0,0,1,-66,-153)" fill="navy" text-rendering="geometricPrecision" font-family="sans-serif" shape-rendering="geometricPrecision" stroke="navy" stroke-miterlimit="1.45">
      <text x="88.8095" xml:space="preserve" y="485.2852" clip-path="url(#clipPath2)" stroke="none">frbr:embodiment</text>
    </g>
    <g stroke-linecap="round" transform="matrix(1,0,0,1,-66,-153)" stroke-dashoffset="2" fill="navy" text-rendering="geometricPrecision" shape-rendering="geometricPrecision" stroke-dasharray="0,4" stroke="navy" stroke-miterlimit="1.45">
      <path fill="none" d="M101.2108 609.9955 L101.2108 665 L336.5121 665" clip-path="url(#clipPath2)"/>
      <path d="M101.2108 601.9955 C103.4199 601.9955 105.2108 603.7863 105.2108 605.9955 C105.2108 608.2047 103.4199 609.9955 101.2108 609.9955 C99.0016 609.9955 97.2108 608.2047 97.2108 605.9955 C97.2108 603.7863 99.0016 601.9955 101.2108 601.9955 Z" clip-path="url(#clipPath2)" stroke="none"/>
      <path d="M347.5121 665 L335.5121 659 L335.5121 671 Z" clip-path="url(#clipPath2)" stroke="none"/>
      <rect x="120.4298" y="653.1992" clip-path="url(#clipPath2)" fill="white" width="198.75" height="23.6016" stroke="none"/>
    </g>
    <g stroke-linecap="butt" font-size="16px" transform="matrix(1,0,0,1,-66,-153)" fill="navy" text-rendering="geometricPrecision" font-family="sans-serif" shape-rendering="geometricPrecision" stroke="navy" stroke-miterlimit="1.45">
      <text x="122.4298" xml:space="preserve" y="671.2852" clip-path="url(#clipPath2)" stroke="none">pro:isRelatedToRoleInTime</text>
    </g>
    <g stroke-linecap="round" transform="matrix(1,0,0,1,-66,-153)" stroke-dashoffset="2" fill="navy" text-rendering="geometricPrecision" shape-rendering="geometricPrecision" stroke-dasharray="0,4" stroke="navy" stroke-miterlimit="1.45">
      <path fill="none" d="M217.0487 584 L348.5211 584" clip-path="url(#clipPath2)"/>
      <path d="M209.0487 584 C209.0487 581.7908 210.8396 580 213.0487 580 C215.2579 580 217.0487 581.7908 217.0487 584 C217.0487 586.2092 215.2579 588 213.0487 588 C210.8396 588 209.0487 586.2092 209.0487 584 Z" clip-path="url(#clipPath2)" stroke="none"/>
      <path d="M359.5211 584 L347.5211 578 L347.5211 590 Z" clip-path="url(#clipPath2)" stroke="none"/>
      <rect x="237.1528" y="572.1992" clip-path="url(#clipPath2)" fill="white" width="98.25" height="23.6016" stroke="none"/>
    </g>
    <g stroke-linecap="butt" font-size="16px" transform="matrix(1,0,0,1,-66,-153)" fill="navy" text-rendering="geometricPrecision" font-family="sans-serif" shape-rendering="geometricPrecision" stroke="navy" stroke-miterlimit="1.45">
      <text x="239.1528" xml:space="preserve" y="590.2852" clip-path="url(#clipPath2)" stroke="none">frbr:exemplar</text>
    </g>
    <g stroke-linecap="round" transform="matrix(1,0,0,1,-66,-153)" stroke-dashoffset="2" fill="green" text-rendering="geometricPrecision" shape-rendering="geometricPrecision" stroke-dasharray="0,4" stroke="green" stroke-miterlimit="1.45">
      <path fill="none" d="M205.0232 265 L336.7427 265" clip-path="url(#clipPath2)"/>
    </g>
    <g stroke-linecap="round" transform="matrix(1,0,0,1,-66,-153)" fill-opacity="0" stroke-dashoffset="2" fill="rgb(0,0,0)" text-rendering="geometricPrecision" shape-rendering="geometricPrecision" stroke-dasharray="0,4" stroke="rgb(0,0,0)" stroke-opacity="0" stroke-miterlimit="1.45">
      <path d="M197.0232 265 C197.0232 262.7909 198.8141 261 201.0232 261 C203.2323 261 205.0232 262.7909 205.0232 265 C205.0232 267.2091 203.2323 269 201.0232 269 C198.8141 269 197.0232 267.2091 197.0232 265 Z" stroke="none" clip-path="url(#clipPath2)"/>
    </g>
    <g stroke-linecap="butt" transform="matrix(1,0,0,1,-66,-153)" fill="green" text-rendering="geometricPrecision" shape-rendering="geometricPrecision" stroke="green" stroke-miterlimit="1.45">
      <path fill="none" d="M197.0232 265 C197.0232 262.7909 198.8141 261 201.0232 261 C203.2323 261 205.0232 262.7909 205.0232 265 C205.0232 267.2091 203.2323 269 201.0232 269 C198.8141 269 197.0232 267.2091 197.0232 265 Z" clip-path="url(#clipPath2)"/>
    </g>
    <g stroke-linecap="round" transform="matrix(1,0,0,1,-66,-153)" stroke-dashoffset="2" fill="white" text-rendering="geometricPrecision" shape-rendering="geometricPrecision" stroke-dasharray="0,4" stroke="white" stroke-miterlimit="1.45">
      <path d="M351.7427 265 L335.7427 259 L335.7427 271 Z" stroke="none" clip-path="url(#clipPath2)"/>
    </g>
    <g stroke-linecap="butt" transform="matrix(1,0,0,1,-66,-153)" fill="green" text-rendering="geometricPrecision" shape-rendering="geometricPrecision" stroke="green" stroke-miterlimit="1.45">
      <path fill="none" d="M351.7427 265 L335.7427 259 L335.7427 271 Z" clip-path="url(#clipPath2)"/>
    </g>
    <g stroke-linecap="round" transform="matrix(1,0,0,1,-66,-153)" stroke-dashoffset="2" fill="white" text-rendering="geometricPrecision" shape-rendering="geometricPrecision" stroke-dasharray="0,4" stroke="white" stroke-miterlimit="1.45">
      <rect x="228.1211" width="90.2422" height="23.6016" y="253.1992" clip-path="url(#clipPath2)" stroke="none"/>
    </g>
    <g stroke-linecap="butt" font-size="16px" transform="matrix(1,0,0,1,-66,-153)" fill="green" text-rendering="geometricPrecision" font-family="sans-serif" shape-rendering="geometricPrecision" stroke="green" stroke-miterlimit="1.45">
      <text x="230.121" xml:space="preserve" y="271.2852" clip-path="url(#clipPath2)" stroke="none">dcterms:title</text>
    </g>
    <g stroke-linecap="round" transform="matrix(1,0,0,1,-66,-153)" stroke-dashoffset="2" fill="green" text-rendering="geometricPrecision" shape-rendering="geometricPrecision" stroke-dasharray="0,4" stroke="green" stroke-miterlimit="1.45">
      <path fill="none" d="M205.0431 386.856 L500.4531 386.856 L500.4531 265 L480.2473 265" clip-path="url(#clipPath2)"/>
    </g>
    <g stroke-linecap="round" transform="matrix(1,0,0,1,-66,-153)" fill-opacity="0" stroke-dashoffset="2" fill="rgb(0,0,0)" text-rendering="geometricPrecision" shape-rendering="geometricPrecision" stroke-dasharray="0,4" stroke="rgb(0,0,0)" stroke-opacity="0" stroke-miterlimit="1.45">
      <path d="M197.0431 386.856 C197.0431 384.6469 198.834 382.856 201.0431 382.856 C203.2523 382.856 205.0431 384.6469 205.0431 386.856 C205.0431 389.0652 203.2523 390.856 201.0431 390.856 C198.834 390.856 197.0431 389.0652 197.0431 386.856 Z" stroke="none" clip-path="url(#clipPath2)"/>
    </g>
    <g stroke-linecap="butt" transform="matrix(1,0,0,1,-66,-153)" fill="green" text-rendering="geometricPrecision" shape-rendering="geometricPrecision" stroke="green" stroke-miterlimit="1.45">
      <path fill="none" d="M197.0431 386.856 C197.0431 384.6469 198.834 382.856 201.0431 382.856 C203.2523 382.856 205.0431 384.6469 205.0431 386.856 C205.0431 389.0652 203.2523 390.856 201.0431 390.856 C198.834 390.856 197.0431 389.0652 197.0431 386.856 Z" clip-path="url(#clipPath2)"/>
    </g>
    <g stroke-linecap="round" transform="matrix(1,0,0,1,-66,-153)" stroke-dashoffset="2" fill="white" text-rendering="geometricPrecision" shape-rendering="geometricPrecision" stroke-dasharray="0,4" stroke="white" stroke-miterlimit="1.45">
      <path d="M465.2473 265 L481.2473 271 L481.2473 259 Z" stroke="none" clip-path="url(#clipPath2)"/>
    </g>
    <g stroke-linecap="butt" transform="matrix(1,0,0,1,-66,-153)" fill="green" text-rendering="geometricPrecision" shape-rendering="geometricPrecision" stroke="green" stroke-miterlimit="1.45">
      <path fill="none" d="M465.2473 265 L481.2473 271 L481.2473 259 Z" clip-path="url(#clipPath2)"/>
    </g>
    <g stroke-linecap="round" transform="matrix(1,0,0,1,-66,-153)" stroke-dashoffset="2" fill="white" text-rendering="geometricPrecision" shape-rendering="geometricPrecision" stroke-dasharray="0,4" stroke="white" stroke-miterlimit="1.45">
      <rect x="250.5901" width="209.4297" height="23.6016" y="375.0552" clip-path="url(#clipPath2)" stroke="none"/>
    </g>
    <g stroke-linecap="butt" font-size="16px" transform="matrix(1,0,0,1,-66,-153)" fill="green" text-rendering="geometricPrecision" font-family="sans-serif" shape-rendering="geometricPrecision" stroke="green" stroke-miterlimit="1.45">
      <text x="252.5901" xml:space="preserve" y="393.1412" clip-path="url(#clipPath2)" stroke="none">dcterms:bibliographicCitation</text>
    </g>
    <g stroke-linecap="round" transform="matrix(1,0,0,1,-66,-153)" stroke-dashoffset="2" fill="green" text-rendering="geometricPrecision" shape-rendering="geometricPrecision" stroke-dasharray="0,4" stroke="green" stroke-miterlimit="1.45">
      <path fill="none" d="M205.0603 365.0994 L408.5 365.0994 L408.5 301.4568" clip-path="url(#clipPath2)"/>
    </g>
    <g stroke-linecap="round" transform="matrix(1,0,0,1,-66,-153)" fill-opacity="0" stroke-dashoffset="2" fill="rgb(0,0,0)" text-rendering="geometricPrecision" shape-rendering="geometricPrecision" stroke-dasharray="0,4" stroke="rgb(0,0,0)" stroke-opacity="0" stroke-miterlimit="1.45">
      <path d="M197.0603 365.0994 C197.0603 362.8902 198.8512 361.0994 201.0603 361.0994 C203.2695 361.0994 205.0603 362.8902 205.0603 365.0994 C205.0603 367.3085 203.2695 369.0994 201.0603 369.0994 C198.8512 369.0994 197.0603 367.3085 197.0603 365.0994 Z" stroke="none" clip-path="url(#clipPath2)"/>
    </g>
    <g stroke-linecap="butt" transform="matrix(1,0,0,1,-66,-153)" fill="green" text-rendering="geometricPrecision" shape-rendering="geometricPrecision" stroke="green" stroke-miterlimit="1.45">
      <path fill="none" d="M197.0603 365.0994 C197.0603 362.8902 198.8512 361.0994 201.0603 361.0994 C203.2695 361.0994 205.0603 362.8902 205.0603 365.0994 C205.0603 367.3085 203.2695 369.0994 201.0603 369.0994 C198.8512 369.0994 197.0603 367.3085 197.0603 365.0994 Z" clip-path="url(#clipPath2)"/>
    </g>
    <g stroke-linecap="round" transform="matrix(1,0,0,1,-66,-153)" stroke-dashoffset="2" fill="white" text-rendering="geometricPrecision" shape-rendering="geometricPrecision" stroke-dasharray="0,4" stroke="white" stroke-miterlimit="1.45">
      <path d="M408.5 286.4568 L402.5 302.4568 L414.5 302.4568 Z" stroke="none" clip-path="url(#clipPath2)"/>
    </g>
    <g stroke-linecap="butt" transform="matrix(1,0,0,1,-66,-153)" fill="green" text-rendering="geometricPrecision" shape-rendering="geometricPrecision" stroke="green" stroke-miterlimit="1.45">
      <path fill="none" d="M408.5 286.4568 L402.5 302.4568 L414.5 302.4568 Z" clip-path="url(#clipPath2)"/>
    </g>
    <g stroke-linecap="round" transform="matrix(1,0,0,1,-66,-153)" stroke-dashoffset="2" fill="white" text-rendering="geometricPrecision" shape-rendering="geometricPrecision" stroke-dasharray="0,4" stroke="white" stroke-miterlimit="1.45">
      <rect x="259.762" width="99.1328" height="23.6016" y="353.2986" clip-path="url(#clipPath2)" stroke="none"/>
    </g>
    <g stroke-linecap="butt" font-size="16px" transform="matrix(1,0,0,1,-66,-153)" fill="green" text-rendering="geometricPrecision" font-family="sans-serif" shape-rendering="geometricPrecision" stroke="green" stroke-miterlimit="1.45">
      <text x="261.762" xml:space="preserve" y="371.3845" clip-path="url(#clipPath2)" stroke="none">prism:volume</text>
    </g>
    <g stroke-linecap="round" transform="matrix(1,0,0,1,-66,-153)" stroke-dashoffset="2" fill="green" text-rendering="geometricPrecision" shape-rendering="geometricPrecision" stroke-dasharray="0,4" stroke="green" stroke-miterlimit="1.45">
      <path fill="none" d="M169.8356 400.0001 L169.8356 438.856 L413.5 438.856 L413.5 467.0046" clip-path="url(#clipPath2)"/>
    </g>
    <g stroke-linecap="round" transform="matrix(1,0,0,1,-66,-153)" fill-opacity="0" stroke-dashoffset="2" fill="rgb(0,0,0)" text-rendering="geometricPrecision" shape-rendering="geometricPrecision" stroke-dasharray="0,4" stroke="rgb(0,0,0)" stroke-opacity="0" stroke-miterlimit="1.45">
      <path d="M169.8356 392.0001 C172.0448 392.0001 173.8356 393.791 173.8356 396.0001 C173.8356 398.2093 172.0448 400.0001 169.8356 400.0001 C167.6265 400.0001 165.8356 398.2093 165.8356 396.0001 C165.8356 393.791 167.6265 392.0001 169.8356 392.0001 Z" stroke="none" clip-path="url(#clipPath2)"/>
    </g>
    <g stroke-linecap="butt" transform="matrix(1,0,0,1,-66,-153)" fill="green" text-rendering="geometricPrecision" shape-rendering="geometricPrecision" stroke="green" stroke-miterlimit="1.45">
      <path fill="none" d="M169.8356 392.0001 C172.0448 392.0001 173.8356 393.791 173.8356 396.0001 C173.8356 398.2093 172.0448 400.0001 169.8356 400.0001 C167.6265 400.0001 165.8356 398.2093 165.8356 396.0001 C165.8356 393.791 167.6265 392.0001 169.8356 392.0001 Z" clip-path="url(#clipPath2)"/>
    </g>
    <g stroke-linecap="round" transform="matrix(1,0,0,1,-66,-153)" stroke-dashoffset="2" fill="white" text-rendering="geometricPrecision" shape-rendering="geometricPrecision" stroke-dasharray="0,4" stroke="white" stroke-miterlimit="1.45">
      <path d="M413.5 482.0046 L419.5 466.0046 L407.5 466.0046 Z" stroke="none" clip-path="url(#clipPath2)"/>
    </g>
    <g stroke-linecap="butt" transform="matrix(1,0,0,1,-66,-153)" fill="green" text-rendering="geometricPrecision" shape-rendering="geometricPrecision" stroke="green" stroke-miterlimit="1.45">
      <path fill="none" d="M413.5 482.0046 L419.5 466.0046 L407.5 466.0046 Z" clip-path="url(#clipPath2)"/>
    </g>
    <g stroke-linecap="round" transform="matrix(1,0,0,1,-66,-153)" stroke-dashoffset="2" fill="white" text-rendering="geometricPrecision" shape-rendering="geometricPrecision" stroke-dasharray="0,4" stroke="white" stroke-miterlimit="1.45">
      <rect x="201.1639" width="181.0078" height="23.6016" y="427.0552" clip-path="url(#clipPath2)" stroke="none"/>
    </g>
    <g stroke-linecap="butt" font-size="16px" transform="matrix(1,0,0,1,-66,-153)" fill="green" text-rendering="geometricPrecision" font-family="sans-serif" shape-rendering="geometricPrecision" stroke="green" stroke-miterlimit="1.45">
      <text x="203.1639" xml:space="preserve" y="445.1412" clip-path="url(#clipPath2)" stroke="none">fabio:hasPublicationYear</text>
    </g>
  </g>
</svg>
