<?xml version="1.0" encoding="UTF-8"?><svg xmlns="http://www.w3.org/2000/svg" xmlns:xlink="http://www.w3.org/1999/xlink" fill-opacity="1" color-rendering="auto" color-interpolation="auto" text-rendering="auto" stroke="black" stroke-linecap="square" width="943" stroke-miterlimit="10" shape-rendering="auto" stroke-opacity="1" fill="black" stroke-dasharray="none" font-weight="normal" stroke-width="1" height="383" font-family="'Dialog'" font-style="normal" stroke-linejoin="miter" font-size="12px" stroke-dashoffset="0" image-rendering="auto">
  <!--Generated by ySVG 2.5-->
  <defs id="genericDefs"/>
  <g>
    <defs id="defs1">
      <clipPath clipPathUnits="userSpaceOnUse" id="clipPath1">
        <path d="M0 0 L943 0 L943 383 L0 383 L0 0 Z"/>
      </clipPath>
      <clipPath clipPathUnits="userSpaceOnUse" id="clipPath2">
        <path d="M83 171 L1026 171 L1026 554 L83 554 L83 171 Z"/>
      </clipPath>
    </defs>
    <g fill="white" text-rendering="geometricPrecision" shape-rendering="geometricPrecision" transform="translate(-83,-171)" stroke="white">
      <rect x="83" width="943" height="383" y="171" clip-path="url(#clipPath2)" stroke="none"/>
    </g>
    <g fill="yellow" text-rendering="geometricPrecision" shape-rendering="geometricPrecision" transform="matrix(1,0,0,1,-83,-171)" stroke="yellow">
      <rect x="762.5159" y="186" clip-path="url(#clipPath2)" width="247.9682" rx="4" ry="4" height="44" stroke="none"/>
    </g>
    <g font-size="16px" stroke-linecap="butt" transform="matrix(1,0,0,1,-83,-171)" text-rendering="geometricPrecision" font-family="sans-serif" shape-rendering="geometricPrecision" stroke-miterlimit="1.45">
      <text x="771.7812" xml:space="preserve" y="214.2852" clip-path="url(#clipPath2)" stroke="none">http://xmlns.com/foaf/0.1/Person</text>
      <rect x="762.5159" y="186" clip-path="url(#clipPath2)" fill="none" width="247.9682" rx="4" ry="4" height="44"/>
    </g>
    <g fill="rgb(204,255,204)" text-rendering="geometricPrecision" shape-rendering="geometricPrecision" transform="matrix(1,0,0,1,-83,-171)" stroke="rgb(204,255,204)">
      <path d="M836.062 495.5 L949.5475 495.5 L936.938 538.5 L823.4525 538.5 Z" fill-rule="evenodd" clip-path="url(#clipPath2)" stroke="none"/>
    </g>
    <g font-size="16px" stroke-linecap="butt" transform="matrix(1,0,0,1,-83,-171)" text-rendering="geometricPrecision" font-family="sans-serif" shape-rendering="geometricPrecision" stroke-miterlimit="1.45">
      <text x="877.6016" xml:space="preserve" y="523.2852" clip-path="url(#clipPath2)" stroke="none">21</text>
      <path fill="none" d="M836.062 495.5 L949.5475 495.5 L936.938 538.5 L823.4525 538.5 Z" fill-rule="evenodd" clip-path="url(#clipPath2)"/>
    </g>
    <g fill="rgb(255,153,204)" text-rendering="geometricPrecision" shape-rendering="geometricPrecision" transform="matrix(1,0,0,1,-83,-171)" stroke="rgb(255,153,204)">
      <circle r="10" clip-path="url(#clipPath2)" cx="345.4841" cy="286.5" stroke="none"/>
    </g>
    <g font-size="16px" stroke-linecap="butt" transform="matrix(1,0,0,1,-83,-171)" text-rendering="geometricPrecision" font-family="sans-serif" shape-rendering="geometricPrecision" stroke-miterlimit="1.45">
      <text x="106.2263" xml:space="preserve" y="292.7852" clip-path="url(#clipPath2)" stroke="none">https://example.org/people/john</text>
      <circle fill="none" stroke-width="3" r="10" clip-path="url(#clipPath2)" cx="345.4841" cy="286.5"/>
    </g>
    <g fill="rgb(255,153,204)" text-rendering="geometricPrecision" shape-rendering="geometricPrecision" transform="matrix(1,0,0,1,-83,-171)" stroke="rgb(255,153,204)">
      <circle r="10" clip-path="url(#clipPath2)" cx="345.4841" cy="468" stroke="none"/>
    </g>
    <g font-size="16px" stroke-linecap="butt" transform="matrix(1,0,0,1,-83,-171)" text-rendering="geometricPrecision" font-family="sans-serif" shape-rendering="geometricPrecision" stroke-miterlimit="1.45">
      <text x="100.0075" xml:space="preserve" y="474.2852" clip-path="url(#clipPath2)" stroke="none">https://example.org/people/peter</text>
      <circle fill="none" stroke-width="3" r="10" clip-path="url(#clipPath2)" cx="345.4841" cy="468"/>
      <path fill="none" d="M355.4841 286.5 L754.6375 209.515" clip-path="url(#clipPath2)"/>
      <path d="M762.4927 208 L749.763 205.3631 L753.6556 209.7044 L751.6568 215.1821 Z" stroke="none" clip-path="url(#clipPath2)"/>
    </g>
    <g stroke-linecap="butt" transform="matrix(1,0,0,1,-83,-171)" fill="white" text-rendering="geometricPrecision" shape-rendering="geometricPrecision" stroke="white" stroke-miterlimit="1.45">
      <rect x="382.6914" width="352.6172" height="23.6016" y="235.447" clip-path="url(#clipPath2)" stroke="none"/>
    </g>
    <g font-size="16px" stroke-linecap="butt" transform="matrix(1,0,0,1,-83,-171)" text-rendering="geometricPrecision" font-family="sans-serif" shape-rendering="geometricPrecision" stroke-miterlimit="1.45">
      <text x="384.6914" xml:space="preserve" y="253.5329" clip-path="url(#clipPath2)" stroke="none">http://www.w3.org/1999/02/22-rdf-syntax-ns#type</text>
      <path fill="none" d="M345.4841 296.5 L345.4841 450" clip-path="url(#clipPath2)"/>
      <path d="M345.4841 458 L350.4841 446 L345.4841 449 L340.4841 446 Z" stroke="none" clip-path="url(#clipPath2)"/>
    </g>
    <g stroke-linecap="butt" transform="matrix(1,0,0,1,-83,-171)" fill="white" text-rendering="geometricPrecision" shape-rendering="geometricPrecision" stroke="white" stroke-miterlimit="1.45">
      <rect x="231.4372" width="228.0938" height="23.6016" y="365.4492" clip-path="url(#clipPath2)" stroke="none"/>
    </g>
    <g font-size="16px" stroke-linecap="butt" transform="matrix(1,0,0,1,-83,-171)" text-rendering="geometricPrecision" font-family="sans-serif" shape-rendering="geometricPrecision" stroke-miterlimit="1.45">
      <text x="233.4372" xml:space="preserve" y="383.5352" clip-path="url(#clipPath2)" stroke="none">http://xmlns.com/foaf/0.1/knows</text>
      <path fill="none" d="M355.4841 468 L821.795 516.1779" clip-path="url(#clipPath2)"/>
      <path d="M829.7527 517 L818.3301 510.7932 L820.8004 516.0751 L817.3024 520.7403 Z" stroke="none" clip-path="url(#clipPath2)"/>
    </g>
    <g stroke-linecap="butt" transform="matrix(1,0,0,1,-83,-171)" fill="white" text-rendering="geometricPrecision" shape-rendering="geometricPrecision" stroke="white" stroke-miterlimit="1.45">
      <rect x="484.7496" width="209.4375" height="23.6016" y="480.3738" clip-path="url(#clipPath2)" stroke="none"/>
    </g>
    <g font-size="16px" stroke-linecap="butt" transform="matrix(1,0,0,1,-83,-171)" text-rendering="geometricPrecision" font-family="sans-serif" shape-rendering="geometricPrecision" stroke-miterlimit="1.45">
      <text x="486.7496" xml:space="preserve" y="498.4597" clip-path="url(#clipPath2)" stroke="none">http://xmlns.com/foaf/0.1/age</text>
      <path fill="none" stroke-dasharray="6,2" d="M355.4841 468 L886.5 383 L886.5 238.0061" clip-path="url(#clipPath2)"/>
      <path stroke-dasharray="6,2" d="M886.5 230.0061 L881.5 242.0061 L886.5 239.0061 L891.5 242.0061 Z" clip-path="url(#clipPath2)" stroke="none"/>
    </g>
    <g stroke-linecap="butt" transform="matrix(1,0,0,1,-83,-171)" fill="white" text-rendering="geometricPrecision" shape-rendering="geometricPrecision" stroke-dasharray="6,2" stroke="white" stroke-miterlimit="1.45">
      <rect x="449.246" width="352.6172" height="23.6016" y="412.9689" clip-path="url(#clipPath2)" stroke="none"/>
    </g>
    <g font-size="16px" stroke-linecap="butt" transform="matrix(1,0,0,1,-83,-171)" text-rendering="geometricPrecision" font-family="sans-serif" shape-rendering="geometricPrecision" stroke-miterlimit="1.45">
      <text x="451.246" xml:space="preserve" y="431.0548" clip-path="url(#clipPath2)" stroke="none">http://www.w3.org/1999/02/22-rdf-syntax-ns#type</text>
    </g>
  </g>
</svg>
