<?xml version="1.0" encoding="UTF-8"?><svg xmlns="http://www.w3.org/2000/svg" xmlns:xlink="http://www.w3.org/1999/xlink" fill-opacity="1" color-rendering="auto" color-interpolation="auto" text-rendering="auto" stroke="black" stroke-linecap="square" width="583" stroke-miterlimit="10" shape-rendering="auto" stroke-opacity="1" fill="black" stroke-dasharray="none" font-weight="normal" stroke-width="1" height="539" font-family="'Dialog'" font-style="normal" stroke-linejoin="miter" font-size="12px" stroke-dashoffset="0" image-rendering="auto">
  <!--Generated by ySVG 2.5-->
  <defs id="genericDefs"/>
  <g>
    <defs id="defs1">
      <clipPath clipPathUnits="userSpaceOnUse" id="clipPath1">
        <path d="M0 0 L583 0 L583 539 L0 539 L0 0 Z"/>
      </clipPath>
      <clipPath clipPathUnits="userSpaceOnUse" id="clipPath2">
        <path d="M-7 232 L576 232 L576 771 L-7 771 L-7 232 Z"/>
      </clipPath>
    </defs>
    <g fill="white" text-rendering="geometricPrecision" shape-rendering="geometricPrecision" transform="translate(7,-232)" stroke="white">
      <rect x="-7" width="583" height="539" y="232" clip-path="url(#clipPath2)" stroke="none"/>
    </g>
    <g fill="yellow" text-rendering="geometricPrecision" shape-rendering="geometricPrecision" transform="matrix(1,0,0,1,7,-232)" stroke="yellow">
      <rect x="283.0159" y="368.75" clip-path="url(#clipPath2)" width="166.9682" rx="4" ry="4" height="79" stroke="none"/>
    </g>
    <g font-size="16px" stroke-linecap="butt" transform="matrix(1,0,0,1,7,-232)" text-rendering="geometricPrecision" font-family="sans-serif" shape-rendering="geometricPrecision" stroke-miterlimit="1.45">
      <text x="308.2461" xml:space="preserve" y="414.5352" clip-path="url(#clipPath2)" stroke="none">doco:TextChunk</text>
      <rect x="283.0159" y="368.75" clip-path="url(#clipPath2)" fill="none" width="166.9682" rx="4" ry="4" height="79"/>
    </g>
    <g fill="yellow" text-rendering="geometricPrecision" shape-rendering="geometricPrecision" transform="matrix(1,0,0,1,7,-232)" stroke="yellow">
      <rect x="461.7514" y="247" clip-path="url(#clipPath2)" width="98.9682" rx="4" ry="4" height="44" stroke="none"/>
    </g>
    <g font-size="16px" stroke-linecap="butt" transform="matrix(1,0,0,1,7,-232)" text-rendering="geometricPrecision" font-family="sans-serif" shape-rendering="geometricPrecision" stroke-miterlimit="1.45">
      <text x="481.4542" xml:space="preserve" y="275.2852" clip-path="url(#clipPath2)" stroke="none">frbr:Item</text>
      <rect x="461.7514" y="247" clip-path="url(#clipPath2)" fill="none" width="98.9682" rx="4" ry="4" height="44"/>
    </g>
    <g fill="rgb(204,255,204)" text-rendering="geometricPrecision" shape-rendering="geometricPrecision" transform="matrix(1,0,0,1,7,-232)" stroke="rgb(204,255,204)">
      <path d="M148.4127 547.25 L237.4841 547.25 L227.5873 590.25 L138.5159 590.25 Z" fill-rule="evenodd" clip-path="url(#clipPath2)" stroke="none"/>
    </g>
    <g font-size="16px" stroke-linecap="butt" transform="matrix(1,0,0,1,7,-232)" text-rendering="geometricPrecision" font-family="sans-serif" shape-rendering="geometricPrecision" stroke-miterlimit="1.45">
      <text x="150.6523" xml:space="preserve" y="575.0352" clip-path="url(#clipPath2)" stroke="none">rdfs:Literal</text>
      <path fill="none" d="M148.4127 547.25 L237.4841 547.25 L227.5873 590.25 L138.5159 590.25 Z" fill-rule="evenodd" clip-path="url(#clipPath2)"/>
    </g>
    <g fill="yellow" text-rendering="geometricPrecision" shape-rendering="geometricPrecision" transform="matrix(1,0,0,1,7,-232)" stroke="yellow">
      <rect x="302.5159" y="601.9479" clip-path="url(#clipPath2)" width="127.9682" rx="4" ry="4" height="44" stroke="none"/>
    </g>
    <g font-size="16px" stroke-linecap="butt" transform="matrix(1,0,0,1,7,-232)" text-rendering="geometricPrecision" font-family="sans-serif" shape-rendering="geometricPrecision" stroke-miterlimit="1.45">
      <text x="312.7031" xml:space="preserve" y="630.2331" clip-path="url(#clipPath2)" stroke="none">frbr:Expression</text>
      <rect x="302.5159" y="601.9479" clip-path="url(#clipPath2)" fill="none" width="127.9682" rx="4" ry="4" height="44"/>
    </g>
    <g fill="yellow" text-rendering="geometricPrecision" shape-rendering="geometricPrecision" transform="matrix(1,0,0,1,7,-232)" stroke="yellow">
      <rect x="186.7963" y="711.9479" clip-path="url(#clipPath2)" width="98.9682" rx="4" ry="4" height="44" stroke="none"/>
    </g>
    <g font-size="16px" stroke-linecap="butt" transform="matrix(1,0,0,1,7,-232)" text-rendering="geometricPrecision" font-family="sans-serif" shape-rendering="geometricPrecision" stroke-miterlimit="1.45">
      <text x="203.3937" xml:space="preserve" y="740.2331" clip-path="url(#clipPath2)" stroke="none">frbr:Work</text>
      <rect x="186.7963" y="711.9479" clip-path="url(#clipPath2)" fill="none" width="98.9682" rx="4" ry="4" height="44"/>
    </g>
    <g fill="yellow" text-rendering="geometricPrecision" shape-rendering="geometricPrecision" transform="matrix(1,0,0,1,7,-232)" stroke="yellow">
      <rect x="461.7514" y="706.9479" clip-path="url(#clipPath2)" width="98.9682" rx="4" ry="4" height="44" stroke="none"/>
    </g>
    <g font-size="16px" stroke-linecap="butt" transform="matrix(1,0,0,1,7,-232)" text-rendering="geometricPrecision" font-family="sans-serif" shape-rendering="geometricPrecision" stroke-miterlimit="1.45">
      <text x="470.3214" xml:space="preserve" y="735.2331" clip-path="url(#clipPath2)" stroke="none">foaf:Person</text>
      <rect x="461.7514" y="706.9479" clip-path="url(#clipPath2)" fill="none" width="98.9682" rx="4" ry="4" height="44"/>
    </g>
    <g fill="rgb(255,255,153)" text-rendering="geometricPrecision" shape-rendering="geometricPrecision" transform="matrix(1,0,0,1,7,-232)" stroke="rgb(255,255,153)">
      <rect x="124.0159" y="247" clip-path="url(#clipPath2)" width="127.9682" rx="4" ry="4" height="44" stroke="none"/>
    </g>
    <g font-size="16px" stroke-linecap="butt" transform="matrix(1,0,0,1,7,-232)" text-rendering="geometricPrecision" font-family="sans-serif" shape-rendering="geometricPrecision" stroke-miterlimit="1.45">
      <text x="129.7461" xml:space="preserve" y="275.2852" clip-path="url(#clipPath2)" stroke="none">doco:TextChunk</text>
      <rect x="124.0159" y="247" clip-path="url(#clipPath2)" fill="none" width="127.9682" stroke-dasharray="6,2" rx="4" ry="4" height="44"/>
    </g>
    <g stroke-linecap="round" transform="matrix(1,0,0,1,7,-232)" stroke-dashoffset="2" fill="green" text-rendering="geometricPrecision" shape-rendering="geometricPrecision" stroke-dasharray="0,4" stroke="green" stroke-miterlimit="1.45">
      <path fill="none" d="M279.0125 408.25 L188 408.25 L188 532.2377" clip-path="url(#clipPath2)"/>
    </g>
    <g stroke-linecap="round" transform="matrix(1,0,0,1,7,-232)" fill-opacity="0" stroke-dashoffset="2" fill="rgb(0,0,0)" text-rendering="geometricPrecision" shape-rendering="geometricPrecision" stroke-dasharray="0,4" stroke="rgb(0,0,0)" stroke-opacity="0" stroke-miterlimit="1.45">
      <path d="M287.0125 408.25 C287.0125 410.4591 285.2216 412.25 283.0125 412.25 C280.8033 412.25 279.0125 410.4591 279.0125 408.25 C279.0125 406.0409 280.8033 404.25 283.0125 404.25 C285.2216 404.25 287.0125 406.0409 287.0125 408.25 Z" stroke="none" clip-path="url(#clipPath2)"/>
    </g>
    <g stroke-linecap="butt" transform="matrix(1,0,0,1,7,-232)" fill="green" text-rendering="geometricPrecision" shape-rendering="geometricPrecision" stroke="green" stroke-miterlimit="1.45">
      <path fill="none" d="M287.0125 408.25 C287.0125 410.4591 285.2216 412.25 283.0125 412.25 C280.8033 412.25 279.0125 410.4591 279.0125 408.25 C279.0125 406.0409 280.8033 404.25 283.0125 404.25 C285.2216 404.25 287.0125 406.0409 287.0125 408.25 Z" clip-path="url(#clipPath2)"/>
    </g>
    <g stroke-linecap="round" transform="matrix(1,0,0,1,7,-232)" stroke-dashoffset="2" fill="white" text-rendering="geometricPrecision" shape-rendering="geometricPrecision" stroke-dasharray="0,4" stroke="white" stroke-miterlimit="1.45">
      <path d="M188 547.2377 L194 531.2377 L182 531.2377 Z" stroke="none" clip-path="url(#clipPath2)"/>
    </g>
    <g stroke-linecap="butt" transform="matrix(1,0,0,1,7,-232)" fill="green" text-rendering="geometricPrecision" shape-rendering="geometricPrecision" stroke="green" stroke-miterlimit="1.45">
      <path fill="none" d="M188 547.2377 L194 531.2377 L182 531.2377 Z" clip-path="url(#clipPath2)"/>
    </g>
    <g stroke-linecap="round" transform="matrix(1,0,0,1,7,-232)" stroke-dashoffset="2" fill="white" text-rendering="geometricPrecision" shape-rendering="geometricPrecision" stroke-dasharray="0,4" stroke="white" stroke-miterlimit="1.45">
      <rect x="83.2852" width="209.4297" height="23.6016" y="461.3867" clip-path="url(#clipPath2)" stroke="none"/>
    </g>
    <g stroke-linecap="butt" font-size="16px" transform="matrix(1,0,0,1,7,-232)" fill="green" text-rendering="geometricPrecision" font-family="sans-serif" shape-rendering="geometricPrecision" stroke="green" stroke-miterlimit="1.45">
      <text x="85.2852" xml:space="preserve" y="479.4727" clip-path="url(#clipPath2)" stroke="none">dcterms:bibliographicCitation</text>
    </g>
    <g stroke-linecap="round" transform="matrix(1,0,0,1,7,-232)" stroke-dashoffset="2" fill="navy" text-rendering="geometricPrecision" shape-rendering="geometricPrecision" stroke-dasharray="0,4" stroke="navy" stroke-miterlimit="1.45">
      <path fill="none" d="M366.5 451.7867 L366.5 590.9708" clip-path="url(#clipPath2)"/>
      <path d="M366.5 443.7867 C368.7091 443.7867 370.5 445.5775 370.5 447.7867 C370.5 449.9958 368.7091 451.7867 366.5 451.7867 C364.2909 451.7867 362.5 449.9958 362.5 447.7867 C362.5 445.5775 364.2909 443.7867 366.5 443.7867 Z" clip-path="url(#clipPath2)" stroke="none"/>
      <path d="M366.5 601.9708 L372.5 589.9708 L360.5 589.9708 Z" clip-path="url(#clipPath2)" stroke="none"/>
      <rect x="328.0469" y="513.0482" clip-path="url(#clipPath2)" fill="white" width="76.9062" height="23.6016" stroke="none"/>
    </g>
    <g stroke-linecap="butt" font-size="16px" transform="matrix(1,0,0,1,7,-232)" fill="navy" text-rendering="geometricPrecision" font-family="sans-serif" shape-rendering="geometricPrecision" stroke="navy" stroke-miterlimit="1.45">
      <text x="330.0469" xml:space="preserve" y="531.1341" clip-path="url(#clipPath2)" stroke="none">frbr:partOf</text>
    </g>
    <g stroke-linecap="round" transform="matrix(1,0,0,1,7,-232)" stroke-dashoffset="2" fill="navy" text-rendering="geometricPrecision" shape-rendering="geometricPrecision" stroke-dasharray="0,4" stroke="navy" stroke-miterlimit="1.45">
      <path fill="none" d="M298.4902 623.9479 L236.2804 623.9479 L236.2804 700.9533" clip-path="url(#clipPath2)"/>
      <path d="M306.4902 623.9479 C306.4902 626.1571 304.6993 627.9479 302.4902 627.9479 C300.281 627.9479 298.4902 626.1571 298.4902 623.9479 C298.4902 621.7388 300.281 619.9479 302.4902 619.9479 C304.6993 619.9479 306.4902 621.7388 306.4902 623.9479 Z" clip-path="url(#clipPath2)" stroke="none"/>
      <path d="M236.2804 711.9533 L242.2804 699.9533 L230.2804 699.9533 Z" clip-path="url(#clipPath2)" stroke="none"/>
      <rect x="175.1476" y="651.5846" clip-path="url(#clipPath2)" fill="white" width="122.2656" height="23.6016" stroke="none"/>
    </g>
    <g stroke-linecap="butt" font-size="16px" transform="matrix(1,0,0,1,7,-232)" fill="navy" text-rendering="geometricPrecision" font-family="sans-serif" shape-rendering="geometricPrecision" stroke="navy" stroke-miterlimit="1.45">
      <text x="177.1476" xml:space="preserve" y="669.6706" clip-path="url(#clipPath2)" stroke="none">frbr:realizationOf</text>
    </g>
    <g stroke-linecap="round" transform="matrix(1,0,0,1,7,-232)" stroke-dashoffset="2" fill="navy" text-rendering="geometricPrecision" shape-rendering="geometricPrecision" stroke-dasharray="0,4" stroke="navy" stroke-miterlimit="1.45">
      <path fill="none" d="M289.7864 732.9749 L450.7278 730.0482" clip-path="url(#clipPath2)"/>
      <path d="M281.7878 733.1204 C281.7476 730.9116 283.5056 729.0885 285.7144 729.0483 C287.9231 729.0082 289.7463 730.7661 289.7864 732.9749 C289.8266 735.1837 288.0686 737.0068 285.8599 737.047 C283.6511 737.0872 281.8279 735.3292 281.7878 733.1204 Z" clip-path="url(#clipPath2)" stroke="none"/>
      <path d="M461.726 729.8483 L449.6189 724.0674 L449.837 736.0654 Z" clip-path="url(#clipPath2)" stroke="none"/>
      <rect x="316.1876" y="719.6471" clip-path="url(#clipPath2)" fill="white" width="115.1406" height="23.6016" stroke="none"/>
    </g>
    <g stroke-linecap="butt" font-size="16px" transform="matrix(1,0,0,1,7,-232)" fill="navy" text-rendering="geometricPrecision" font-family="sans-serif" shape-rendering="geometricPrecision" stroke="navy" stroke-miterlimit="1.45">
      <text x="318.1876" xml:space="preserve" y="737.7331" clip-path="url(#clipPath2)" stroke="none">dcterms:creator</text>
    </g>
    <g stroke-linecap="round" transform="matrix(1,0,0,1,7,-232)" stroke-dashoffset="2" fill="navy" text-rendering="geometricPrecision" shape-rendering="geometricPrecision" stroke-dasharray="0,4" stroke="navy" stroke-miterlimit="1.45">
      <path fill="none" d="M256.0091 269 L450.7762 269" clip-path="url(#clipPath2)"/>
      <path d="M248.0091 269 C248.0091 266.7909 249.8 265 252.0091 265 C254.2183 265 256.0091 266.7909 256.0091 269 C256.0091 271.2091 254.2183 273 252.0091 273 C249.8 273 248.0091 271.2091 248.0091 269 Z" clip-path="url(#clipPath2)" stroke="none"/>
      <path d="M461.7762 269 L449.7762 263 L449.7762 275 Z" clip-path="url(#clipPath2)" stroke="none"/>
      <rect x="300.1841" y="257.1992" clip-path="url(#clipPath2)" fill="white" width="113.3672" height="23.6016" stroke="none"/>
    </g>
    <g stroke-linecap="butt" font-size="16px" transform="matrix(1,0,0,1,7,-232)" fill="navy" text-rendering="geometricPrecision" font-family="sans-serif" shape-rendering="geometricPrecision" stroke="navy" stroke-miterlimit="1.45">
      <text x="302.1841" xml:space="preserve" y="275.2852" clip-path="url(#clipPath2)" stroke="none">dcterms:source</text>
    </g>
    <g stroke-linecap="round" transform="matrix(1,0,0,1,7,-232)" stroke-dashoffset="2" fill="navy" text-rendering="geometricPrecision" shape-rendering="geometricPrecision" stroke-dasharray="0,4" stroke="navy" stroke-miterlimit="1.45">
      <path fill="none" d="M188 294.9994 L188 322.3854 L366.5 322.3854 L366.5 357.7111" clip-path="url(#clipPath2)"/>
      <path d="M188 286.9994 C190.2091 286.9994 192 288.7903 192 290.9994 C192 293.2086 190.2091 294.9994 188 294.9994 C185.7909 294.9994 184 293.2086 184 290.9994 C184 288.7903 185.7909 286.9994 188 286.9994 Z" clip-path="url(#clipPath2)" stroke="none"/>
      <path d="M366.5 368.7111 L372.5 356.7111 L360.5 356.7111 Z" clip-path="url(#clipPath2)" stroke="none"/>
      <rect x="213.4414" y="310.5846" clip-path="url(#clipPath2)" fill="white" width="127.6172" height="23.6016" stroke="none"/>
    </g>
    <g stroke-linecap="butt" font-size="16px" transform="matrix(1,0,0,1,7,-232)" fill="navy" text-rendering="geometricPrecision" font-family="sans-serif" shape-rendering="geometricPrecision" stroke="navy" stroke-miterlimit="1.45">
      <text x="215.4414" xml:space="preserve" y="328.6706" clip-path="url(#clipPath2)" stroke="none">c4o:isRelevantTo</text>
    </g>
    <g stroke-linecap="round" transform="matrix(1,0,0,1,7,-232)" stroke-dashoffset="2" fill="green" text-rendering="geometricPrecision" shape-rendering="geometricPrecision" stroke-dasharray="0,4" stroke="green" stroke-miterlimit="1.45">
      <path fill="none" d="M119.9941 269 L66.9062 269 L66.9062 623.9479 L188 623.9479 L188 605.2308" clip-path="url(#clipPath2)"/>
    </g>
    <g stroke-linecap="round" transform="matrix(1,0,0,1,7,-232)" fill-opacity="0" stroke-dashoffset="2" fill="rgb(0,0,0)" text-rendering="geometricPrecision" shape-rendering="geometricPrecision" stroke-dasharray="0,4" stroke="rgb(0,0,0)" stroke-opacity="0" stroke-miterlimit="1.45">
      <path d="M127.9941 269 C127.9941 271.2091 126.2033 273 123.9941 273 C121.785 273 119.9941 271.2091 119.9941 269 C119.9941 266.7909 121.785 265 123.9941 265 C126.2033 265 127.9941 266.7909 127.9941 269 Z" stroke="none" clip-path="url(#clipPath2)"/>
    </g>
    <g stroke-linecap="butt" transform="matrix(1,0,0,1,7,-232)" fill="green" text-rendering="geometricPrecision" shape-rendering="geometricPrecision" stroke="green" stroke-miterlimit="1.45">
      <path fill="none" d="M127.9941 269 C127.9941 271.2091 126.2033 273 123.9941 273 C121.785 273 119.9941 271.2091 119.9941 269 C119.9941 266.7909 121.785 265 123.9941 265 C126.2033 265 127.9941 266.7909 127.9941 269 Z" clip-path="url(#clipPath2)"/>
    </g>
    <g stroke-linecap="round" transform="matrix(1,0,0,1,7,-232)" stroke-dashoffset="2" fill="white" text-rendering="geometricPrecision" shape-rendering="geometricPrecision" stroke-dasharray="0,4" stroke="white" stroke-miterlimit="1.45">
      <path d="M188 590.2308 L182 606.2308 L194 606.2308 Z" stroke="none" clip-path="url(#clipPath2)"/>
    </g>
    <g stroke-linecap="butt" transform="matrix(1,0,0,1,7,-232)" fill="green" text-rendering="geometricPrecision" shape-rendering="geometricPrecision" stroke="green" stroke-miterlimit="1.45">
      <path fill="none" d="M188 590.2308 L182 606.2308 L194 606.2308 Z" clip-path="url(#clipPath2)"/>
    </g>
    <g stroke-linecap="round" transform="matrix(1,0,0,1,7,-232)" stroke-dashoffset="2" fill="white" text-rendering="geometricPrecision" shape-rendering="geometricPrecision" stroke-dasharray="0,4" stroke="white" stroke-miterlimit="1.45">
      <rect x="8.8672" width="116.0781" height="23.6016" y="434.6732" clip-path="url(#clipPath2)" stroke="none"/>
    </g>
    <g stroke-linecap="butt" font-size="16px" transform="matrix(1,0,0,1,7,-232)" fill="green" text-rendering="geometricPrecision" font-family="sans-serif" shape-rendering="geometricPrecision" stroke="green" stroke-miterlimit="1.45">
      <text x="10.8672" xml:space="preserve" y="452.7591" clip-path="url(#clipPath2)" stroke="none">c4o:hasContent</text>
    </g>
  </g>
</svg>
