<?xml version="1.0" encoding="UTF-8"?><svg xmlns="http://www.w3.org/2000/svg" xmlns:xlink="http://www.w3.org/1999/xlink" fill-opacity="1" color-rendering="auto" color-interpolation="auto" text-rendering="auto" stroke="black" stroke-linecap="square" width="796" stroke-miterlimit="10" shape-rendering="auto" stroke-opacity="1" fill="black" stroke-dasharray="none" font-weight="normal" stroke-width="1" height="666" font-family="'Dialog'" font-style="normal" stroke-linejoin="miter" font-size="12px" stroke-dashoffset="0" image-rendering="auto">
  <!--Generated by ySVG 2.5-->
  <defs id="genericDefs"/>
  <g>
    <defs id="defs1">
      <clipPath clipPathUnits="userSpaceOnUse" id="clipPath1">
        <path d="M0 0 L796 0 L796 666 L0 666 L0 0 Z"/>
      </clipPath>
      <clipPath clipPathUnits="userSpaceOnUse" id="clipPath2">
        <path d="M-29 77 L767 77 L767 743 L-29 743 L-29 77 Z"/>
      </clipPath>
    </defs>
    <g fill="white" text-rendering="geometricPrecision" shape-rendering="geometricPrecision" transform="translate(29,-77)" stroke="white">
      <rect x="-29" width="796" height="666" y="77" clip-path="url(#clipPath2)" stroke="none"/>
    </g>
    <g fill="yellow" text-rendering="geometricPrecision" shape-rendering="geometricPrecision" transform="matrix(1,0,0,1,29,-77)" stroke="yellow">
      <rect x="222.5318" y="92" clip-path="url(#clipPath2)" width="167.9682" rx="4" ry="4" height="44" stroke="none"/>
    </g>
    <g font-size="16px" stroke-linecap="butt" transform="matrix(1,0,0,1,29,-77)" text-rendering="geometricPrecision" font-family="sans-serif" shape-rendering="geometricPrecision" stroke-miterlimit="1.45">
      <text x="233.1526" xml:space="preserve" y="120.2852" clip-path="url(#clipPath2)" stroke="none">fabio:WorkCollection</text>
      <rect x="222.5318" y="92" clip-path="url(#clipPath2)" fill="none" width="167.9682" rx="4" ry="4" height="44"/>
    </g>
    <g fill="yellow" text-rendering="geometricPrecision" shape-rendering="geometricPrecision" transform="matrix(1,0,0,1,29,-77)" stroke="yellow">
      <rect x="252.5397" y="232" clip-path="url(#clipPath2)" width="107.9523" rx="4" ry="4" height="44" stroke="none"/>
    </g>
    <g font-size="16px" stroke-linecap="butt" transform="matrix(1,0,0,1,29,-77)" text-rendering="geometricPrecision" font-family="sans-serif" shape-rendering="geometricPrecision" stroke-miterlimit="1.45">
      <text x="273.6292" xml:space="preserve" y="260.2852" clip-path="url(#clipPath2)" stroke="none">frbr:Work</text>
      <rect x="252.5397" y="232" clip-path="url(#clipPath2)" fill="none" width="107.9523" rx="4" ry="4" height="44"/>
    </g>
    <g fill="yellow" text-rendering="geometricPrecision" shape-rendering="geometricPrecision" transform="matrix(1,0,0,1,29,-77)" stroke="yellow">
      <rect x="587.0318" y="232" clip-path="url(#clipPath2)" width="129.9682" rx="4" ry="4" height="44" stroke="none"/>
    </g>
    <g font-size="16px" stroke-linecap="butt" transform="matrix(1,0,0,1,29,-77)" text-rendering="geometricPrecision" font-family="sans-serif" shape-rendering="geometricPrecision" stroke-miterlimit="1.45">
      <text x="611.9885" xml:space="preserve" y="260.2852" clip-path="url(#clipPath2)" stroke="none">fabio:Letter</text>
      <rect x="587.0318" y="232" clip-path="url(#clipPath2)" fill="none" width="129.9682" rx="4" ry="4" height="44"/>
    </g>
    <g fill="yellow" text-rendering="geometricPrecision" shape-rendering="geometricPrecision" transform="matrix(1,0,0,1,29,-77)" stroke="yellow">
      <rect x="238.5397" y="602" clip-path="url(#clipPath2)" width="135.9523" rx="4" ry="4" height="44" stroke="none"/>
    </g>
    <g font-size="16px" stroke-linecap="butt" transform="matrix(1,0,0,1,29,-77)" text-rendering="geometricPrecision" font-family="sans-serif" shape-rendering="geometricPrecision" stroke-miterlimit="1.45">
      <text x="246.4768" xml:space="preserve" y="630.2852" clip-path="url(#clipPath2)" stroke="none">fabio:AnalogItem</text>
      <rect x="238.5397" y="602" clip-path="url(#clipPath2)" fill="none" width="135.9523" rx="4" ry="4" height="44"/>
    </g>
    <g fill="rgb(255,255,153)" text-rendering="geometricPrecision" shape-rendering="geometricPrecision" transform="matrix(1,0,0,1,29,-77)" stroke="rgb(255,255,153)">
      <rect x="584.0397" y="536.5" clip-path="url(#clipPath2)" width="135.9523" rx="4" ry="4" height="44" stroke="none"/>
    </g>
    <g font-size="16px" stroke-linecap="butt" transform="matrix(1,0,0,1,29,-77)" text-rendering="geometricPrecision" font-family="sans-serif" shape-rendering="geometricPrecision" stroke-miterlimit="1.45">
      <text x="597.3284" xml:space="preserve" y="564.7852" clip-path="url(#clipPath2)" stroke="none">pro:RoleInTime</text>
    </g>
    <g stroke-linecap="round" transform="matrix(1,0,0,1,29,-77)" stroke-dashoffset="2" text-rendering="geometricPrecision" shape-rendering="geometricPrecision" stroke-dasharray="0,4" stroke-miterlimit="1.45">
      <rect x="584.0397" y="536.5" clip-path="url(#clipPath2)" fill="none" width="135.9523" rx="4" ry="4" height="44"/>
    </g>
    <g fill="yellow" text-rendering="geometricPrecision" shape-rendering="geometricPrecision" transform="matrix(1,0,0,1,29,-77)" stroke="yellow">
      <rect x="552.6984" y="372" clip-path="url(#clipPath2)" width="198.6349" rx="4" ry="4" height="44" stroke="none"/>
    </g>
    <g font-size="16px" stroke-linecap="butt" transform="matrix(1,0,0,1,29,-77)" text-rendering="geometricPrecision" font-family="sans-serif" shape-rendering="geometricPrecision" stroke-miterlimit="1.45">
      <text x="559.9534" xml:space="preserve" y="400.2852" clip-path="url(#clipPath2)" stroke="none">fabio:AnalogManifestation</text>
      <rect x="552.6984" y="372" clip-path="url(#clipPath2)" fill="none" width="198.6349" rx="4" ry="4" height="44"/>
    </g>
    <g fill="rgb(204,255,204)" text-rendering="geometricPrecision" shape-rendering="geometricPrecision" transform="matrix(1,0,0,1,29,-77)" stroke="rgb(204,255,204)">
      <path d="M601.5779 440.5 L715.0634 440.5 L702.4539 483.5 L588.9684 483.5 Z" fill-rule="evenodd" clip-path="url(#clipPath2)" stroke="none"/>
    </g>
    <g font-size="16px" stroke-linecap="butt" transform="matrix(1,0,0,1,29,-77)" text-rendering="geometricPrecision" font-family="sans-serif" shape-rendering="geometricPrecision" stroke-miterlimit="1.45">
      <text x="614.6682" xml:space="preserve" y="468.2852" clip-path="url(#clipPath2)" stroke="none">rdfs:Literal</text>
      <path fill="none" d="M601.5779 440.5 L715.0634 440.5 L702.4539 483.5 L588.9684 483.5 Z" fill-rule="evenodd" clip-path="url(#clipPath2)"/>
    </g>
    <g fill="rgb(255,255,153)" text-rendering="geometricPrecision" shape-rendering="geometricPrecision" transform="matrix(1,0,0,1,29,-77)" stroke="rgb(255,255,153)">
      <rect x="449.0794" y="92" clip-path="url(#clipPath2)" width="107.9523" rx="4" ry="4" height="44" stroke="none"/>
    </g>
    <g font-size="16px" stroke-linecap="butt" transform="matrix(1,0,0,1,29,-77)" text-rendering="geometricPrecision" font-family="sans-serif" shape-rendering="geometricPrecision" stroke-miterlimit="1.45">
      <text x="470.1689" xml:space="preserve" y="120.2852" clip-path="url(#clipPath2)" stroke="none">frbr:Work</text>
    </g>
    <g stroke-linecap="round" transform="matrix(1,0,0,1,29,-77)" stroke-dashoffset="2" text-rendering="geometricPrecision" shape-rendering="geometricPrecision" stroke-dasharray="0,4" stroke-miterlimit="1.45">
      <rect x="449.0794" y="92" clip-path="url(#clipPath2)" fill="none" width="107.9523" rx="4" ry="4" height="44"/>
    </g>
    <g fill="rgb(255,255,153)" text-rendering="geometricPrecision" shape-rendering="geometricPrecision" transform="matrix(1,0,0,1,29,-77)" stroke="rgb(255,255,153)">
      <rect x="643.381" y="92" clip-path="url(#clipPath2)" width="107.9523" rx="4" ry="4" height="44" stroke="none"/>
    </g>
    <g font-size="16px" stroke-linecap="butt" transform="matrix(1,0,0,1,29,-77)" text-rendering="geometricPrecision" font-family="sans-serif" shape-rendering="geometricPrecision" stroke-miterlimit="1.45">
      <text x="662.6775" xml:space="preserve" y="120.2852" clip-path="url(#clipPath2)" stroke="none">frbr:Letter</text>
    </g>
    <g stroke-linecap="round" transform="matrix(1,0,0,1,29,-77)" stroke-dashoffset="2" text-rendering="geometricPrecision" shape-rendering="geometricPrecision" stroke-dasharray="0,4" stroke-miterlimit="1.45">
      <rect x="643.381" y="92" clip-path="url(#clipPath2)" fill="none" width="107.9523" rx="4" ry="4" height="44"/>
    </g>
    <g fill="yellow" text-rendering="geometricPrecision" shape-rendering="geometricPrecision" transform="matrix(1,0,0,1,29,-77)" stroke="yellow">
      <rect x="230.5358" y="683.25" clip-path="url(#clipPath2)" width="151.9603" rx="4" ry="4" height="44" stroke="none"/>
    </g>
    <g font-size="16px" stroke-linecap="butt" transform="matrix(1,0,0,1,29,-77)" text-rendering="geometricPrecision" font-family="sans-serif" shape-rendering="geometricPrecision" stroke-miterlimit="1.45">
      <text x="236.2581" xml:space="preserve" y="711.5352" clip-path="url(#clipPath2)" stroke="none">fabio:ItemCollection</text>
      <rect x="230.5358" y="683.25" clip-path="url(#clipPath2)" fill="none" width="151.9603" rx="4" ry="4" height="44"/>
    </g>
    <g fill="rgb(255,255,153)" text-rendering="geometricPrecision" shape-rendering="geometricPrecision" transform="matrix(1,0,0,1,29,-77)" stroke="rgb(255,255,153)">
      <rect x="552.6984" y="636.375" clip-path="url(#clipPath2)" width="198.6349" rx="4" ry="4" height="44" stroke="none"/>
    </g>
    <g font-size="16px" stroke-linecap="butt" transform="matrix(1,0,0,1,29,-77)" text-rendering="geometricPrecision" font-family="sans-serif" shape-rendering="geometricPrecision" stroke-miterlimit="1.45">
      <text x="558.2034" xml:space="preserve" y="664.6602" clip-path="url(#clipPath2)" stroke="none">san:complessoArchivistico</text>
    </g>
    <g stroke-linecap="round" transform="matrix(1,0,0,1,29,-77)" stroke-dashoffset="2" text-rendering="geometricPrecision" shape-rendering="geometricPrecision" stroke-dasharray="0,4" stroke-miterlimit="1.45">
      <rect x="552.6984" y="636.375" clip-path="url(#clipPath2)" fill="none" width="198.6349" rx="4" ry="4" height="44"/>
    </g>
    <g fill="yellow" text-rendering="geometricPrecision" shape-rendering="geometricPrecision" transform="matrix(1,0,0,1,29,-77)" stroke="yellow">
      <rect x="252.5397" y="372" clip-path="url(#clipPath2)" width="107.9523" rx="4" ry="4" height="44" stroke="none"/>
    </g>
    <g font-size="16px" stroke-linecap="butt" transform="matrix(1,0,0,1,29,-77)" text-rendering="geometricPrecision" font-family="sans-serif" shape-rendering="geometricPrecision" stroke-miterlimit="1.45">
      <text x="276.7346" xml:space="preserve" y="400.2852" clip-path="url(#clipPath2)" stroke="none">frbr:Item</text>
      <rect x="252.5397" y="372" clip-path="url(#clipPath2)" fill="none" width="107.9523" rx="4" ry="4" height="44"/>
    </g>
    <g fill="rgb(255,255,153)" text-rendering="geometricPrecision" shape-rendering="geometricPrecision" transform="matrix(1,0,0,1,29,-77)" stroke="rgb(255,255,153)">
      <rect x="-13.1081" y="372" clip-path="url(#clipPath2)" width="107.9523" rx="4" ry="4" height="44" stroke="none"/>
    </g>
    <g font-size="16px" stroke-linecap="butt" transform="matrix(1,0,0,1,29,-77)" text-rendering="geometricPrecision" font-family="sans-serif" shape-rendering="geometricPrecision" stroke-miterlimit="1.45">
      <text x="11.0869" xml:space="preserve" y="400.2852" clip-path="url(#clipPath2)" stroke="none">frbr:Item</text>
    </g>
    <g stroke-linecap="round" transform="matrix(1,0,0,1,29,-77)" stroke-dashoffset="2" text-rendering="geometricPrecision" shape-rendering="geometricPrecision" stroke-dasharray="0,4" stroke-miterlimit="1.45">
      <rect x="-13.1081" y="372" clip-path="url(#clipPath2)" fill="none" width="107.9523" rx="4" ry="4" height="44"/>
      <path fill="none" d="M306.5159 139.9775 L306.5159 221.0149" clip-path="url(#clipPath2)" stroke="navy"/>
      <path fill="navy" d="M306.5159 131.9775 C308.725 131.9775 310.5159 133.7684 310.5159 135.9775 C310.5159 138.1867 308.725 139.9775 306.5159 139.9775 C304.3068 139.9775 302.5159 138.1867 302.5159 135.9775 C302.5159 133.7684 304.3068 131.9775 306.5159 131.9775 Z" clip-path="url(#clipPath2)" stroke="none"/>
      <path fill="navy" d="M306.5159 232.0149 L312.5159 220.0149 L300.5159 220.0149 Z" clip-path="url(#clipPath2)" stroke="none"/>
      <rect x="276.5081" y="172.1992" clip-path="url(#clipPath2)" fill="white" width="60.0156" height="23.6016" stroke="none"/>
    </g>
    <g stroke-linecap="butt" font-size="16px" transform="matrix(1,0,0,1,29,-77)" fill="navy" text-rendering="geometricPrecision" font-family="sans-serif" shape-rendering="geometricPrecision" stroke="navy" stroke-miterlimit="1.45">
      <text x="278.5081" xml:space="preserve" y="190.2852" clip-path="url(#clipPath2)" stroke="none">frbr:part</text>
    </g>
    <g stroke-linecap="round" transform="matrix(1,0,0,1,29,-77)" stroke-dashoffset="2" fill="navy" text-rendering="geometricPrecision" shape-rendering="geometricPrecision" stroke-dasharray="0,4" stroke="navy" stroke-miterlimit="1.45">
      <path fill="none" d="M364.4581 254 L576.0631 254" clip-path="url(#clipPath2)"/>
      <path d="M356.4581 254 C356.4581 251.7909 358.249 250 360.4581 250 C362.6672 250 364.4581 251.7909 364.4581 254 C364.4581 256.2091 362.6672 258 360.4581 258 C358.249 258 356.4581 256.2091 356.4581 254 Z" clip-path="url(#clipPath2)" stroke="none"/>
      <path d="M587.0631 254 L575.0631 248 L575.0631 260 Z" clip-path="url(#clipPath2)" stroke="none"/>
      <rect x="421.0744" y="242.1992" clip-path="url(#clipPath2)" fill="white" width="105.375" height="23.6016" stroke="none"/>
    </g>
    <g stroke-linecap="butt" font-size="16px" transform="matrix(1,0,0,1,29,-77)" fill="navy" text-rendering="geometricPrecision" font-family="sans-serif" shape-rendering="geometricPrecision" stroke="navy" stroke-miterlimit="1.45">
      <text x="423.0744" xml:space="preserve" y="260.2852" clip-path="url(#clipPath2)" stroke="none">frbr:realization</text>
    </g>
    <g stroke-linecap="round" transform="matrix(1,0,0,1,29,-77)" stroke-dashoffset="2" fill="navy" text-rendering="geometricPrecision" shape-rendering="geometricPrecision" stroke-dasharray="0,4" stroke="navy" stroke-miterlimit="1.45">
      <path fill="none" d="M652.0159 279.9775 L652.0159 361.0149" clip-path="url(#clipPath2)"/>
      <path d="M652.0159 271.9775 C654.225 271.9775 656.0159 273.7684 656.0159 275.9775 C656.0159 278.1867 654.225 279.9775 652.0159 279.9775 C649.8067 279.9775 648.0159 278.1867 648.0159 275.9775 C648.0159 273.7684 649.8067 271.9775 652.0159 271.9775 Z" clip-path="url(#clipPath2)" stroke="none"/>
      <path d="M652.0159 372.0149 L658.0159 360.0149 L646.0159 360.0149 Z" clip-path="url(#clipPath2)" stroke="none"/>
      <rect x="591.7698" y="312.1992" clip-path="url(#clipPath2)" fill="white" width="120.4922" height="23.6016" stroke="none"/>
    </g>
    <g stroke-linecap="butt" font-size="16px" transform="matrix(1,0,0,1,29,-77)" fill="navy" text-rendering="geometricPrecision" font-family="sans-serif" shape-rendering="geometricPrecision" stroke="navy" stroke-miterlimit="1.45">
      <text x="593.7698" xml:space="preserve" y="330.2852" clip-path="url(#clipPath2)" stroke="none">frbr:embodiment</text>
    </g>
    <g stroke-linecap="round" transform="matrix(1,0,0,1,29,-77)" stroke-dashoffset="2" fill="navy" text-rendering="geometricPrecision" shape-rendering="geometricPrecision" stroke-dasharray="0,4" stroke="navy" stroke-miterlimit="1.45">
      <path fill="none" d="M652.0159 228.0281 L652.0159 188.5 L503.0556 188.5 L503.0556 147.0081" clip-path="url(#clipPath2)"/>
      <path d="M652.0159 236.0281 C649.8067 236.0281 648.0159 234.2372 648.0159 232.0281 C648.0159 229.8189 649.8067 228.0281 652.0159 228.0281 C654.225 228.0281 656.0159 229.8189 656.0159 232.0281 C656.0159 234.2372 654.225 236.0281 652.0159 236.0281 Z" clip-path="url(#clipPath2)" stroke="none"/>
      <path d="M503.0556 136.0081 L497.0556 148.0081 L509.0556 148.0081 Z" clip-path="url(#clipPath2)" stroke="none"/>
      <rect x="511.5084" y="176.6992" clip-path="url(#clipPath2)" fill="white" width="132.0547" height="23.6016" stroke="none"/>
    </g>
    <g stroke-linecap="butt" font-size="16px" transform="matrix(1,0,0,1,29,-77)" fill="navy" text-rendering="geometricPrecision" font-family="sans-serif" shape-rendering="geometricPrecision" stroke="navy" stroke-miterlimit="1.45">
      <text x="513.5084" xml:space="preserve" y="194.7852" clip-path="url(#clipPath2)" stroke="none">schema:subjectOf</text>
    </g>
    <g stroke-linecap="round" transform="matrix(1,0,0,1,29,-77)" stroke-dashoffset="2" fill="navy" text-rendering="geometricPrecision" shape-rendering="geometricPrecision" stroke-dasharray="0,4" stroke="navy" stroke-miterlimit="1.45">
      <path fill="none" d="M605 182.5 L605 114 L632.377 114" clip-path="url(#clipPath2)"/>
      <path d="M643.377 114 L631.377 108 L631.377 120 Z" clip-path="url(#clipPath2)" stroke="none"/>
      <path fill="none" d="M378.5172 624 L518.4087 624 L518.4087 658.375 L541.6912 658.375" clip-path="url(#clipPath2)"/>
      <path d="M370.5172 624 C370.5172 621.7908 372.308 620 374.5172 620 C376.7263 620 378.5172 621.7908 378.5172 624 C378.5172 626.2092 376.7263 628 374.5172 628 C372.308 628 370.5172 626.2092 370.5172 624 Z" clip-path="url(#clipPath2)" stroke="none"/>
      <path d="M552.6912 658.375 L540.6912 652.375 L540.6912 664.375 Z" clip-path="url(#clipPath2)" stroke="none"/>
      <rect x="412.5598" y="612.1992" clip-path="url(#clipPath2)" fill="white" width="76.9062" height="23.6016" stroke="none"/>
    </g>
    <g stroke-linecap="butt" font-size="16px" transform="matrix(1,0,0,1,29,-77)" fill="navy" text-rendering="geometricPrecision" font-family="sans-serif" shape-rendering="geometricPrecision" stroke="navy" stroke-miterlimit="1.45">
      <text x="414.5598" xml:space="preserve" y="630.2852" clip-path="url(#clipPath2)" stroke="none">frbr:partOf</text>
    </g>
    <g stroke-linecap="round" transform="matrix(1,0,0,1,29,-77)" stroke-dashoffset="2" fill="navy" text-rendering="geometricPrecision" shape-rendering="geometricPrecision" stroke-dasharray="0,4" stroke="navy" stroke-miterlimit="1.45">
      <path fill="none" d="M386.5098 705.25 L434.0337 705.25 L434.0337 635.625" clip-path="url(#clipPath2)"/>
      <path d="M378.5098 705.25 C378.5098 703.0408 380.3007 701.25 382.5098 701.25 C384.7189 701.25 386.5098 703.0408 386.5098 705.25 C386.5098 707.4592 384.7189 709.25 382.5098 709.25 C380.3007 709.25 378.5098 707.4592 378.5098 705.25 Z" clip-path="url(#clipPath2)" stroke="none"/>
      <path fill="none" d="M548.7252 391.4349 L371.4637 393.3122" clip-path="url(#clipPath2)"/>
      <path d="M556.7247 391.3502 C556.7481 393.5592 554.9763 395.3689 552.7673 395.3923 C550.5582 395.4157 548.7485 393.6439 548.7252 391.4349 C548.7017 389.2259 550.4735 387.4161 552.6826 387.3927 C554.8916 387.3694 556.7013 389.1411 556.7247 391.3502 Z" clip-path="url(#clipPath2)" stroke="none"/>
      <path d="M360.4643 393.4286 L372.5271 399.3012 L372.4001 387.3019 Z" clip-path="url(#clipPath2)" stroke="none"/>
      <rect x="407.4703" y="380.6098" clip-path="url(#clipPath2)" fill="white" width="98.25" height="23.6016" stroke="none"/>
    </g>
    <g stroke-linecap="butt" font-size="16px" transform="matrix(1,0,0,1,29,-77)" fill="navy" text-rendering="geometricPrecision" font-family="sans-serif" shape-rendering="geometricPrecision" stroke="navy" stroke-miterlimit="1.45">
      <text x="409.4702" xml:space="preserve" y="398.6957" clip-path="url(#clipPath2)" stroke="none">frbr:exemplar</text>
    </g>
    <g stroke-linecap="round" transform="matrix(1,0,0,1,29,-77)" stroke-dashoffset="2" fill="navy" text-rendering="geometricPrecision" shape-rendering="geometricPrecision" stroke-dasharray="0,4" stroke="navy" stroke-miterlimit="1.45">
      <path fill="none" d="M306.5159 279.9775 L306.5159 361.0149" clip-path="url(#clipPath2)"/>
      <path d="M306.5159 271.9775 C308.725 271.9775 310.5159 273.7684 310.5159 275.9775 C310.5159 278.1867 308.725 279.9775 306.5159 279.9775 C304.3068 279.9775 302.5159 278.1867 302.5159 275.9775 C302.5159 273.7684 304.3068 271.9775 306.5159 271.9775 Z" clip-path="url(#clipPath2)" stroke="none"/>
      <path d="M306.5159 372.0149 L312.5159 360.0149 L300.5159 360.0149 Z" clip-path="url(#clipPath2)" stroke="none"/>
      <rect x="240.0354" y="312.1992" clip-path="url(#clipPath2)" fill="white" width="132.9609" height="23.6016" stroke="none"/>
    </g>
    <g stroke-linecap="butt" font-size="16px" transform="matrix(1,0,0,1,29,-77)" fill="navy" text-rendering="geometricPrecision" font-family="sans-serif" shape-rendering="geometricPrecision" stroke="navy" stroke-miterlimit="1.45">
      <text x="242.0354" xml:space="preserve" y="330.2852" clip-path="url(#clipPath2)" stroke="none">fabio:hasPortrayal</text>
    </g>
    <g stroke-linecap="round" transform="matrix(1,0,0,1,29,-77)" stroke-dashoffset="2" fill="navy" text-rendering="geometricPrecision" shape-rendering="geometricPrecision" stroke-dasharray="0,4" stroke="navy" stroke-miterlimit="1.45">
      <path fill="none" d="M263.8125 510.625 L199.5397 510.625 L199.5397 705.25 L219.5409 705.25" clip-path="url(#clipPath2)"/>
      <path d="M230.5409 705.25 L218.5409 699.25 L218.5409 711.25 Z" clip-path="url(#clipPath2)" stroke="none"/>
      <path fill="none" d="M348.8463 420.0105 L348.8463 462 L580.2826 462" clip-path="url(#clipPath2)" stroke="green"/>
    </g>
    <g stroke-linecap="round" transform="matrix(1,0,0,1,29,-77)" fill-opacity="0" stroke-dashoffset="2" fill="rgb(0,0,0)" text-rendering="geometricPrecision" shape-rendering="geometricPrecision" stroke-dasharray="0,4" stroke="rgb(0,0,0)" stroke-opacity="0" stroke-miterlimit="1.45">
      <path d="M348.8463 412.0105 C351.0554 412.0105 352.8463 413.8014 352.8463 416.0105 C352.8463 418.2197 351.0554 420.0105 348.8463 420.0105 C346.6371 420.0105 344.8463 418.2197 344.8463 416.0105 C344.8463 413.8014 346.6371 412.0105 348.8463 412.0105 Z" stroke="none" clip-path="url(#clipPath2)"/>
    </g>
    <g stroke-linecap="butt" transform="matrix(1,0,0,1,29,-77)" fill="green" text-rendering="geometricPrecision" shape-rendering="geometricPrecision" stroke="green" stroke-miterlimit="1.45">
      <path fill="none" d="M348.8463 412.0105 C351.0554 412.0105 352.8463 413.8014 352.8463 416.0105 C352.8463 418.2197 351.0554 420.0105 348.8463 420.0105 C346.6371 420.0105 344.8463 418.2197 344.8463 416.0105 C344.8463 413.8014 346.6371 412.0105 348.8463 412.0105 Z" clip-path="url(#clipPath2)"/>
    </g>
    <g stroke-linecap="round" transform="matrix(1,0,0,1,29,-77)" stroke-dashoffset="2" fill="white" text-rendering="geometricPrecision" shape-rendering="geometricPrecision" stroke-dasharray="0,4" stroke="white" stroke-miterlimit="1.45">
      <path d="M595.2826 462 L579.2826 456 L579.2826 468 Z" stroke="none" clip-path="url(#clipPath2)"/>
    </g>
    <g stroke-linecap="butt" transform="matrix(1,0,0,1,29,-77)" fill="green" text-rendering="geometricPrecision" shape-rendering="geometricPrecision" stroke="green" stroke-miterlimit="1.45">
      <path fill="none" d="M595.2826 462 L579.2826 456 L579.2826 468 Z" clip-path="url(#clipPath2)"/>
    </g>
    <g stroke-linecap="round" transform="matrix(1,0,0,1,29,-77)" stroke-dashoffset="2" fill="white" text-rendering="geometricPrecision" shape-rendering="geometricPrecision" stroke-dasharray="0,4" stroke="white" stroke-miterlimit="1.45">
      <rect x="401.4347" width="125.8203" height="23.6016" y="450.1992" clip-path="url(#clipPath2)" stroke="none"/>
    </g>
    <g stroke-linecap="butt" font-size="16px" transform="matrix(1,0,0,1,29,-77)" fill="green" text-rendering="geometricPrecision" font-family="sans-serif" shape-rendering="geometricPrecision" stroke="green" stroke-miterlimit="1.45">
      <text x="403.4347" xml:space="preserve" y="468.2852" clip-path="url(#clipPath2)" stroke="none">dcterms:identifier</text>
    </g>
    <g stroke-linecap="round" transform="matrix(1,0,0,1,29,-77)" stroke-dashoffset="2" fill="navy" text-rendering="geometricPrecision" shape-rendering="geometricPrecision" stroke-dasharray="0,4" stroke="navy" stroke-miterlimit="1.45">
      <path fill="none" d="M331.0228 420.0191 L331.0228 492 L352.7878 492 L352.7878 558.5 L573.0394 558.5" clip-path="url(#clipPath2)"/>
      <path d="M331.0228 412.0191 C333.2319 412.0191 335.0228 413.81 335.0228 416.0191 C335.0228 418.2282 333.2319 420.0191 331.0228 420.0191 C328.8137 420.0191 327.0228 418.2282 327.0228 416.0191 C327.0228 413.81 328.8137 412.0191 331.0228 412.0191 Z" clip-path="url(#clipPath2)" stroke="none"/>
      <path d="M584.0394 558.5 L572.0394 552.5 L572.0394 564.5 Z" clip-path="url(#clipPath2)" stroke="none"/>
      <rect x="364.4763" y="546.6992" clip-path="url(#clipPath2)" fill="white" width="198.75" height="23.6016" stroke="none"/>
    </g>
    <g stroke-linecap="butt" font-size="16px" transform="matrix(1,0,0,1,29,-77)" fill="navy" text-rendering="geometricPrecision" font-family="sans-serif" shape-rendering="geometricPrecision" stroke="navy" stroke-miterlimit="1.45">
      <text x="366.4763" xml:space="preserve" y="564.7852" clip-path="url(#clipPath2)" stroke="none">pro:isRelatedToRoleInTime</text>
    </g>
    <g stroke-linecap="round" transform="matrix(1,0,0,1,29,-77)" stroke-dashoffset="2" fill="navy" text-rendering="geometricPrecision" shape-rendering="geometricPrecision" stroke-dasharray="0,4" stroke="navy" stroke-miterlimit="1.45">
      <path fill="none" d="M306.5159 419.9836 L306.5159 590.9846" clip-path="url(#clipPath2)"/>
      <path d="M306.5159 411.9836 C308.725 411.9836 310.5159 413.7745 310.5159 415.9836 C310.5159 418.1928 308.725 419.9836 306.5159 419.9836 C304.3068 419.9836 302.5159 418.1928 302.5159 415.9836 C302.5159 413.7745 304.3068 411.9836 306.5159 411.9836 Z" clip-path="url(#clipPath2)" stroke="none"/>
      <path d="M306.5159 601.9846 L312.5159 589.9846 L300.5159 589.9846 Z" clip-path="url(#clipPath2)" stroke="none"/>
      <rect x="268.0628" y="497.1992" clip-path="url(#clipPath2)" fill="white" width="76.9062" height="23.6016" stroke="none"/>
    </g>
    <g stroke-linecap="butt" font-size="16px" transform="matrix(1,0,0,1,29,-77)" fill="navy" text-rendering="geometricPrecision" font-family="sans-serif" shape-rendering="geometricPrecision" stroke="navy" stroke-miterlimit="1.45">
      <text x="270.0628" xml:space="preserve" y="515.2852" clip-path="url(#clipPath2)" stroke="none">frbr:partOf</text>
    </g>
    <g stroke-linecap="round" transform="matrix(1,0,0,1,29,-77)" stroke-dashoffset="2" fill="navy" text-rendering="geometricPrecision" shape-rendering="geometricPrecision" stroke-dasharray="0,4" stroke="navy" stroke-miterlimit="1.45">
      <path fill="none" d="M248.5238 394 L105.8413 394" clip-path="url(#clipPath2)"/>
      <path d="M256.5237 394 C256.5237 396.2091 254.7329 398 252.5238 398 C250.3146 398 248.5238 396.2091 248.5238 394 C248.5238 391.7909 250.3146 390 252.5238 390 C254.7329 390 256.5237 391.7909 256.5237 394 Z" clip-path="url(#clipPath2)" stroke="none"/>
      <path d="M94.8413 394 L106.8413 400 L106.8413 388 Z" clip-path="url(#clipPath2)" stroke="none"/>
      <rect x="124.1022" y="382.1992" clip-path="url(#clipPath2)" fill="white" width="99.1797" height="23.6016" stroke="none"/>
    </g>
    <g stroke-linecap="butt" font-size="16px" transform="matrix(1,0,0,1,29,-77)" fill="navy" text-rendering="geometricPrecision" font-family="sans-serif" shape-rendering="geometricPrecision" stroke="navy" stroke-miterlimit="1.45">
      <text x="126.1022" xml:space="preserve" y="400.2852" clip-path="url(#clipPath2)" stroke="none">foaf:depiction</text>
    </g>
  </g>
</svg>
